<?xml version="1.0" encoding="utf-8"?>
<!-- Generator: Adobe Illustrator 27.5.0, SVG Export Plug-In . SVG Version: 6.00 Build 0)  -->
<svg version="1.1" xmlns="http://www.w3.org/2000/svg" xmlns:xlink="http://www.w3.org/1999/xlink" x="0px" y="0px"
	 viewBox="0 0 500 500" style="enable-background:new 0 0 500 500;" xml:space="preserve">
<g id="Background_Simple">
	<g>
		<path style="fill:#C6FF00;" d="M47.793,223.073c0,0-23.625,60.524,11.106,108.078c34.731,47.553,93.806,46.244,139.586,61.201
			c23.974,7.833,38.834,29.186,59.559,42.184c66.269,41.558,165.796-16.663,188.584-83.901
			c19.727-58.209,6.016-112.67-41.104-169.601c-47.119-56.931-77.993-99.029-162.663-107.929
			C158.191,64.203,81.605,146.27,47.793,223.073z"/>
		<path style="opacity:0.75;fill:#FFFFFF;" d="M47.793,223.073c0,0-23.625,60.524,11.106,108.078
			c34.731,47.553,93.806,46.244,139.586,61.201c23.974,7.833,38.834,29.186,59.559,42.184
			c66.269,41.558,165.796-16.663,188.584-83.901c19.727-58.209,6.016-112.67-41.104-169.601
			c-47.119-56.931-77.993-99.029-162.663-107.929C158.191,64.203,81.605,146.27,47.793,223.073z"/>
	</g>
</g>
<g id="Plants">
	<g>
		<path style="fill:#C6FF00;stroke:#263238;stroke-linecap:round;stroke-linejoin:round;stroke-miterlimit:10;" d="M359.036,403.688
			c1.572-3.529,3.875-9.19,4.667-13.679c1.246-7.059-8.72-4.567-8.72-4.567s5.398-8.304,4.983-14.948
			c-0.415-6.643-6.643-3.322-6.643-3.322s5.395-27.397-2.494-32.38c-7.889-4.983-13.285,31.965-13.285,31.965
			s-3.322-5.398-9.55-3.322c-6.228,2.076-3.322,18.685-3.322,18.685s-7.059-8.304-8.72,0c-1.224,6.12,5.216,16.518,8.69,21.568
			H359.036z"/>
		
			<line style="fill:none;stroke:#263238;stroke-linecap:round;stroke-linejoin:round;stroke-miterlimit:10;" x1="340.051" y1="403.688" x2="347.423" y2="353.618"/>
		
			<line style="fill:none;stroke:#263238;stroke-linecap:round;stroke-linejoin:round;stroke-miterlimit:10;" x1="341.587" y1="393.551" x2="332.371" y2="375.428"/>
		
			<line style="fill:none;stroke:#263238;stroke-linecap:round;stroke-linejoin:round;stroke-miterlimit:10;" x1="342.508" y1="386.179" x2="354.181" y2="376.964"/>
	</g>
	<g>
		<path style="fill:#C6FF00;stroke:#263238;stroke-linecap:round;stroke-linejoin:round;stroke-miterlimit:10;" d="M182.174,403.688
			c2.442-5.481,6.018-14.273,7.248-21.245c1.935-10.963-13.542-7.094-13.542-7.094s8.383-12.897,7.739-23.215
			c-0.645-10.318-10.318-5.159-10.318-5.159s8.379-42.551-3.873-50.289c-12.253-7.738-20.632,49.644-20.632,49.644
			s-5.159-8.383-14.832-5.159c-9.673,3.224-5.159,29.019-5.159,29.019s-10.963-12.897-13.542,0
			c-1.901,9.505,8.101,25.655,13.497,33.498H182.174z"/>
		
			<line style="fill:none;stroke:#263238;stroke-linecap:round;stroke-linejoin:round;stroke-miterlimit:10;" x1="152.688" y1="403.688" x2="164.137" y2="325.924"/>
		
			<line style="fill:none;stroke:#263238;stroke-linecap:round;stroke-linejoin:round;stroke-miterlimit:10;" x1="155.073" y1="387.945" x2="140.76" y2="359.797"/>
		
			<line style="fill:none;stroke:#263238;stroke-linecap:round;stroke-linejoin:round;stroke-miterlimit:10;" x1="156.504" y1="376.495" x2="174.633" y2="362.182"/>
	</g>
</g>
<g id="Ground">
	<g>
		
			<line style="fill:none;stroke:#263238;stroke-linecap:round;stroke-linejoin:round;stroke-miterlimit:10;" x1="119.034" y1="403.688" x2="384.967" y2="403.688"/>
		
			<line style="fill:none;stroke:#263238;stroke-linecap:round;stroke-linejoin:round;stroke-miterlimit:10;" x1="107.207" y1="403.688" x2="111.585" y2="403.688"/>
	</g>
</g>
<g id="Clouds">
	<path style="fill:none;stroke:#263238;stroke-linecap:round;stroke-linejoin:round;stroke-miterlimit:10;" d="M330.211,164.332
		c0,0-9.458-10.133-17.564-9.458c-8.107,0.676-9.458,8.782-14.186,9.458c-4.729,0.676-12.835-7.431-18.915-4.053
		c-6.08,3.378-4.729,8.107-9.458,8.782c-4.729,0.676-10.809-4.053-15.537-2.027c-4.729,2.027-10.133,6.08-10.133,6.08h103.357
		C347.775,173.114,345.073,160.954,330.211,164.332z"/>
	<g>
		<path style="fill:none;stroke:#263238;stroke-linecap:round;stroke-linejoin:round;stroke-miterlimit:10;" d="M192.401,130.555
			c0,0-9.458-10.133-17.564-9.458c-8.107,0.676-9.458,8.782-14.186,9.458c-4.729,0.675-12.835-7.431-18.915-4.053
			c-6.08,3.378-4.729,8.106-9.458,8.782c-4.729,0.675-10.809-4.053-15.537-2.027c-4.729,2.027-10.133,6.08-10.133,6.08h103.357
			C209.965,139.337,207.263,127.177,192.401,130.555z"/>
		
			<line style="fill:none;stroke:#263238;stroke-linecap:round;stroke-linejoin:round;stroke-miterlimit:10;" x1="174.837" y1="121.097" x2="183.5" y2="119.25"/>
		<circle style="fill:#263238;" cx="183.5" cy="119.25" r="1.5"/>
		
			<rect x="114.718" y="131.707" style="fill:#FFFFFF;stroke:#263238;stroke-linecap:round;stroke-linejoin:round;stroke-miterlimit:10;" width="3.314" height="3.315"/>
		
			<rect x="129.968" y="133.457" style="fill:#FFFFFF;stroke:#263238;stroke-linecap:round;stroke-linejoin:round;stroke-miterlimit:10;" width="3.314" height="3.315"/>
		
			<rect x="139.19" y="125.424" style="fill:#FFFFFF;stroke:#263238;stroke-linecap:round;stroke-linejoin:round;stroke-miterlimit:10;" width="3.314" height="3.315"/>
		
			<rect x="156.593" y="128.343" style="fill:#FFFFFF;stroke:#263238;stroke-linecap:round;stroke-linejoin:round;stroke-miterlimit:10;" width="3.315" height="3.315"/>
		
			<rect x="172.343" y="119.593" style="fill:#FFFFFF;stroke:#263238;stroke-linecap:round;stroke-linejoin:round;stroke-miterlimit:10;" width="3.315" height="3.315"/>
		
			<rect x="190.744" y="128.898" style="fill:#FFFFFF;stroke:#263238;stroke-linecap:round;stroke-linejoin:round;stroke-miterlimit:10;" width="3.314" height="3.315"/>
		
			<rect x="208.308" y="137.68" style="fill:#FFFFFF;stroke:#263238;stroke-linecap:round;stroke-linejoin:round;stroke-miterlimit:10;" width="3.314" height="3.315"/>
		
			<rect x="105.186" y="137.68" style="fill:#FFFFFF;stroke:#263238;stroke-linecap:round;stroke-linejoin:round;stroke-miterlimit:10;" width="3.315" height="3.315"/>
	</g>
</g>
<g id="Character">
	<g>
		<g>
			<polygon style="fill:#263238;" points="298.85,319.766 290.043,312.452 291.078,323.853 293.889,319.822 			"/>
		</g>
		<g>
			<polygon style="fill:#FFFFFF;stroke:#263238;stroke-linecap:round;stroke-linejoin:round;stroke-miterlimit:10;" points="
				202.391,190.853 209.586,201.972 216.781,194.777 211.875,184.312 213.838,176.79 203.7,172.866 			"/>
			<g>
				<path style="fill:#FFFFFF;stroke:#263238;stroke-linecap:round;stroke-linejoin:round;stroke-miterlimit:10;" d="
					M187.534,173.076l0.327,6.868l-2.836,5.879c-0.343,0.712,0.092,1.554,0.87,1.686l3.601,0.611c0,0,4.252,11.773,5.56,12.1
					c1.308,0.327,14.39-5.887,14.717-8.176c0.327-2.289,0.981-6.541,0.981-6.541s3.27-0.981,3.27-4.578
					c0-3.597-6.214-4.579-6.214-4.579L187.534,173.076z"/>
				<path style="fill:#263238;" d="M191.582,180.001c0,0.976-0.356,1.766-0.795,1.766c-0.439,0-0.795-0.791-0.795-1.766
					c0-0.976,0.356-1.767,0.795-1.767C191.227,178.235,191.582,179.025,191.582,180.001z"/>
				<path style="fill:none;stroke:#263238;stroke-linecap:round;stroke-linejoin:round;stroke-miterlimit:10;" d="M189.109,176.821
					c0,0,1.59-2.473,4.063-0.353"/>
				<path style="fill:none;stroke:#263238;stroke-linecap:round;stroke-linejoin:round;stroke-miterlimit:10;" d="M191.582,189.54
					c0,0,3.18,0.53,4.416-2.826"/>
			</g>
			<path style="fill:#C6FF00;stroke:#263238;stroke-linecap:round;stroke-linejoin:round;stroke-miterlimit:10;" d="
				M187.534,173.076l33.358,5.56c0,0,0.654-11.773-3.27-17.987c-3.924-6.214-16.352-5.232-22.893-2.616
				C188.188,160.648,187.534,173.076,187.534,173.076z"/>
			<path style="fill:#263238;stroke:#263238;stroke-linecap:round;stroke-linejoin:round;stroke-miterlimit:10;" d="
				M201.597,175.692c0,0,0,4.906,1.962,4.578c1.962-0.327,4.251-3.924,4.251-3.924L201.597,175.692z"/>
			<path style="fill:#C6FF00;stroke:#263238;stroke-linecap:round;stroke-linejoin:round;stroke-miterlimit:10;" d="
				M205.858,176.353c0,0,10.792,11.773,15.371,12.1c4.579,0.327,11.119-1.308,9.484-3.27c-1.635-1.962-9.982-7.125-9.982-7.125
				L205.858,176.353z"/>
			<path style="fill:none;stroke:#263238;stroke-linecap:round;stroke-linejoin:round;stroke-miterlimit:10;" d="M235.835,288.658
				c10.753,15.984,25.457,37.708,26.077,37.915c0.981,0.327,58.867-27.798,58.867-27.798s13.081,28.125,14.717,27.798
				c1.635-0.327-2.289-35.974-3.924-36.301c-1.635-0.327-65.734,20.93-65.734,20.93l-12.427-40.879l-0.084-0.214
				c1.713-4.955,1.719-9.27,1.719-9.27l-37.282,8.83l0.327,7.522c0,0-25.509,34.993-25.509,36.628
				c0,1.635,5.233,54.288,5.233,54.288s-25.182,15.698-23.874,16.352c1.308,0.654,35.647,0,35.647,0l-1.962-17.987l-2.289-51.345
				C205.335,315.126,222.201,300.949,235.835,288.658"/>
			
				<rect x="190.872" y="312.124" style="fill:#FFFFFF;stroke:#263238;stroke-linecap:round;stroke-linejoin:round;stroke-miterlimit:10;" width="3.314" height="3.315"/>
			
				<rect x="203.677" y="313.469" style="fill:#FFFFFF;stroke:#263238;stroke-linecap:round;stroke-linejoin:round;stroke-miterlimit:10;" width="3.315" height="3.315"/>
			
				<rect x="196.156" y="366.449" style="fill:#FFFFFF;stroke:#263238;stroke-linecap:round;stroke-linejoin:round;stroke-miterlimit:10;" width="3.314" height="3.315"/>
			
				<rect x="172.282" y="382.801" style="fill:#FFFFFF;stroke:#263238;stroke-linecap:round;stroke-linejoin:round;stroke-miterlimit:10;" width="3.314" height="3.315"/>
			
				<rect x="205.967" y="364.814" style="fill:#FFFFFF;stroke:#263238;stroke-linecap:round;stroke-linejoin:round;stroke-miterlimit:10;" width="3.314" height="3.315"/>
			
				<rect x="260.255" y="324.915" style="fill:#FFFFFF;stroke:#263238;stroke-linecap:round;stroke-linejoin:round;stroke-miterlimit:10;" width="3.315" height="3.315"/>
			
				<rect x="234.178" y="287.001" style="fill:#FFFFFF;stroke:#263238;stroke-linecap:round;stroke-linejoin:round;stroke-miterlimit:10;" width="3.314" height="3.315"/>
			
				<rect x="264.179" y="309.545" style="fill:#FFFFFF;stroke:#263238;stroke-linecap:round;stroke-linejoin:round;stroke-miterlimit:10;" width="3.314" height="3.315"/>
			
				<rect x="319.121" y="297.117" style="fill:#FFFFFF;stroke:#263238;stroke-linecap:round;stroke-linejoin:round;stroke-miterlimit:10;" width="3.314" height="3.315"/>
			
				<rect x="333.32" y="325.167" style="fill:#FFFFFF;stroke:#263238;stroke-linecap:round;stroke-linejoin:round;stroke-miterlimit:10;" width="3.315" height="3.315"/>
			
				<rect x="329.969" y="288.379" style="fill:#FFFFFF;stroke:#263238;stroke-linecap:round;stroke-linejoin:round;stroke-miterlimit:10;" width="3.315" height="3.315"/>
			
				<rect x="207.444" y="382.332" style="fill:#FFFFFF;stroke:#263238;stroke-linecap:round;stroke-linejoin:round;stroke-miterlimit:10;" width="3.314" height="3.315"/>
			<path style="fill:#FFFFFF;stroke:#263238;stroke-linecap:round;stroke-linejoin:round;stroke-miterlimit:10;" d="
				M284.477,245.468l-15.698-42.842l-13-3.685l-3.855,9.316l8.679,2.218l16.025,36.628c0,0-1.308,3.597-0.981,5.232
				c0.327,1.635,3.271,8.503,5.233,9.484c1.962,0.981,2.943-0.654,2.943-0.654s6.868-2.616,7.522-4.251
				c0.654-1.635-1.635-4.578-1.962-6.868C289.056,247.757,284.477,245.468,284.477,245.468z"/>
			<g>
				<path style="fill:#263238;stroke:#263238;stroke-miterlimit:10;" d="M272.281,390.658H146.629l-15.745-9.585
					c-1.382-0.841-1.82-2.643-0.979-4.025c0.841-1.38,2.643-1.819,4.024-0.978l14.342,8.731h121.585l5.03-5.03
					c1.144-1.144,2.997-1.144,4.141,0c1.144,1.144,1.144,2.997,0,4.141L272.281,390.658z"/>
			</g>
			<g>
				<path style="fill:#263238;stroke:#263238;stroke-linecap:round;stroke-linejoin:round;stroke-miterlimit:10;" d="
					M164.199,397.468c0-3.251-2.636-5.887-5.887-5.887s-5.887,2.636-5.887,5.887c0,3.251,2.635,5.887,5.887,5.887
					S164.199,400.72,164.199,397.468z"/>
				
					<circle style="fill:#FFFFFF;stroke:#263238;stroke-linecap:round;stroke-linejoin:round;stroke-miterlimit:10;" cx="158.313" cy="397.468" r="2.801"/>
			</g>
			<g>
				<path style="fill:#263238;stroke:#263238;stroke-linecap:round;stroke-linejoin:round;stroke-miterlimit:10;" d="
					M254.134,397.468c0-3.251-2.635-5.887-5.887-5.887s-5.887,2.636-5.887,5.887c0,3.251,2.636,5.887,5.887,5.887
					S254.134,400.72,254.134,397.468z"/>
				<path style="fill:#FFFFFF;stroke:#263238;stroke-linecap:round;stroke-linejoin:round;stroke-miterlimit:10;" d="
					M251.049,397.468c0-1.547-1.254-2.801-2.801-2.801c-1.547,0-2.801,1.254-2.801,2.801c0,1.547,1.254,2.801,2.801,2.801
					C249.795,400.269,251.049,399.015,251.049,397.468z"/>
			</g>
			<path style="fill:#FFFFFF;stroke:#263238;stroke-linecap:round;stroke-linejoin:round;stroke-miterlimit:10;" d="M185.75,220.266
				l-6.906,5.252l-37.429-5.162l-4.53-6.947l-7.246,0.701l-0.234,1.402c0,0-4.675,0-5.142,0.935c-0.467,0.935,0,4.207,0,4.207
				l1.87,0.467c0,0-0.234,4.207,0.935,5.142c1.169,0.935,11.701,1.021,11.701,1.021l44.653,10.66l9.842-8.237L185.75,220.266z"/>
			<path style="fill:#FFFFFF;stroke:#263238;stroke-linecap:round;stroke-linejoin:round;stroke-miterlimit:10;" d="
				M279.234,258.755l6.924-2.036c0.607-0.178,1.023-0.735,1.023-1.368l0,0c0-0.724-0.543-1.333-1.262-1.416l-4.815-0.556"/>
			
				<line style="fill:#FFFFFF;stroke:#263238;stroke-linecap:round;stroke-linejoin:round;stroke-miterlimit:10;" x1="284.377" y1="254.08" x2="282.974" y2="249.639"/>
			
				<line style="fill:#FFFFFF;stroke:#263238;stroke-linecap:round;stroke-linejoin:round;stroke-miterlimit:10;" x1="287.182" y1="254.08" x2="289.986" y2="252.911"/>
		</g>
		<path style="fill:#263238;stroke:#263238;stroke-miterlimit:10;" d="M252.343,215.406l9.042-15.178c0,0-23.574-7.428-32.939-8.719
			c-9.365-1.292-11.949,1.615-11.949,1.615l-15.741,15.39l-20.751,15.612l10.011,15.824L204.799,228l12.317,52.312
			c0,0,17.14-0.402,25.884-4.046c9.3-3.875,18.381-11.752,18.381-11.752l-28.789-60.96L252.343,215.406z"/>
	</g>
</g>
<g id="Window">
	<g>
		<g>
			<g>
				<g>
					<path style="fill:#263238;stroke:#263238;stroke-linecap:round;stroke-linejoin:round;stroke-miterlimit:10;" d="M96.923,97
						v324.644h309.93V97H96.923z M403.423,411.356H100.352V110.717h303.071V411.356z"/>
					<path style="opacity:0.2;fill:#FFFFFF;" d="M96.923,97v324.644h309.93V97H96.923z M403.423,411.356H100.352V110.717h303.071
						V411.356z"/>
					
						<rect x="100.352" y="110.717" style="fill:none;stroke:#263238;stroke-linecap:round;stroke-linejoin:round;stroke-miterlimit:10;" width="303.071" height="300.639"/>
				</g>
				<path style="fill:#C6FF00;" d="M108.141,98.657h-6.412v9.009h7.723v-7.771L108.141,98.657z M108.955,107.086h-6.728v-7.849
					h5.586l1.142,1.079V107.086z"/>
			</g>
			<g>
				<line style="fill:none;stroke:#C6FF00;stroke-miterlimit:10;" x1="397.548" y1="100.623" x2="392.647" y2="104.87"/>
				<line style="fill:none;stroke:#C6FF00;stroke-miterlimit:10;" x1="392.647" y1="100.623" x2="397.548" y2="104.87"/>
				<polyline style="fill:none;stroke:#C6FF00;stroke-width:0.5;stroke-miterlimit:10;" points="404.083,98.009 404.083,107.811 
					359.645,107.811 359.645,98.009 				"/>
				
					<line style="fill:none;stroke:#C6FF00;stroke-width:0.5;stroke-miterlimit:10;" x1="386.438" y1="107.811" x2="386.438" y2="98.335"/>
				
					<line style="fill:none;stroke:#C6FF00;stroke-width:0.5;stroke-miterlimit:10;" x1="372.388" y1="107.811" x2="372.388" y2="98.335"/>
				<rect x="376.636" y="100.459" style="fill:none;stroke:#C6FF00;stroke-miterlimit:10;" width="5.555" height="3.921"/>
				<line style="fill:none;stroke:#C6FF00;stroke-miterlimit:10;" x1="367.16" y1="104.217" x2="362.259" y2="104.217"/>
			</g>
			<rect x="392.373" y="110.636" style="fill:#263238;" width="11.05" height="300.72"/>
			<path style="opacity:0.2;fill:#FFFFFF;" d="M399.39,282.345h-2.511c-2.079,0-3.764-1.685-3.764-3.764v-10.16
				c0-2.079,1.685-3.764,3.764-3.764h2.511c2.079,0,3.764,1.685,3.764,3.764v10.16C403.154,280.66,401.469,282.345,399.39,282.345z"
				/>
		</g>
	</g>
</g>
<g id="Tool_Bars">
	<g>
		<rect x="67.246" y="210.909" style="fill:#263238;" width="37.329" height="131.156"/>
		<rect x="67.246" y="210.909" style="opacity:0.2;fill:#FFFFFF;" width="37.329" height="131.156"/>
		<path style="fill:#263238;" d="M82.668,242.94H73.07c-1.197,0-2.167-0.97-2.167-2.167v-9.946c0-1.197,0.97-2.167,2.167-2.167
			h9.598c1.197,0,2.167,0.97,2.167,2.167v9.946C84.834,241.97,83.864,242.94,82.668,242.94z"/>
		<rect x="67.246" y="210.909" style="fill:#263238;" width="37.329" height="6.628"/>
		<g>
			
				<line style="fill:none;stroke:#263238;stroke-linecap:round;stroke-linejoin:round;stroke-miterlimit:10;" x1="79.597" y1="218.623" x2="79.597" y2="221.5"/>
			
				<line style="fill:none;stroke:#263238;stroke-linecap:round;stroke-linejoin:round;stroke-miterlimit:10;" x1="81.035" y1="218.623" x2="81.035" y2="221.5"/>
			
				<line style="fill:none;stroke:#263238;stroke-linecap:round;stroke-linejoin:round;stroke-miterlimit:10;" x1="82.473" y1="218.623" x2="82.473" y2="221.5"/>
			
				<line style="fill:none;stroke:#263238;stroke-linecap:round;stroke-linejoin:round;stroke-miterlimit:10;" x1="83.912" y1="218.623" x2="83.912" y2="221.5"/>
			
				<line style="fill:none;stroke:#263238;stroke-linecap:round;stroke-linejoin:round;stroke-miterlimit:10;" x1="85.35" y1="218.623" x2="85.35" y2="221.5"/>
			
				<line style="fill:none;stroke:#263238;stroke-linecap:round;stroke-linejoin:round;stroke-miterlimit:10;" x1="86.789" y1="218.623" x2="86.789" y2="221.5"/>
			
				<line style="fill:none;stroke:#263238;stroke-linecap:round;stroke-linejoin:round;stroke-miterlimit:10;" x1="88.227" y1="218.623" x2="88.227" y2="221.5"/>
			
				<line style="fill:none;stroke:#263238;stroke-linecap:round;stroke-linejoin:round;stroke-miterlimit:10;" x1="89.665" y1="218.623" x2="89.665" y2="221.5"/>
			
				<line style="fill:none;stroke:#263238;stroke-linecap:round;stroke-linejoin:round;stroke-miterlimit:10;" x1="91.104" y1="218.623" x2="91.104" y2="221.5"/>
			
				<line style="fill:none;stroke:#263238;stroke-linecap:round;stroke-linejoin:round;stroke-miterlimit:10;" x1="92.542" y1="218.623" x2="92.542" y2="221.5"/>
		</g>
		<g>
			<path style="fill:#FFFFFF;" d="M81.886,236.703l-6.901-5.731c-0.162-0.135-0.391-0.159-0.577-0.06
				c-0.187,0.098-0.296,0.299-0.277,0.51l0.812,8.934c0.02,0.219,0.174,0.402,0.387,0.458c0.044,0.012,0.09,0.017,0.134,0.017
				c0.168,0,0.329-0.081,0.429-0.224l2.048-2.938l3.619-0.041c0.219-0.003,0.413-0.141,0.486-0.348
				C82.118,237.073,82.055,236.843,81.886,236.703z"/>
			<g>
				<polygon style="fill:#263238;" points="81.553,237.105 74.651,231.374 75.463,240.308 77.665,237.15 				"/>
			</g>
		</g>
		<polygon style="fill:#FFFFFF;" points="98.445,237.105 91.543,231.374 92.355,240.308 94.557,237.15 		"/>
		<polygon style="fill:#FFFFFF;" points="101.182,242.187 101.052,240.347 99.412,241.894 		"/>
		<polygon style="fill:#FFFFFF;" points="101.182,300.802 101.052,298.962 99.412,300.509 		"/>
		<polygon style="fill:#FFFFFF;" points="101.182,318.79 101.052,316.95 99.412,318.497 		"/>
		<polygon style="fill:#FFFFFF;" points="101.182,337.238 101.052,335.398 99.412,336.945 		"/>
		<polygon style="fill:#FFFFFF;" points="84.007,280.032 83.877,278.192 82.238,279.739 		"/>
		<polygon style="fill:#FFFFFF;" points="84.007,300.802 83.877,298.962 82.238,300.509 		"/>
		<polygon style="fill:#FFFFFF;" points="84.007,318.79 83.877,316.95 82.238,318.497 		"/>
		<polygon style="fill:#FFFFFF;" points="84.007,337.238 83.877,335.398 82.238,336.945 		"/>
		<g>
			
				<rect x="76.136" y="252.002" transform="matrix(0.7615 0.6482 -0.6482 0.7615 185.5353 11.6641)" style="fill:#FFFFFF;" width="1.567" height="11.842"/>
			<path style="fill:#FFFFFF;" d="M77.711,253.098c-1.619-1.786-1.648-2.141-0.334-4.163c-1.786,1.619-2.141,1.648-4.163,0.334
				c1.619,1.786,1.648,2.141,0.334,4.163C75.334,251.813,75.689,251.785,77.711,253.098z"/>
			<path style="fill:#FFFFFF;" d="M84.889,254.068c-1-1.104-1.018-1.323-0.207-2.573c-1.104,1-1.323,1.018-2.573,0.207
				c1,1.104,1.018,1.323,0.206,2.573C83.42,253.274,83.64,253.257,84.889,254.068z"/>
			<path style="fill:#FFFFFF;" d="M82.882,258.306c-0.714-0.788-0.727-0.944-0.147-1.836c-0.788,0.714-0.944,0.727-1.836,0.147
				c0.714,0.788,0.727,0.944,0.147,1.836C81.834,257.739,81.991,257.727,82.882,258.306z"/>
		</g>
		<polygon style="fill:#FFFFFF;" points="90.651,298.275 91.368,298.961 99.044,289.945 98.327,289.259 		"/>
		<g>
			<g>
				<polygon style="fill:#FFFFFF;" points="101.443,259.598 95.353,254.541 96.07,262.424 98.013,259.637 				"/>
			</g>
			<g>
				<path style="fill:#FFFFFF;" d="M95.272,260.06c-2.923,0-5.301-1.723-5.301-3.841c0-2.118,2.378-3.841,5.301-3.841
					s5.301,1.723,5.301,3.841C100.574,258.336,98.196,260.06,95.272,260.06z M95.272,252.838c-2.669,0-4.84,1.516-4.84,3.381
					c0,1.864,2.171,3.38,4.84,3.38s4.84-1.516,4.84-3.38C100.113,254.354,97.941,252.838,95.272,252.838z"/>
			</g>
			<g>
				<path style="fill:#FFFFFF;" d="M92.046,259.291c-0.72,0-1.306-0.586-1.306-1.306c0-0.72,0.586-1.306,1.306-1.306
					c0.72,0,1.306,0.586,1.306,1.306C93.352,258.706,92.766,259.291,92.046,259.291z M92.046,257.14
					c-0.466,0-0.845,0.379-0.845,0.845c0,0.466,0.379,0.845,0.845,0.845c0.466,0,0.845-0.379,0.845-0.845
					C92.891,257.519,92.512,257.14,92.046,257.14z"/>
			</g>
			<g>
				<path style="fill:#FFFFFF;" d="M91.662,260.661l-0.155-0.434c0.664-0.237,1.109-0.587,1.322-1.04
					c0.27-0.574,0.077-1.117,0.076-1.122l0.433-0.158c0.011,0.03,0.259,0.731-0.092,1.476
					C92.979,259.951,92.446,260.381,91.662,260.661z"/>
			</g>
		</g>
		<g>
			
				<rect x="75.983" y="271.246" transform="matrix(-0.7071 -0.7071 0.7071 -0.7071 -58.1366 521.074)" style="fill:#FFFFFF;" width="5.734" height="2.662"/>
			<path style="fill:#FFFFFF;" d="M70.947,278.915l0.664,0.664l3.246-3.246c-0.139-0.244-0.107-0.559,0.101-0.767
				c0.25-0.25,0.654-0.25,0.904,0c0.25,0.25,0.25,0.654,0,0.904c-0.208,0.208-0.523,0.24-0.767,0.101l-3.246,3.246l0.617,0.617
				l5.56-1.413l1.42-2.97l-4.003-4.003l-3.035,1.356L70.947,278.915z"/>
		</g>
		
			<line style="fill:none;stroke:#263238;stroke-linecap:round;stroke-linejoin:round;stroke-miterlimit:10;" x1="70.424" y1="266.188" x2="102.553" y2="266.188"/>
		<g>
			
				<rect x="96.848" y="269.711" transform="matrix(0.7071 -0.7071 0.7071 0.7071 -163.9853 149.2594)" style="fill:#FFFFFF;" width="2.662" height="5.734"/>
			<path style="fill:#FFFFFF;" d="M91.738,273.402l-1.461,5.513l0.664,0.664l3.246-3.246c-0.139-0.244-0.107-0.559,0.101-0.767
				c0.25-0.25,0.654-0.25,0.904,0c0.25,0.25,0.25,0.654,0,0.904c-0.208,0.208-0.523,0.24-0.767,0.101l-3.246,3.246l0.617,0.617
				l5.56-1.413l1.421-2.97l-4.003-4.003L91.738,273.402z"/>
			<path style="fill:#FFFFFF;" d="M89.76,275.02c0.196-0.387,0.41-0.809,0.624-1.279c0.431-0.949,0.48-1.792,0.145-2.507
				c-0.531-1.131-1.826-1.495-1.881-1.51c-0.138-0.038-0.283,0.044-0.321,0.184c-0.038,0.139,0.044,0.283,0.183,0.321
				c0.011,0.003,1.116,0.314,1.546,1.228c0.267,0.569,0.218,1.265-0.147,2.069c-0.211,0.464-0.421,0.879-0.614,1.259
				c-1.012,1.997-1.624,3.202,0.954,5.194c0.047,0.037,0.104,0.055,0.159,0.055c0.078,0,0.156-0.035,0.207-0.102
				c0.088-0.114,0.067-0.278-0.047-0.366C88.331,277.837,88.749,277.012,89.76,275.02z"/>
		</g>
		<path style="fill:#FFFFFF;" d="M70.554,288.391v0.522c0,0.183,0.004,1.802,0.127,2.354l1.02-0.228
			c-0.057-0.253-0.086-0.984-0.097-1.603h3.969v8.914h-1.488v1.045h4.021v-1.045h-1.488v-8.914h3.862
			c0,0.565-0.001,1.442-0.002,1.876l1.045,0.003c0.002-0.672,0.002-2.402,0.002-2.402v-0.522H70.554z"/>
		<g>
			<ellipse style="opacity:0.44;fill:#FFFFFF;" cx="76.475" cy="313.119" rx="5.747" ry="4.15"/>
			<ellipse style="fill:none;stroke:#FFFFFF;stroke-miterlimit:10;" cx="76.475" cy="313.119" rx="5.747" ry="4.15"/>
		</g>
		<g>
			<path style="fill:#FFFFFF;" d="M94.008,313.238l6.318-6.848c0.262-0.284,0.687-0.344,1.017-0.145l0,0
				c0.392,0.236,0.511,0.749,0.264,1.134l-4.848,7.567L94.008,313.238z"/>
			<path style="fill:#FFFFFF;" d="M93.172,313.813c1.557-0.197,3.983,1.068,3.35,2.985c-0.159,0.48-0.604,0.807-1.057,1.032
				c-1.37,0.681-2.959,0.712-4.489,0.729c0.462-0.258,0.793-0.737,0.873-1.26c0.082-0.537-0.09-1.08-0.081-1.622
				C91.78,314.907,92.311,313.871,93.172,313.813"/>
		</g>
		<g>
			<path style="fill:#FFFFFF;" d="M79.724,328.844c-0.082-0.956-0.414-1.547-0.671-1.872l-1.813,1.813
				c0.303,0.37,0.693,1.043,0.785,2.121c0.083,0.964,0.227,1.651,0.355,2.09l1.777-1.777
				C79.983,330.706,79.813,329.882,79.724,328.844z"/>
			<path style="fill:#FFFFFF;" d="M77.628,330.939c-0.082-0.956-0.414-1.548-0.671-1.872l-1.813,1.813
				c0.303,0.37,0.693,1.042,0.785,2.121c0.083,0.964,0.227,1.651,0.355,2.09l1.777-1.777
				C77.888,332.801,77.717,331.977,77.628,330.939z"/>
			<path style="fill:#FFFFFF;" d="M80.12,328.81c0.083,0.964,0.227,1.651,0.355,2.09l2.618-2.618l-2.675-2.675l-1.083,1.082
				C79.638,327.06,80.028,327.732,80.12,328.81z"/>
			<path style="fill:#FFFFFF;" d="M75.533,333.035c-0.082-0.956-0.414-1.548-0.67-1.872l-1.517,1.517l-1.127,3.458
				c-0.078,0.24,0.151,0.467,0.391,0.385l3.346-1.145C75.785,334.863,75.62,334.05,75.533,333.035z M73.378,335.344l0.599-1.839
				l1.217,1.217L73.378,335.344z"/>
		</g>
		<path style="fill:#FFFFFF;" d="M90.893,330.476l-1.997,1.997l4.708,4.708l1.997-1.997l0.285,0.285l4.708-4.708l-5.279-5.278
			l-4.708,4.708L90.893,330.476z M93.604,336.04l-3.566-3.566l1.427-1.427l3.567,3.566L93.604,336.04z"/>
		<g>
			<polygon style="fill:#FFFFFF;" points="73.802,212.661 73.802,213.295 72.494,214.397 73.802,215.499 73.802,216.134 
				71.741,214.397 			"/>
			<polygon style="fill:#FFFFFF;" points="71.545,212.661 71.545,213.295 70.236,214.397 71.545,215.499 71.545,216.134 
				69.483,214.397 			"/>
		</g>
	</g>
	<g>
		<rect x="310.748" y="150.892" style="fill:#263238;" width="131.963" height="87.338"/>
		<rect x="355.458" y="154.543" style="opacity:0.1;fill:#FFFFFF;" width="87.253" height="16.793"/>
		<polygon style="opacity:0.2;fill:#FFFFFF;" points="355.458,171.336 355.458,154.543 310.748,154.543 310.748,238.23 
			442.711,238.23 442.711,171.336 		"/>
		<g>
			<g>
				<rect x="319.477" y="186.98" style="fill:#FFFFFF;" width="6.446" height="6.445"/>
			</g>
			<g>
				<rect x="322.7" y="190.202" style="fill:#FFFFFF;" width="6.445" height="6.445"/>
			</g>
		</g>
		<g>
			<g>
				<polygon style="fill:#FFFFFF;" points="342.938,190.202 346.16,190.202 346.16,186.98 339.715,186.98 339.715,193.425 
					342.938,193.425 				"/>
			</g>
			<g>
				<path style="fill:#FFFFFF;" d="M349.657,196.922h-6.993v-6.993h6.993V196.922z M343.211,196.374h5.898v-5.898h-5.898V196.374z"
					/>
			</g>
		</g>
		<g>
			<g>
				<path style="fill:#FFFFFF;" d="M366.945,193.699h-6.993v-6.993h6.993V193.699z M360.5,193.151h5.898v-5.898H360.5V193.151z"/>
			</g>
			<g>
				<path style="fill:#FFFFFF;" d="M370.168,196.922h-6.993v-6.993h6.993V196.922z M363.722,196.374h5.898v-5.898h-5.898V196.374z"
					/>
			</g>
			<g>
				<rect x="363.448" y="190.202" style="fill:#FFFFFF;" width="3.223" height="3.223"/>
			</g>
		</g>
		<g>
			<g>
				<path style="fill:#FFFFFF;" d="M387.3,226.549h-6.628v-6.628h6.628V226.549z M380.854,226.367h6.263v-6.263h-6.263V226.367z"/>
			</g>
			<g>
				<path style="fill:#FFFFFF;" d="M390.705,229.954h-6.993v-6.993h6.993V229.954z M384.259,229.406h5.898v-5.897h-5.898V229.406z"
					/>
			</g>
			<g>
				<rect x="383.986" y="223.235" style="fill:#FFFFFF;" width="3.223" height="3.223"/>
			</g>
		</g>
		<g>
			<g>
				<path style="fill:#FFFFFF;" d="M408.16,226.732h-6.993v-6.993h6.993V226.732z M401.715,226.184h5.898v-5.898h-5.898V226.184z"/>
			</g>
			<g>
				<path style="fill:#FFFFFF;" d="M411.383,229.954h-6.993v-6.993h6.993V229.954z M404.937,229.406h5.898v-5.897h-5.898V229.406z"
					/>
			</g>
		</g>
		<g>
			<g>
				<polygon style="fill:#FFFFFF;" points="428.473,223.235 428.473,226.458 425.25,226.458 425.25,229.681 431.696,229.681 
					431.696,223.235 				"/>
				<path style="fill:#FFFFFF;" d="M431.97,229.954h-6.993v-3.77h3.223v-3.223h3.771V229.954z M425.524,229.406h5.898v-5.897h-2.675
					v3.223h-3.223V229.406z"/>
			</g>
			<g>
				<g>
					<path style="fill:#FFFFFF;" d="M428.747,226.732h-6.993v-6.993h6.993V226.732z M422.302,226.184h5.898v-5.898h-5.898V226.184z"
						/>
				</g>
			</g>
		</g>
		<g>
			<g>
				<polygon style="fill:#FFFFFF;" points="321.952,222.144 325.54,222.144 325.54,219.286 319.094,219.286 319.094,225.732 
					321.952,225.732 				"/>
			</g>
			<g>
				<rect x="322.682" y="222.874" style="fill:#FFFFFF;" width="2.492" height="2.493"/>
			</g>
			<g>
				<polygon style="fill:#FFFFFF;" points="325.904,222.509 325.904,226.097 322.317,226.097 322.317,228.955 328.762,228.955 
					328.762,222.509 				"/>
			</g>
		</g>
		<g>
			<g>
				<polygon style="fill:#FFFFFF;" points="387.046,190.202 387.046,186.98 380.6,186.98 380.6,193.425 383.823,193.425 
					383.823,190.202 				"/>
			</g>
			<g>
				<polygon style="fill:#FFFFFF;" points="387.046,190.202 387.046,193.425 383.823,193.425 383.823,196.648 390.268,196.648 
					390.268,190.202 				"/>
			</g>
		</g>
		<g>
			<g>
				<polygon style="fill:#FFFFFF;" points="342.075,222.018 346.126,222.018 346.126,219.043 339.681,219.043 339.681,225.489 
					342.075,225.489 				"/>
			</g>
			<g>
				<rect x="342.723" y="222.748" style="fill:#FFFFFF;" width="6.626" height="5.963"/>
			</g>
		</g>
		<g>
			<polygon style="fill:#FFFFFF;" points="366.713,222.996 366.713,219.773 360.268,219.773 360.268,226.219 363.034,226.219 
				363.034,223.284 363.764,223.284 363.764,229.441 369.936,229.441 369.936,222.996 			"/>
		</g>
		
			<line style="fill:none;stroke:#FFFFFF;stroke-width:2;stroke-miterlimit:10;" x1="320.046" y1="211.859" x2="346.697" y2="211.859"/>
		
			<line style="fill:none;stroke:#FFFFFF;stroke-width:2;stroke-miterlimit:10;" x1="320.046" y1="163.304" x2="346.697" y2="163.304"/>
		
			<line style="fill:none;stroke:#FFFFFF;stroke-width:2;stroke-miterlimit:10;" x1="320.046" y1="180.645" x2="359.474" y2="180.645"/>
		<g>
			<polygon style="fill:#FFFFFF;" points="418.786,158.559 418.786,159.445 420.615,160.985 418.786,162.526 418.786,163.412 
				421.667,160.985 			"/>
			<polygon style="fill:#FFFFFF;" points="421.941,158.559 421.941,159.445 423.77,160.985 421.941,162.526 421.941,163.412 
				424.822,160.985 			"/>
		</g>
		
			<line style="fill:none;stroke:#FFFFFF;stroke-width:0.5;stroke-miterlimit:10;" x1="428.473" y1="157.098" x2="428.473" y2="165.495"/>
		<g>
			
				<line style="fill:none;stroke:#FFFFFF;stroke-width:0.5;stroke-miterlimit:10;" x1="432.124" y1="159.654" x2="438.695" y2="159.654"/>
			
				<line style="fill:none;stroke:#FFFFFF;stroke-width:0.5;stroke-miterlimit:10;" x1="432.124" y1="161.114" x2="438.695" y2="161.114"/>
			
				<line style="fill:none;stroke:#FFFFFF;stroke-width:0.5;stroke-miterlimit:10;" x1="432.124" y1="162.574" x2="438.695" y2="162.574"/>
			
				<line style="fill:none;stroke:#FFFFFF;stroke-width:0.5;stroke-miterlimit:10;" x1="432.124" y1="164.035" x2="438.695" y2="164.035"/>
		</g>
	</g>
</g>
</svg>
