<?xml version="1.0" encoding="utf-8"?>
<!-- Generator: Adobe Illustrator 27.5.0, SVG Export Plug-In . SVG Version: 6.00 Build 0)  -->
<svg version="1.1" xmlns="http://www.w3.org/2000/svg" xmlns:xlink="http://www.w3.org/1999/xlink" x="0px" y="0px"
	 viewBox="0 0 500 500" style="enable-background:new 0 0 500 500;" xml:space="preserve">
<g id="Floor">
	<ellipse id="Floor_2_" style="fill:#F5F5F5;" cx="250" cy="326.47" rx="243.714" ry="147.157"/>
</g>
<g id="Shadows">
	<path id="Shadow_1_" style="fill:#E0E0E0;" d="M20.199,337.132l216.817,125.179c2.326,1.343,6.098,1.343,8.425,0l114.012-65.825
		c2.326-1.343,2.326-3.521,0-4.864L142.636,266.443c-2.326-1.343-6.098-1.343-8.425,0L20.199,332.268
		C17.873,333.611,17.873,335.789,20.199,337.132z"/>
	<path id="Shadow_20_" style="fill:#E0E0E0;" d="M247.513,206.84c8.718,5.09,8.718,13.343,0,18.433
		c-8.719,5.09-22.854,5.09-31.572,0c-8.718-5.09-8.718-13.343,0.001-18.433C224.66,201.75,238.795,201.75,247.513,206.84z"/>
	<path id="Shadow_21_" style="fill:#E0E0E0;" d="M458.341,274.111l-137.316-79.314c-1.387-0.852-3.656-0.886-5.067-0.075
		l-76.437,44.272c-1.412,0.811-1.413,2.129-0.003,2.943l33.059,19.075l-28.622,19.271c-9.161,6.171-11.132,14.323-4.402,18.209
		c6.73,3.886,22.525,4.157,32.425-0.742l32.771-18.175l13.717,7.915l58.104,33.581c1.41,0.814,3.698,0.818,5.11,0.008l76.615-43.958
		C459.708,276.31,459.728,274.963,458.341,274.111z"/>
</g>
<g id="Character_2">
	<g id="Mobile_1_">
		<g id="Mobile_2_">
			<path style="fill:#27DEBF;" d="M347.632,394.211l-100.798,58.185c-3.271,1.889-7.126,1.929-10.517,0.197L33.385,335.424
				c-3.197-1.846-5.789-5.974-5.79-9.221c-0.001-3.247,2.59-7.375,5.788-9.221l100.425-57.98c3.184-1.838,8.394-1.838,11.577,0
				L347.632,375.77c3.197,1.846,5.789,5.974,5.789,9.221C353.421,388.238,350.829,392.366,347.632,394.211z"/>
			<g>
				<path style="opacity:0.5;" d="M133.807,259.002l-100.424,57.98c-3.197,1.846-5.788,5.974-5.788,9.221
					c0.001,3.247,2.593,7.375,5.79,9.221l202.932,117.171c1.61,0.822,3.324,1.231,5.031,1.247V314.407l-95.963-55.405
					C142.201,257.163,136.991,257.163,133.807,259.002z"/>
				<path style="opacity:0.4;" d="M246.834,452.397l100.798-58.185c3.197-1.846,5.789-5.974,5.789-9.221
					c0-3.247-2.592-7.375-5.789-9.221l-106.284-61.364v139.434C243.236,453.857,245.116,453.389,246.834,452.397z"/>
			</g>
			<path style="fill:#27DEBF;" d="M244.436,442.029c-2.807,1.621-7.401,1.621-10.208,0L33.358,326.058
				c-4.319-2.493-4.319-6.573,0-9.067l100.441-57.99c3.184-1.838,8.394-1.838,11.577,0L347.623,375.77
				c3.184,1.838,3.184,4.846,0,6.684L244.436,442.029z"/>
			<path style="opacity:0.3;" d="M244.436,442.029c-2.807,1.621-7.401,1.621-10.208,0L33.358,326.058
				c-4.319-2.493-4.319-6.573,0-9.067l100.441-57.99c3.184-1.838,8.394-1.838,11.577,0L347.623,375.77
				c3.184,1.838,3.184,4.846,0,6.684L244.436,442.029z"/>
			<path style="fill:#37474F;" d="M234.681,430.352c-3.038,1.754-7.964,1.754-11.002,0L50.837,330.561
				c-3.038-1.754-3.038-4.598,0-6.352l94.487-54.546c3.026-1.747,7.976-1.747,11.002,0l172.842,99.792
				c3.026,1.747,3.025,4.605,0,6.352L234.681,430.352z"/>
			<path style="fill:#263238;" d="M150.49,268.371c-1.88,0.046-3.738,0.467-5.166,1.292l-94.487,54.546
				c-3.038,1.754-3.038,4.598,0,6.352l18.729,10.813l80.924-51.676V268.371z"/>
			<path style="fill:#27DEBF;" d="M156.391,273.793c-3.025-1.747-7.976-1.747-11.002,0l-94.487,54.546
				c-0.6,0.347-1.074,0.737-1.436,1.152c0.354,0.385,0.81,0.746,1.371,1.07l172.842,99.792c3.038,1.754,7.964,1.754,11.002,0
				l94.487-54.546c0.593-0.342,1.066-0.729,1.426-1.14c-0.352-0.389-0.797-0.757-1.362-1.083L156.391,273.793z"/>
			<path style="opacity:0.75;fill:#FFFFFF;" d="M156.391,273.793c-3.025-1.747-7.976-1.747-11.002,0l-94.487,54.546
				c-0.6,0.347-1.074,0.737-1.436,1.152c0.354,0.385,0.81,0.746,1.371,1.07l172.842,99.792c3.038,1.754,7.964,1.754,11.002,0
				l94.487-54.546c0.593-0.342,1.066-0.729,1.426-1.14c-0.352-0.389-0.797-0.757-1.362-1.083L156.391,273.793z"/>
			<g>
				<path style="fill:#37474F;" d="M85.374,298.696l16.746-9.668c0.999-0.577,1.049-1.483,0.112-2.024
					c-0.937-0.541-2.507-0.512-3.506,0.065l-16.746,9.668c-0.999,0.577-1.049,1.483-0.112,2.024
					C82.806,299.302,84.375,299.273,85.374,298.696z"/>
				<g>
					<path style="fill:#37474F;" d="M114.13,282.119c0.937-0.541,0.937-1.418,0-1.96c-0.937-0.541-2.457-0.541-3.394,0
						c-0.937,0.541-0.937,1.418,0,1.96S113.193,282.66,114.13,282.119z"/>
					<path style="fill:#37474F;" d="M120.918,278.195c0.937-0.541,0.937-1.418,0-1.959c-0.937-0.541-2.457-0.541-3.394,0
						c-0.937,0.541-0.937,1.418,0,1.959C118.461,278.736,119.981,278.736,120.918,278.195z"/>
					<path style="fill:#37474F;" d="M66.611,309.55c0.937-0.541,0.937-1.418,0-1.959c-0.937-0.541-2.457-0.541-3.394,0
						c-0.937,0.541-0.937,1.419,0,1.96C64.155,310.091,65.674,310.091,66.611,309.55z"/>
					<path style="fill:#37474F;" d="M73.399,305.626c0.937-0.541,0.937-1.418,0-1.959c-0.937-0.541-2.457-0.541-3.394,0
						c-0.937,0.541-0.937,1.418,0,1.96C70.943,306.167,72.462,306.167,73.399,305.626z"/>
				</g>
			</g>
			<g>
				<path style="fill:#27DEBF;" d="M97.041,365.536c0.999,0.577,1.809,1.922,1.809,3.004c0,0.522-0.19,0.884-0.498,1.055
					c-0.218,0.121-1.04,0.612-1.267,0.738c-0.329,0.183-0.792,0.147-1.305-0.149l-23.534-13.587
					c-0.999-0.577-1.809-1.922-1.809-3.004c0-0.499,0.173-0.851,0.457-1.031c0.224-0.141,1.08-0.635,1.306-0.761
					c0.329-0.184,0.793-0.149,1.308,0.148L97.041,365.536z"/>
				<path style="opacity:0.4;" d="M97.041,365.536c0.999,0.577,1.809,1.922,1.809,3.004c0,0.522-0.19,0.884-0.498,1.055
					c-0.218,0.121-1.04,0.612-1.267,0.738c-0.329,0.183-0.792,0.147-1.305-0.149l-23.534-13.587
					c-0.999-0.577-1.809-1.922-1.809-3.004c0-0.499,0.173-0.851,0.457-1.031c0.224-0.141,1.08-0.635,1.306-0.761
					c0.329-0.184,0.793-0.149,1.308,0.148L97.041,365.536z"/>
				<path style="fill:#27DEBF;" d="M95.779,366.265l-23.534-13.587c-0.999-0.577-1.809-0.167-1.809,0.915
					c0,1.082,0.81,2.427,1.809,3.004l23.534,13.587c0.999,0.577,1.809,0.167,1.809-0.915
					C97.588,368.187,96.778,366.842,95.779,366.265z"/>
				<path style="opacity:0.3;" d="M95.779,366.265l-23.534-13.587c-0.999-0.577-1.809-0.167-1.809,0.915
					c0,1.082,0.81,2.427,1.809,3.004l23.534,13.587c0.999,0.577,1.809,0.167,1.809-0.915
					C97.588,368.187,96.778,366.842,95.779,366.265z"/>
			</g>
			<g>
				<path style="fill:#27DEBF;" d="M65.54,347.349c0.999,0.577,1.809,1.922,1.809,3.004c0,0.522-0.19,0.884-0.499,1.055
					c-0.218,0.12-1.04,0.612-1.267,0.738c-0.329,0.183-0.792,0.147-1.305-0.149l-11.094-6.406c-0.999-0.577-1.809-1.922-1.809-3.004
					c0-0.499,0.173-0.851,0.457-1.031c0.224-0.141,1.08-0.635,1.306-0.761c0.329-0.184,0.793-0.15,1.308,0.148L65.54,347.349z"/>
				<path style="opacity:0.4;" d="M65.54,347.349c0.999,0.577,1.809,1.922,1.809,3.004c0,0.522-0.19,0.884-0.499,1.055
					c-0.218,0.12-1.04,0.612-1.267,0.738c-0.329,0.183-0.792,0.147-1.305-0.149l-11.094-6.406c-0.999-0.577-1.809-1.922-1.809-3.004
					c0-0.499,0.173-0.851,0.457-1.031c0.224-0.141,1.08-0.635,1.306-0.761c0.329-0.184,0.793-0.15,1.308,0.148L65.54,347.349z"/>
				<path style="fill:#27DEBF;" d="M64.278,348.078l-11.094-6.406c-0.999-0.577-1.809-0.167-1.809,0.915
					c0,1.082,0.81,2.427,1.809,3.004l11.094,6.406c0.999,0.577,1.809,0.167,1.809-0.915C66.087,350,65.277,348.655,64.278,348.078z"
					/>
				<path style="opacity:0.3;" d="M64.278,348.078l-11.094-6.406c-0.999-0.577-1.809-0.167-1.809,0.915
					c0,1.082,0.81,2.427,1.809,3.004l11.094,6.406c0.999,0.577,1.809,0.167,1.809-0.915C66.087,350,65.277,348.655,64.278,348.078z"
					/>
			</g>
		</g>
	</g>
	<g id="Keyboard_1_">
		<path id="Shadow_15_" style="opacity:0.15;" d="M154.403,375.619l26.15,15.161c0.786,0.455,2.06,0.456,2.847,0.003l75.058-43.276
			c0.787-0.453,0.787-1.19,0.002-1.645l-26.151-15.162c-0.786-0.455-2.06-0.456-2.847-0.003l-75.058,43.276
			C153.617,374.427,153.617,375.164,154.403,375.619z"/>
		<g id="Keyboard_4_">
			<g id="XMLID_3931_">
				<path id="XMLID_3936_" style="fill:#263238;" d="M255.401,343.628c0-0.292-0.192-0.584-0.578-0.806l-23.395-13.505
					c-0.771-0.445-2.02-0.445-2.79,0.001l-71.387,41.283c-0.385,0.223-0.577,0.514-0.577,0.805c0,0.291,0,2.163,0,2.453
					c-0.001,0.292,0.193,0.584,0.579,0.806l23.383,13.504c0.772,0.443,2.022,0.442,2.792-0.003l71.395-41.217
					c0.384-0.222,0.576-0.512,0.578-0.802C255.403,345.854,255.401,343.919,255.401,343.628z"/>
				<path id="XMLID_3935_" style="fill:#37474F;" d="M180.636,385.653l-23.383-13.442c-0.771-0.444-0.772-1.164-0.002-1.61
					l71.387-41.283c0.77-0.446,2.02-0.446,2.79-0.001l23.395,13.505c0.771,0.445,0.771,1.167,0,1.611l-71.395,41.217
					C182.658,386.095,181.407,386.097,180.636,385.653z"/>
				<path id="XMLID_3933_" style="fill:#263238;" d="M181.942,385.985v2.508c-0.473-0.011-0.945-0.118-1.311-0.322l-23.375-13.504
					c-0.387-0.225-0.58-0.515-0.58-0.806v-2.46c0,0.29,0.194,0.58,0.58,0.806l23.375,13.449
					C180.997,385.862,181.469,385.974,181.942,385.985z"/>
			</g>
			<path id="XMLID_3768_" style="fill:#27DEBF;" d="M229.863,331.448c0.025,0,0.045,0.006,0.05,0.01l2.315,1.336l-3.141,1.814
				l-2.393-1.345l3.138-1.812L229.863,331.448z M233.486,333.541c0.026,0,0.046,0.006,0.051,0.009l2.315,1.337l-2.466,1.424
				l-2.394-1.346l2.464-1.423L233.486,333.541z M225.473,333.981c0.026,0,0.045,0.006,0.051,0.009l2.316,1.337l-2.466,1.424
				l-2.394-1.346l2.463-1.422L225.473,333.981z M237.111,335.634c0.027,0,0.047,0.006,0.053,0.009l2.314,1.336l-3.986,2.301
				l-2.395-1.345l3.983-2.3L237.111,335.634z M229.772,335.685c0.026,0,0.046,0.006,0.051,0.009l2.316,1.337l-1.96,1.132
				l-2.395-1.346l1.958-1.13L229.772,335.685z M221.76,336.125c0.026,0,0.046,0.006,0.051,0.01l2.315,1.336l-2.466,1.425
				l-2.393-1.346l2.463-1.422L221.76,336.125z M226.564,337.535c0.027,0,0.048,0.007,0.054,0.01l2.314,1.337l-1.961,1.131
				l-2.393-1.345l1.957-1.13L226.564,337.535z M240.735,337.726c0.027,0,0.047,0.006,0.053,0.01l2.314,1.337l-3.142,1.814
				l-2.394-1.346l3.139-1.812L240.735,337.726z M218.046,338.27c0.026,0,0.046,0.006,0.051,0.009l2.315,1.337l-17.826,10.292
				l-2.394-1.347l17.823-10.289L218.046,338.27z M231.878,338.655c0.027,0,0.047,0.006,0.054,0.009l2.314,1.336l-1.96,1.131
				l-2.394-1.345l1.956-1.13L231.878,338.655z M223.358,339.388c0.027,0,0.047,0.006,0.053,0.009l2.314,1.337l-1.961,1.131
				l-2.393-1.345l1.956-1.13L223.358,339.388z M244.359,339.819c0.027,0,0.047,0.006,0.054,0.009l2.315,1.336l-1.961,1.131
				l-2.395-1.345l1.957-1.13L244.359,339.819z M236.347,340.26c0.026,0,0.046,0.006,0.052,0.009l2.316,1.337l-1.961,1.132
				l-2.394-1.346l1.958-1.13L236.347,340.26z M228.671,340.506c0.027,0,0.047,0.006,0.053,0.009l2.314,1.337l-1.96,1.131
				l-2.395-1.346l1.957-1.129L228.671,340.506z M220.151,341.24c0.027,0,0.047,0.006,0.054,0.009l2.314,1.337l-1.961,1.131
				l-2.394-1.346l1.958-1.129L220.151,341.24z M241.152,341.671c0.027,0,0.047,0.006,0.054,0.009l2.314,1.337l-1.96,1.131
				l-2.394-1.345l1.957-1.13L241.152,341.671z M233.14,342.112c0.026,0,0.046,0.006,0.051,0.009l2.315,1.336l-1.96,1.132
				l-2.394-1.346l1.958-1.13L233.14,342.112z M225.463,342.357c0.026,0,0.046,0.007,0.052,0.01l2.316,1.336l-1.96,1.131
				l-2.395-1.346l1.958-1.129L225.463,342.357z M248.758,342.359c0.027,0,0.047,0.006,0.053,0.01l2.316,1.336l-2.467,1.424
				l-2.394-1.346l2.464-1.421L248.758,342.359z M216.944,343.091c0.027,0,0.047,0.006,0.053,0.009l2.314,1.336l-1.961,1.131
				l-2.393-1.345l1.956-1.13L216.944,343.091z M237.945,343.522c0.028,0,0.047,0.006,0.054,0.009l2.314,1.337l-1.96,1.131
				l-2.394-1.345l1.956-1.13L237.945,343.522z M229.932,343.963c0.027,0,0.047,0.006,0.053,0.009l2.316,1.336l-1.961,1.132
				l-2.394-1.346l1.958-1.13L229.932,343.963z M222.257,344.21c0.026,0,0.046,0.006,0.051,0.009l2.316,1.337l-1.961,1.131
				l-2.394-1.346l1.957-1.129L222.257,344.21z M213.737,344.943c0.027,0,0.047,0.007,0.054,0.009l2.314,1.336l-1.96,1.131
				l-2.393-1.345l1.956-1.13L213.737,344.943z M243.65,345.308c0.026,0,0.046,0.006,0.051,0.01l2.316,1.338l-1.961,1.131
				l-2.394-1.346l1.958-1.13L243.65,345.308z M234.738,345.373c0.027,0,0.048,0.007,0.054,0.011l2.314,1.336l-1.96,1.131
				l-2.395-1.346l1.958-1.129L234.738,345.373z M226.725,345.815c0.027,0,0.047,0.006,0.052,0.009l2.316,1.336l-1.961,1.132
				l-2.394-1.346l1.957-1.13L226.725,345.815z M219.049,346.06c0.027,0,0.048,0.007,0.054,0.01l2.314,1.337l-1.961,1.131
				l-2.394-1.346l1.958-1.129L219.049,346.06z M210.529,346.793c0.026,0,0.046,0.007,0.052,0.01l2.316,1.337l-1.961,1.131
				l-2.394-1.346l1.958-1.129L210.529,346.793z M240.442,347.16c0.028,0,0.048,0.006,0.055,0.009l2.313,1.336l-1.96,1.132
				l-2.394-1.346l1.957-1.13L240.442,347.16z M231.533,347.224c0.026,0,0.045,0.006,0.051,0.01l2.316,1.337l-1.961,1.131
				l-2.394-1.346l1.958-1.129L231.533,347.224z M223.518,347.666c0.027,0,0.047,0.006,0.053,0.009l2.315,1.337l-1.96,1.132
				l-2.394-1.346l1.957-1.13L223.518,347.666z M215.843,347.912c0.026,0,0.046,0.006,0.052,0.01l2.316,1.337l-1.961,1.131
				l-2.394-1.346l1.958-1.129L215.843,347.912z M207.323,348.646c0.026,0,0.046,0.006,0.051,0.009l2.316,1.337l-1.961,1.131
				l-2.393-1.345l1.956-1.13L207.323,348.646z M237.236,349.011c0.027,0,0.047,0.006,0.053,0.009l2.313,1.336l-1.96,1.132
				l-2.394-1.346l1.958-1.13L237.236,349.011z M228.324,349.077c0.027,0,0.047,0.006,0.054,0.009l2.314,1.337l-1.961,1.131
				l-2.394-1.346l1.958-1.129L228.324,349.077z M198.972,349.282c0.027,0,0.047,0.006,0.053,0.009l2.316,1.337l-2.467,1.424
				l-2.395-1.346l2.463-1.422L198.972,349.282z M220.311,349.518c0.027,0,0.047,0.006,0.052,0.009l2.316,1.337l-1.961,1.132
				l-2.394-1.346l1.958-1.13L220.311,349.518z M212.637,349.763c0.026,0,0.045,0.006,0.05,0.009l2.316,1.337l-1.961,1.131
				l-2.394-1.346l1.958-1.129L212.637,349.763z M204.117,350.498c0.027,0,0.047,0.006,0.053,0.01l2.314,1.336l-1.961,1.131
				l-2.394-1.346l1.957-1.129L204.117,350.498z M234.029,350.863c0.026,0,0.046,0.006,0.051,0.009l2.315,1.337l-1.96,1.132
				l-2.394-1.346l1.958-1.13L234.029,350.863z M225.117,350.928c0.027,0,0.048,0.007,0.054,0.01l2.314,1.337l-1.961,1.131
				l-2.394-1.346l1.958-1.129L225.117,350.928z M217.104,351.369c0.027,0,0.047,0.006,0.053,0.01l2.316,1.336l-1.96,1.132
				l-2.394-1.346l1.958-1.13L217.104,351.369z M195.258,351.425c0.027,0,0.048,0.007,0.054,0.01l2.314,1.337l-2.466,1.424
				l-2.395-1.345l2.464-1.423L195.258,351.425z M209.428,351.615c0.027,0,0.048,0.008,0.055,0.011l2.314,1.337l-1.961,1.131
				l-2.394-1.346l1.957-1.129L209.428,351.615z M200.908,352.348c0.027,0,0.049,0.007,0.055,0.01l2.314,1.337l-1.961,1.131
				l-2.393-1.345l1.956-1.13L200.908,352.348z M221.911,352.779c0.026,0,0.046,0.006,0.051,0.009l2.316,1.338l-1.96,1.131
				l-2.395-1.346l1.957-1.129L221.911,352.779z M213.898,353.221c0.026,0,0.046,0.006,0.051,0.009l2.316,1.337l-1.961,1.131
				l-2.393-1.345l1.956-1.13L213.898,353.221z M206.222,353.466c0.026,0,0.046,0.006,0.052,0.01l2.316,1.337l-1.961,1.131
				l-2.394-1.346l1.958-1.129L206.222,353.466z M229.427,353.52c0.026,0,0.046,0.006,0.052,0.009l2.316,1.336l-1.961,1.132
				l-2.394-1.346l1.958-1.13L229.427,353.52z M191.545,353.569c0.027,0,0.047,0.006,0.054,0.009l2.314,1.337l-2.466,1.424
				l-2.394-1.346l2.463-1.423L191.545,353.569z M197.704,354.2c0.026,0,0.045,0.006,0.05,0.009l2.316,1.338l-1.961,1.131
				l-2.394-1.346l1.958-1.129L197.704,354.2z M218.704,354.631c0.029,0,0.05,0.008,0.055,0.01l2.312,1.336l-1.959,1.132
				l-2.395-1.346l1.958-1.129L218.704,354.631z M210.691,355.073c0.026,0,0.046,0.006,0.051,0.009l2.316,1.336l-1.961,1.132
				l-2.394-1.346l1.958-1.13L210.691,355.073z M203.015,355.318c0.026,0,0.046,0.006,0.051,0.009l2.316,1.338l-1.961,1.131
				l-2.394-1.346l1.958-1.129L203.015,355.318z M226.22,355.372c0.026,0,0.046,0.006,0.051,0.009l2.315,1.336l-1.96,1.132
				l-2.394-1.346l1.958-1.13L226.22,355.372z M187.832,355.714c0.027,0,0.047,0.006,0.052,0.009l2.317,1.336l-3.142,1.814
				l-2.394-1.346l3.138-1.812L187.832,355.714z M194.495,356.051c0.026,0,0.046,0.007,0.052,0.01l2.316,1.337l-6.18,3.568
				l-2.394-1.346l6.177-3.566L194.495,356.051z M215.497,356.483c0.026,0,0.046,0.006,0.053,0.009l2.314,1.338l-1.961,1.131
				l-2.394-1.346l1.958-1.129L215.497,356.483z M207.483,356.924c0.027,0,0.047,0.006,0.053,0.009l2.315,1.337l-1.96,1.132
				l-2.394-1.346l1.957-1.13L207.483,356.924z M199.809,357.17c0.025,0,0.045,0.006,0.051,0.009l2.316,1.338l-1.961,1.131
				l-2.394-1.346l1.957-1.129L199.809,357.17z M223.012,357.223c0.027,0,0.047,0.006,0.053,0.009l2.316,1.337l-1.96,1.132
				l-2.394-1.346l1.957-1.13L223.012,357.223z M212.291,358.334c0.026,0,0.046,0.006,0.052,0.009l2.314,1.338l-1.961,1.131
				l-2.394-1.346l1.957-1.129L212.291,358.334z M182.769,358.636c0.025,0,0.044,0.006,0.049,0.01l2.318,1.337l-1.961,1.131
				l-2.394-1.346l1.958-1.129L182.769,358.636z M204.276,358.776c0.027,0,0.047,0.006,0.052,0.009l2.316,1.336l-1.961,1.131
				l-2.393-1.345l1.956-1.13L204.276,358.776z M196.601,359.021c0.025,0,0.044,0.006,0.049,0.009l2.317,1.338l-1.791,1.033
				c-0.125,0.072-0.201,0.194-0.201,0.326c0,0.138,0.077,0.263,0.213,0.342l3.041,1.755l-2.299,1.326l-6.019-3.437l4.659-2.69
				L196.601,359.021z M219.806,359.075c0.026,0,0.046,0.006,0.051,0.009l2.316,1.337l-1.961,1.132l-2.394-1.346l1.958-1.13
				L219.806,359.075z M209.083,360.186c0.026,0,0.046,0.006,0.051,0.009l2.315,1.337l-1.96,1.132l-2.394-1.346l1.957-1.129
				L209.083,360.186z M179.561,360.489c0.027,0,0.047,0.006,0.052,0.009l2.316,1.336l-1.961,1.131l-2.394-1.346l1.957-1.129
				L179.561,360.489z M201.069,360.628c0.027,0,0.047,0.006,0.053,0.009l2.316,1.336l-1.96,1.131l-2.394-1.346l1.956-1.129
				L201.069,360.628z M215.203,361.732c0.027,0,0.047,0.006,0.052,0.009l2.315,1.337l-1.96,1.132l-2.394-1.346l1.957-1.13
				L215.203,361.732z M205.877,362.037c0.026,0,0.046,0.006,0.052,0.009l2.313,1.337l-1.96,1.132l-2.394-1.346l1.958-1.129
				L205.877,362.037z M176.354,362.34c0.027,0,0.048,0.006,0.054,0.01l2.314,1.337l-1.96,1.131l-2.394-1.346l1.958-1.129
				L176.354,362.34z M183.186,362.581c0.027,0,0.047,0.006,0.054,0.009l2.314,1.338l-1.961,1.131l-2.394-1.346l1.958-1.13
				L183.186,362.581z M211.996,363.584c0.027,0,0.047,0.006,0.052,0.009l2.316,1.337l-1.961,1.131l-2.394-1.345l1.956-1.13
				L211.996,363.584z M202.67,363.889c0.026,0,0.046,0.006,0.052,0.01l2.313,1.337l-3.479,2.009l-2.394-1.346l3.476-2.006
				L202.67,363.889z M172.472,364.581c0.026,0,0.046,0.006,0.051,0.009l2.317,1.337l-5.168,2.983l-2.394-1.346l5.165-2.982
				L172.472,364.581z M193.643,364.915c0.027,0,0.047,0.006,0.053,0.009l2.314,1.336l-1.961,1.132l-2.394-1.345l1.958-1.131
				L193.643,364.915z M208.789,365.435c0.027,0,0.047,0.006,0.053,0.009l2.316,1.336l-1.961,1.131l-2.394-1.345l1.957-1.13
				L208.789,365.435z M176.097,366.674c0.027,0,0.047,0.006,0.053,0.009l2.314,1.337l-1.961,1.132l-2.394-1.345l1.958-1.131
				L176.097,366.674z M190.435,366.767c0.028,0,0.047,0.006,0.054,0.009l2.313,1.336l-1.959,1.132l-2.395-1.346l1.957-1.13
				L190.435,366.767z M197.267,367.008c0.026,0,0.047,0.006,0.052,0.009l2.316,1.337l-1.961,1.132l-2.394-1.346l1.956-1.13
				L197.267,367.008z M205.582,367.287c0.027,0,0.047,0.006,0.052,0.009l2.316,1.336l-1.961,1.131l-2.394-1.345l1.957-1.13
				L205.582,367.287z M166.059,368.284c0.027,0,0.047,0.006,0.053,0.01l2.313,1.336l-1.959,1.132l-2.394-1.346l1.958-1.13
				L166.059,368.284z M172.89,368.526c0.027,0,0.047,0.006,0.054,0.009l2.314,1.337l-1.96,1.132l-2.394-1.346l1.956-1.13
				L172.89,368.526z M187.229,368.618c0.027,0,0.047,0.006,0.053,0.009l2.314,1.337l-1.961,1.132l-2.394-1.346l1.958-1.13
				L187.229,368.618z M179.721,368.767c0.027,0,0.047,0.006,0.052,0.01l2.316,1.336l-1.961,1.131l-2.394-1.345l1.956-1.13
				L179.721,368.767z M194.06,368.859c0.027,0,0.047,0.006,0.053,0.009l2.314,1.337l-1.96,1.132l-2.394-1.346l1.957-1.13
				L194.06,368.859z M201.666,369.548c0.027,0,0.047,0.006,0.052,0.009l2.316,1.336l-1.961,1.132l-2.394-1.346l1.957-1.13
				L201.666,369.548z M162.851,370.136c0.027,0,0.047,0.006,0.054,0.009l5.939,3.429l-1.96,1.132l-6.02-3.438l1.959-1.131
				L162.851,370.136z M169.683,370.377c0.027,0,0.047,0.006,0.053,0.01l2.314,1.336l-1.96,1.132l-2.395-1.346l1.958-1.13
				L169.683,370.377z M176.514,370.619c0.027,0,0.047,0.006,0.052,0.009l2.316,1.336l-1.961,1.131l-2.394-1.345l1.957-1.13
				L176.514,370.619z M190.853,370.711c0.027,0,0.047,0.007,0.053,0.009l2.314,1.337l-1.96,1.132l-2.394-1.346l1.956-1.13
				L190.853,370.711z M183.346,370.859c0.026,0,0.045,0.006,0.05,0.01l2.319,1.338l-1.961,1.131l-2.394-1.346l1.956-1.129
				L183.346,370.859z M198.459,371.399c0.027,0,0.047,0.006,0.052,0.009l2.316,1.337l-1.961,1.132l-2.394-1.346l1.956-1.13
				L198.459,371.399z M173.307,372.47c0.027,0,0.047,0.006,0.052,0.009l2.316,1.336l-1.961,1.131l-2.395-1.345l1.958-1.13
				L173.307,372.47z M180.139,372.711c0.026,0,0.045,0.006,0.05,0.009l2.319,1.337l-1.961,1.131l-2.394-1.346l1.957-1.129
				L180.139,372.711z M186.971,372.952c0.026,0,0.046,0.006,0.051,0.009l2.315,1.337l-1.96,1.132l-2.394-1.346l1.957-1.129
				L186.971,372.952z M195.252,373.251c0.027,0,0.047,0.006,0.052,0.01l2.316,1.336l-1.961,1.132l-2.394-1.346l1.957-1.13
				L195.252,373.251z M170.1,374.322c0.027,0,0.047,0.006,0.054,0.009l5.94,3.429l-1.96,1.131l-6.021-3.437l1.959-1.131
				L170.1,374.322z M176.933,374.562c0.025,0,0.044,0.006,0.049,0.009l2.318,1.338l-1.961,1.131l-2.394-1.346l1.958-1.129
				L176.933,374.562z M183.765,374.803c0.025,0,0.044,0.006,0.049,0.009l2.318,1.337l-1.96,1.132l-2.394-1.346l1.958-1.129
				L183.765,374.803z M192.301,376.03c0.027,0,0.047,0.006,0.052,0.01l1.005,0.568l-1.959,1.132l-1.076-0.581l1.948-1.126
				L192.301,376.03z M180.557,376.655c0.026,0,0.046,0.006,0.051,0.009l2.315,1.337l-1.96,1.132l-2.394-1.346l1.958-1.129
				L180.557,376.655z M189.094,377.881c0.027,0,0.047,0.006,0.053,0.009l1.004,0.568l-1.96,1.132l-1.075-0.581l1.948-1.126
				L189.094,377.881z M177.351,378.507c0.026,0,0.046,0.006,0.051,0.01l2.315,1.336l-1.96,1.132l-2.394-1.346l1.956-1.129
				L177.351,378.507z M185.887,379.733c0.027,0,0.047,0.006,0.053,0.009l1.004,0.568l-1.96,1.132l-1.076-0.581l1.948-1.126
				L185.887,379.733z M182.679,381.584c0.027,0,0.048,0.007,0.054,0.01l1.005,0.568l-1.961,1.132l-1.076-0.581l1.949-1.126
				L182.679,381.584z"/>
		</g>
	</g>
	<g id="Character_8_">
		<path id="Shadow_19_" style="opacity:0.1;" d="M95.971,347.285c1.077,2.725,3.413,4.14,6.856,5.689
			c10.103,4.544,34.31,9.992,47.906,12.417c7.909,1.41,15.992,4.016,24.077,4.348c7.23,0.296,14.727-1.039,20.731-5.077
			c0.807-0.543,1.625-1.187,1.94-2.107c0.481-1.404-0.428-2.978-1.692-3.756c-1.263-0.778-2.794-0.954-4.267-1.131
			c-16.08-1.931-31.887-6.121-46.811-12.411c6.711-0.705,13.526-1.435,19.772-3.989c6.246-2.554,11.955-7.226,14.156-13.605
			c0.442-1.283,0.798-2.707,1.86-3.552c1.118-0.889,2.738-0.863,4.083-0.383c4.389,1.567,6.124,6.716,7.431,11.189
			c1.307,4.474,3.454,9.59,7.999,10.621c-1.653-0.967-1.046-3.86,0.739-4.552c1.785-0.692,3.866,0.392,4.929,1.984
			c1.026,1.537,1.335,3.444,2.21,5.071c0.875,1.627,2.772,3.031,4.482,2.332c0.921-0.376,1.525-1.262,1.978-2.148
			c2.424-4.73,1.978-10.554-0.138-15.43c-2.116-4.876-5.733-8.943-9.575-12.616c-5.349-5.113-11.366-9.705-18.294-12.304
			c-14.505-5.441-30.812-1.471-45.181,4.321c-10.832,4.367-21.254,9.75-31.089,16.05c-3.637,2.33-7.281,4.805-10.242,7.981
			c-2.188,2.347-4.495,5.664-4.258,9.036C95.628,346.036,95.744,346.709,95.971,347.285z"/>
		<g id="Character_9_">
			<g id="Arm_6_">
				<path style="fill:#FFA8A7;" d="M218.9,331.715c-2.121-3.288-5.918-10.024-7.11-11.381c-3.249-3.699-9.954-9.549-9.954-9.549
					c-6.314-5.151-25.73-22.293-25.73-22.293s-3.028-38.026-6.355-44.085c-3.884-7.075-11.261-7.364-18.904-7.83
					c0,0-1.953,8.256-2.782,15.017c0,0,6.873,42.612,7.695,46.577c0.821,3.964,2.829,5.703,6.924,8.327
					c6.25,4.005,28.855,16.154,28.855,16.154l1.107,0.773c0.764,0.533,1.34,1.291,1.642,2.172c0.232,0.676,0.465,1.577,0.591,2.7
					c0.357,3.157-0.048,4.047,0.27,7.441c0.318,3.394,1.043,3.335,2.352,6.285c1.21,2.728,1.563,4.435,2.565,4.542
					c1.002,0.106,2.284-2.123,2.284-4.379c0-2.256-1.375-4.727-1.421-5.675c-0.039-0.813,0.45-2.133,2.589-0.871
					c2.242,1.322,4.137,5.091,5.728,7.743c1.591,2.652,2.439,6.152,4.054,8.061c1.615,1.909,2.204-0.212,2.946-1.969
					c0.743-1.757,4.349-4.713,5.304-7.577C222.507,339.034,221.021,335.003,218.9,331.715z"/>
				<path style="fill:#37474F;" d="M150.847,236.338c5.258,0,9.53-0.577,14.164,2.237c4.634,2.814,5.878,6.684,6.927,12.683
					c0.956,5.463,2.877,24.261,2.877,24.261s-13.352,7.37-24.97,2.667L150.847,236.338z"/>
				<g>
					<path style="fill:#27DEBF;" d="M206.746,339.195l0-0.002c-0.009-0.012-0.018-0.027-0.027-0.04
						C206.729,339.167,206.737,339.181,206.746,339.195z"/>
				</g>
			</g>
			<g>
				<path style="fill:#263238;" d="M161.911,210.555c0,0,3.268,1.001,6.335,2.944c3.067,1.943,3.177,5.376,1.938,7.577l-2.415-0.474
					c0,0,1.242-2.829-0.209-4.342c-1.451-1.513-5.687-2.822-5.687-2.822L161.911,210.555z"/>
				<path style="fill:#27DEBF;" d="M169.176,219.511c-1.957-0.951-2.895,0.272-4.278,3.589c-1.383,3.318-0.432,4.23,1.249,4.886
					c1.681,0.655,2.971-0.446,4.005-3.193C171.314,221.704,171.285,220.535,169.176,219.511z"/>
				<path style="opacity:0.1;" d="M169.336,219.541c-1.957-0.951-2.895,0.272-4.278,3.589c-1.383,3.318-0.432,4.23,1.249,4.886
					c1.681,0.655,2.971-0.446,4.005-3.193C171.475,221.734,171.446,220.565,169.336,219.541z"/>
			</g>
			<g>
				<path id="Chest_2_" style="fill:#455A64;" d="M129.148,238.762c-11.038,2.473-22.82,5.986-31.674,9.85
					c0,0-0.714,37.911,5.43,56.034c6.143,18.123,4.362,38.705,4.362,38.705c29.971,4.848,66.395-9.091,65.494-24.214
					c0,0-1.92-4.427-5.063-9.181c0,0-0.749-12.151-0.417-17.553c21.967-20.598-8.551-46.965-16.432-56.065
					C146.053,237,139.012,236.551,129.148,238.762z"/>
				<path style="fill:#37474F;" d="M127.344,183.051c-1.424,2.55-0.836,5.555-0.249,8.255c0.449,2.067,1.672,4.61,1.158,6.701
					c-0.715,2.908-2.674,5.348-4.983,7.183c-0.594,0.472-1.226,0.971-1.893,1.336c-0.569,0.312-1.228,0.452-1.811,0.777
					c-1.234,0.687-2.228,1.771-2.95,2.973c-1.045,1.74-1.585,3.728-2.134,5.682c-0.549,1.954-1.134,3.936-2.251,5.631
					c-2.199,3.336-6.356,5.14-10.345,4.895c-2.198-0.135-4.334-0.851-6.227-1.963c-0.953-0.56-1.846-1.22-2.666-1.962
					c-0.536-0.485-1.329-1.281-1.764-2.338c-0.301,2.637,0.379,5.375,1.878,7.565c-4.098,0.73-8.511-0.611-11.51-3.497
					c-2.999-2.886-4.509-7.245-3.937-11.367c0.356-2.564,1.452-4.966,2.018-7.492c1.523-6.799-4.579-10.52-5.583-16.718
					c-0.624-3.855,1.45-7.997,4.91-9.807c2.085-1.091,4.837-1.644,5.704-3.831c0.666-1.68-0.147-3.557-0.123-5.365
					c0.046-3.577,3.38-6.307,6.788-7.393c3.408-1.086,7.085-1.07,10.516-2.083c3.663-1.082,6.958-3.313,10.718-3.981
					c4.418-0.785,9.142,0.909,12.199,4.16c1.411,1.501,2.181,3.245,3.429,4.796c1.235,1.534,3.168,2.349,4.084,4.17
					c1.207,2.4,1.569,5.392,0.26,7.738C131.288,179.43,128.636,180.737,127.344,183.051z"/>
				<path style="fill:#455A64;" d="M161.17,191.135c-0.423-11.905-7.327-28.883-32.898-26.711
					c-24.917,2.116-32.255,24.342-29.956,36.414c3.175,16.666,15.296,17.735,18.443,28.625L161.17,191.135z"/>
				<g>
					<path style="fill:#FFA8A7;" d="M105.437,200.232c1.681-1.902,3.889-2.711,6.26-2.08c1.306,0.348,2.196,1.044,3.082,2.026
						c1.15,1.275,1.133,2.982,1.945,4.456c0.505,0.915,1.4,1.669,2.441,1.764c3.424,0.312,2.148-5.256,2.335-7.24
						c6.475-2.297,6.299-4.697,7.181-10.416c4.535-4.906,12.416-5.627,19.236-0.937c4.164-8.034,8.673-7.023,10.626-4.526
						c1.06,1.781,2.208,5.411,2.912,9.307c0.934,5.169,1.32,9.456,1.085,14.695c-0.839,19.106-7.143,23.7-10.28,24.991
						c-3.138,1.292-6.963,0.356-12.766-0.731v11.484c5.96,11.456,10.79,28.786,10.559,40.103
						c-9.237-17.481-23.678-26.826-30.509-33.176c-2.807-2.609-4.13-4.767-4.13-4.767v-30.225c0,0-2.52,2.694-6.528-0.488
						C103.537,210.226,101.903,204.232,105.437,200.232z"/>
					<g id="XMLID_444_">
						<path id="XMLID_451_" style="fill:#F28F8F;" d="M139.487,231.538c-4.968-1.297-10.349-3.183-14.033-6.036
							c-2.925-2.266-4.602-5.376-5.427-7.608c0,0,0.43,7.37,4.139,10.688c3.709,3.318,15.328,7.15,15.328,7.15L139.487,231.538z"/>
					</g>
					<g>
						<g id="XMLID_441_">
							<path id="XMLID_443_" style="fill:#263238;" d="M140.265,204.901c0.208,1.503-0.798,2.88-2.245,3.076
								c-1.448,0.195-2.789-0.865-2.996-2.368c-0.207-1.503,0.798-2.88,2.245-3.076
								C138.717,202.338,140.059,203.398,140.265,204.901z"/>
						</g>
						<g id="XMLID_439_">
							<path id="XMLID_440_" style="fill:#263238;" d="M159.054,202.569c0.189,1.366-0.725,2.619-2.041,2.796
								c-1.447,0.196-2.516-0.649-2.723-2.152c-0.189-1.366,0.725-2.618,2.041-2.796
								C157.646,200.238,158.866,201.202,159.054,202.569z"/>
						</g>
						<g id="XMLID_429_">
							<polygon id="XMLID_438_" style="fill:#F28F8F;" points="145.82,199.26 147.704,215.176 155.875,212.06 							"/>
						</g>
						<path id="XMLID_424_" style="fill:#263238;" d="M138.849,196.871l-5.971,2.739c-0.723-1.71,0.027-3.711,1.676-4.467
							C136.203,194.387,138.126,195.16,138.849,196.871z"/>
						<path id="XMLID_332_" style="fill:#B16668;" d="M136.919,217.18l8.608,2.924c-0.899,2.407-3.556,3.705-5.933,2.897
							C137.217,222.194,136.019,219.587,136.919,217.18z"/>
						<path style="fill:#F28F8F;" d="M137.127,219.187c2.258,0.094,3.976,1.855,4.218,4.034c-0.58,0.038-1.174-0.024-1.751-0.22
							c-1.69-0.574-2.74-2.069-2.909-3.744C136.837,219.248,136.971,219.181,137.127,219.187z"/>
						<path id="XMLID_331_" style="fill:#263238;" d="M159.816,197.564l-6.06-2.665c0.679-1.714,2.586-2.507,4.259-1.771
							C159.689,193.863,160.495,195.849,159.816,197.564z"/>
					</g>
				</g>
				<g>
					<path style="fill:#263238;" d="M139.493,235.208c3.855,1.126,15.133,16.383,18.797,21.882l-4.143,10.565
						c0,0,4.367,4.478,6.531,8.427l-8.425,24.547c0,0,0.752-32.712-12.76-57.602V235.208z"/>
					<path style="fill:#37474F;" d="M151.126,281.91c2.977,7.793,3.424,25.852,3.424,25.852s-3.027-16.847-17.169-22.751
						c0.006-0.811,0.15-12.35,0.15-12.35s-18.955-4.819-22.998-6.636l-4.094-21.965c0,0,2.735-6.825,5.042-7.019l0.009,4.744
						c0,0,7.625,5.808,17.932,15.788C143.729,267.553,148.149,274.116,151.126,281.91z"/>
				</g>
			</g>
			<g>
				<path style="fill:#FFA8A7;" d="M200.255,359.573c-3.065-2.575-7.496-6.13-11.043-6.989c-0.457-0.105-1.154-0.362-2.489-0.554
					c1.171-0.333,2.361-0.515,3.49-1.002c1.121-0.483,2.168-1.212,2.834-2.235c0.268-0.411,0.429-1.047,0.025-1.325
					c-0.146-0.101-0.329-0.149-0.506-0.14c-2.594,0.135-4.666-0.099-7.03-0.074c-1.032,0.011-2.197-0.031-3.164,0.319
					c-0.942,0.342-1.88,0.702-2.798,1.107c-4.169,1.839-7.971,3.499-14.164,2.586l-2.581-0.681l-43.381-22.348l-8.224-44.793
					c0,0-1.97-27.787-13.257-34.521c-5.998,2.275-12.568,7.917-14.344,14.039c-2.098,7.232-1.282,17.499,2.295,33.424
					c2.994,13.33,6.132,26.985,9.528,37.154c3.37,10.093,4.69,13.744,11.341,15.731c11.169,3.337,51.472,14.392,51.472,14.392
					s0.963,0.383,2.519,0.824c1.393,0.395,2.696,1.35,6.006,2.074c3.923,0.858,8.705-0.935,12.016-1.387
					c3.31-0.452,9.073,0.62,12.26,1.617c3.188,0.997,6.498-4.059,8.092-3.616C200.745,363.619,203.32,362.147,200.255,359.573z"/>
				<path style="fill:#F28F8F;" d="M185.138,350.318c-2.258-0.043-4.644,1.15-4.644,1.15s2.769-0.17,6.228,0.562
					c1.171-0.333,2.361-0.515,3.49-1.002c0.989-0.427,1.921-1.045,2.584-1.888C191.04,350.557,187.395,350.361,185.138,350.318z"/>
				<path style="fill:#37474F;" d="M97.474,248.611c-7.773,3.316-12.923,7.382-14.991,15.925c-2.069,8.543-0.612,16.059,1.14,25.109
					c1.752,9.05,5.852,23.769,5.852,23.769s16.62,1.007,26.213-5.653l-5.248-34.125c0,0-2.778-20.26-12.473-24.713"/>
			</g>
			<g id="XMLID_453_">
				<path id="XMLID_3448_" style="fill:#27DEBF;" d="M110.843,168.388c-5.841,5.407-11.447,13.084-7.293,30.837
					c-2.507,2.229-3.571,6.065-2.414,10.014c1.606,5.482,6.867,9.088,11.753,8.053c4.885-1.034,7.543-6.317,5.938-11.799
					c-1.201-4.101-5.609-8.071-9.229-7.811c0,0-3.465-7.594-0.213-18.35c4.434-14.664,21.526-15.878,29.051-14.693
					C135.905,161.036,118.56,161.244,110.843,168.388z"/>
				<path id="XMLID_478_" style="opacity:0.4;" d="M110.843,168.388c-5.841,5.407-11.447,13.084-7.293,30.837
					c-2.507,2.229-3.571,6.065-2.414,10.014c1.606,5.482,6.867,9.088,11.753,8.053c4.885-1.034,7.543-6.317,5.938-11.799
					c-1.201-4.101-5.609-8.071-9.229-7.811c0,0-3.465-7.594-0.213-18.35c4.434-14.664,21.526-15.878,29.051-14.693
					C135.905,161.036,118.56,161.244,110.843,168.388z"/>
				<path style="fill:#27DEBF;" d="M119.874,205.229c-1.779-6.075-7.61-10.07-13.023-8.924c-0.85,0.18-1.636,0.479-2.354,0.876
					c-0.608,0.337-2.451,1.605-2.811,1.843c-3.454,2.284-5.047,6.989-3.627,11.839c1.78,6.075,7.61,10.07,13.023,8.924
					c1.029-0.218,1.965-0.609,2.797-1.139c0.438-0.279,2.16-1.427,2.583-1.727C119.767,214.585,121.265,209.977,119.874,205.229z"/>
				<path style="opacity:0.3;" d="M119.874,205.229c-1.779-6.075-7.61-10.07-13.023-8.924c-0.85,0.18-1.636,0.479-2.354,0.876
					c-0.608,0.337-2.451,1.605-2.811,1.843c-3.454,2.284-5.047,6.989-3.627,11.839c1.78,6.075,7.61,10.07,13.023,8.924
					c1.029-0.218,1.965-0.609,2.797-1.139c0.438-0.279,2.16-1.427,2.583-1.727C119.767,214.585,121.265,209.977,119.874,205.229z"/>
				<path id="XMLID_474_" style="fill:#27DEBF;" d="M117.662,206.712c-1.779-6.075-7.61-10.07-13.023-8.924
					c-5.413,1.146-8.359,7-6.58,13.075c1.78,6.075,7.61,10.07,13.023,8.924C116.495,218.64,119.441,212.787,117.662,206.712z"/>
				<path id="XMLID_473_" style="opacity:0.1;" d="M117.662,206.712c-1.779-6.075-7.61-10.07-13.023-8.924
					c-5.413,1.146-8.359,7-6.58,13.075c1.78,6.075,7.61,10.07,13.023,8.924C116.495,218.64,119.441,212.787,117.662,206.712z"/>
				<path id="XMLID_468_" style="fill:#37474F;" d="M112.486,207.808c-0.84-2.867-3.592-4.753-6.146-4.212
					c-2.555,0.541-3.945,3.304-3.105,6.171c0.84,2.867,3.592,4.753,6.147,4.212C111.936,213.438,113.326,210.675,112.486,207.808z"
					/>
			</g>
		</g>
	</g>
	<g id="Monitor_1_">
		<path id="Shadow" style="opacity:0.1;" d="M231.747,422.844l-20.221-11.807c-0.925-0.54-0.923-1.413,0.005-1.948l79.293-45.78
			c0.928-0.536,2.431-0.533,3.357,0.006l20.197,11.752c0.926,0.539,0.925,1.41-0.003,1.947l-79.273,45.838
			C234.174,423.388,232.672,423.385,231.747,422.844z"/>
		<g id="Monitor">
			<g id="XMLID_5610_">
				<g id="XMLID_5630_">
					<path id="XMLID_5631_" style="fill:#263238;" d="M305.542,356.145l5.305-63.02c0.146-1.773-0.907-3.887-2.352-4.721
						c-1.445-0.835-3.866-0.79-5.407,0.1l-79.2,45.726c-1.541,0.89-2.908,3.048-3.055,4.821l-5.305,63.02
						c-0.146,1.773,0.907,3.887,2.352,4.721c1.445,0.834,3.866,0.79,5.407-0.1l79.201-45.726
						C304.028,360.076,305.395,357.918,305.542,356.145z"/>
				</g>
				<g id="XMLID_5628_">
					<path style="fill:#37474F;" d="M310.844,293.125l-5.306,63.015l3.851-62.54c0.145-1.775-0.495-2.445-2.037-1.562
						l-78.235,45.214c-0.757,0.436-1.474,1.183-2.027,2.047l-5.229-3.017c0.543-0.863,1.261-1.61,2.027-2.057l79.196-45.729
						c1.542-0.883,3.967-0.931,5.413-0.097C309.941,289.235,310.989,291.35,310.844,293.125z"/>
				</g>
				<g id="XMLID_5626_">
					<path id="XMLID_5627_" style="fill:#455A64;" d="M220.762,405.092l5.305-63.02c0.146-1.773,1.514-3.931,3.055-4.821
						l78.229-45.209c1.541-0.889,2.185-0.214,2.038,1.559l-3.847,62.543c-0.146,1.773-1.514,3.931-3.055,4.821l-79.201,45.726
						C221.746,407.582,220.615,406.866,220.762,405.092z"/>
				</g>
				<polygon style="fill:#263238;" points="259.666,367.008 259.055,385.985 281.06,373.337 275.698,357.796 				"/>
			</g>
			<g id="XMLID_5601_">
				<g id="XMLID_5608_">
					<polygon id="XMLID_5609_" style="fill:#455A64;" points="262.879,369.103 278.237,360.181 275.62,358.67 260.272,367.596 					
						"/>
				</g>
				<g id="XMLID_5606_">
					<path style="fill:#37474F;" d="M286.641,386.833l-8.4-26.649l-15.366,8.924l-2.6-1.513l1.726,20.519l0.427,5.898l0.252,1.261
						l-1.116-0.64l-4.967-2.862c-0.291-0.165-0.553-0.194-0.747-0.097c-0.01,0-0.01,0-0.019,0.01
						c-0.213,0.107-0.349,0.359-0.349,0.728v0.446c0,0.708,0.466,1.542,1.077,1.901c0.01,0.01,0.019,0.01,0.039,0.029l8.226,4.753
						c0.019,0,0.019,0.01,0.029,0.01c0.281,0.155,0.66,0.242,1.019,0.262c0.427,0.01,0.863-0.078,1.193-0.272l18.703-10.797
						C286.388,388.395,286.767,387.531,286.641,386.833z M274.825,384.553c-2.134,1.242-4.375,0.33-5.006-2.037
						c-0.621-2.367,0.611-5.296,2.745-6.538c2.144-1.251,4.385-0.34,5.006,2.037C278.191,380.382,276.969,383.311,274.825,384.553z"
						/>
				</g>
				<g id="XMLID_5604_">
					<polygon id="XMLID_5605_" points="255.829,391.679 262.207,387.997 263.503,396.579 					"/>
				</g>
				<g id="XMLID_5602_">
					<path id="XMLID_5603_" style="fill:#263238;" d="M262.88,369.107l-2.608-1.51l2.159,26.416
						c0.142,0.696-0.258,0.979-0.863,0.619l-4.974-2.861c-0.618-0.361-1.108-0.065-1.108,0.644v0.438
						c0,0.709,0.464,1.546,1.07,1.907c0.013,0.013,0.026,0.013,0.039,0.026l8.234,4.755c0.013,0,0.013,0.013,0.026,0.013
						c0.284,0.155,0.657,0.245,1.018,0.258L262.88,369.107z"/>
				</g>
			</g>
			<path style="fill:#263238;" d="M274.825,384.553c-1.562,0.902-3.172,0.669-4.171-0.456c0.737,0.097,1.542-0.068,2.328-0.534
				c2.144-1.242,3.366-4.171,2.745-6.538c-0.165-0.64-0.456-1.174-0.825-1.581c1.251,0.165,2.27,1.086,2.668,2.571
				C278.191,380.382,276.969,383.311,274.825,384.553z"/>
			<g>
				<path style="fill:#27DEBF;" d="M261.673,344.455l-1.021,12.144c-0.067,0.801,0.37,1.17,0.977,0.825
					c0.607-0.345,1.154-1.274,1.221-2.075l1.021-12.144c0.067-0.801-0.37-1.17-0.977-0.825
					C262.287,342.725,261.74,343.654,261.673,344.455z"/>
				<path style="fill:#27DEBF;" d="M265.613,342.18l-1.021,12.144c-0.067,0.801,0.37,1.17,0.977,0.825s1.154-1.274,1.221-2.075
					l1.021-12.144c0.067-0.801-0.37-1.17-0.977-0.825C266.227,340.45,265.681,341.379,265.613,342.18z"/>
				<path style="fill:#27DEBF;" d="M269.553,339.905l-1.021,12.144c-0.067,0.801,0.37,1.17,0.977,0.825
					c0.607-0.345,1.154-1.274,1.221-2.075l1.021-12.144c0.067-0.801-0.37-1.17-0.977-0.825
					C270.167,338.175,269.621,339.104,269.553,339.905z"/>
				<path style="fill:#27DEBF;" d="M273.494,337.63l-1.021,12.144c-0.067,0.801,0.37,1.17,0.977,0.825
					c0.607-0.345,1.154-1.274,1.221-2.075l1.021-12.144c0.067-0.801-0.37-1.17-0.977-0.825
					C274.108,335.9,273.561,336.829,273.494,337.63z"/>
			</g>
		</g>
	</g>
</g>
<g id="Plant">
	<g id="Pot_16_">
		<g id="Pot_17_">
			<g id="XMLID_3719_">
				<path id="XMLID_565_" style="fill:#27DEBF;" d="M219.751,218.066c-6.406-6.61-10.169-33.51-3.921-38.753h31.791
					c6.247,5.241,2.488,32.132-3.914,38.747c-0.054,0.062-0.118,0.121-0.175,0.182c-0.073,0.073-0.147,0.147-0.221,0.218
					c-0.181,0.177-0.373,0.351-0.579,0.521c-0.051,0.042-0.102,0.08-0.153,0.122c-0.157,0.124-0.312,0.249-0.483,0.369
					c-0.273,0.196-0.549,0.378-0.828,0.535c-5.27,3.076-13.813,3.076-19.082,0h0h-0.001c-0.281-0.158-0.559-0.342-0.834-0.539
					c-0.159-0.112-0.303-0.228-0.45-0.344c-0.063-0.05-0.126-0.097-0.189-0.15c-0.199-0.164-0.384-0.332-0.558-0.502
					c-0.086-0.081-0.17-0.167-0.255-0.252C219.851,218.168,219.797,218.118,219.751,218.066z"/>
				<path id="XMLID_567_" style="opacity:0.3;" d="M219.751,218.066c-6.406-6.61-10.169-33.51-3.921-38.753h31.791
					c6.247,5.241,2.488,32.132-3.914,38.747c-0.054,0.062-0.118,0.121-0.175,0.182c-0.073,0.073-0.147,0.147-0.221,0.218
					c-0.181,0.177-0.373,0.351-0.579,0.521c-0.051,0.042-0.102,0.08-0.153,0.122c-0.157,0.124-0.312,0.249-0.483,0.369
					c-0.273,0.196-0.549,0.378-0.828,0.535c-5.27,3.076-13.813,3.076-19.082,0h0h-0.001c-0.281-0.158-0.559-0.342-0.834-0.539
					c-0.159-0.112-0.303-0.228-0.45-0.344c-0.063-0.05-0.126-0.097-0.189-0.15c-0.199-0.164-0.384-0.332-0.558-0.502
					c-0.086-0.081-0.17-0.167-0.255-0.252C219.851,218.168,219.797,218.118,219.751,218.066z"/>
			</g>
			<g id="XMLID_3717_">
				<path id="XMLID_3718_" style="fill:#27DEBF;" d="M244.861,177.202c7.254,4.235,7.254,11.101,0,15.336
					c-7.254,4.235-19.015,4.235-26.268,0c-7.254-4.235-7.254-11.101,0-15.336C225.847,172.967,237.608,172.967,244.861,177.202z"/>
				<path id="XMLID_582_" style="opacity:0.1;" d="M244.861,177.202c7.254,4.235,7.254,11.101,0,15.336
					c-7.254,4.235-19.015,4.235-26.268,0c-7.254-4.235-7.254-11.101,0-15.336C225.847,172.967,237.608,172.967,244.861,177.202z"/>
			</g>
			<g id="XMLID_3666_">
				<path id="XMLID_3667_" style="fill:#455A64;" d="M241.372,179.238c5.327,3.111,5.327,8.153,0,11.263
					c-5.327,3.11-13.964,3.11-19.291,0c-5.327-3.11-5.327-8.153,0-11.263C227.409,176.128,236.046,176.128,241.372,179.238z"/>
			</g>
			<g id="XMLID_3664_">
				<path id="XMLID_3665_" style="fill:#F5F5F5;" d="M222.082,184.584c5.327-3.11,13.963-3.11,19.29,0
					c1.48,0.864,2.533,1.88,3.191,2.959c-0.658,1.079-1.711,2.095-3.191,2.959c-5.327,3.11-13.964,3.11-19.29,0
					c-1.48-0.864-2.533-1.88-3.191-2.959C219.549,186.463,220.602,185.448,222.082,184.584z"/>
			</g>
		</g>
		<g id="Plants_14_">
			<g id="XMLID_3660_">
				<path style="fill:#27DEBF;" d="M249.349,132.385l-12.711,8.697l12.022-4.553c0,0,0.096,4.205-2.376,9.236
					c0,0-7.939,3.857-12.254,7.919l10.575-3.324c0,0-0.043,5.377-1.738,11.667c-0.907,3.366-3.996,9.612-5.901,12.848
					c-0.86,1.468-1.823,2.908-2.908,4.294c-0.061,0.089-0.13,0.171-0.198,0.26c-1.959-1.311-4.001-2.594-6.124-3.844
					c-1.222-3.12-2.567-10.704-2.813-16.855c-0.922-23.545,17.688-35.69,32.208-39.178
					C257.132,119.551,251.82,125.327,249.349,132.385z"/>
				<path style="opacity:0.2;" d="M249.349,132.385l-12.711,8.697l12.022-4.553c0,0,0.096,4.205-2.376,9.236
					c0,0-7.939,3.857-12.254,7.919l10.575-3.324c0,0-0.043,5.377-1.738,11.667c-0.907,3.366-3.996,9.612-5.901,12.848
					c-0.86,1.468-1.823,2.908-2.908,4.294c-0.061,0.089-0.13,0.171-0.198,0.26c-1.959-1.311-4.001-2.594-6.124-3.844
					c-1.222-3.12-2.567-10.704-2.813-16.855c-0.922-23.545,17.688-35.69,32.208-39.178
					C257.132,119.551,251.82,125.327,249.349,132.385z"/>
				<path style="fill:#FAFAFA;" d="M239.215,132.653c-1.341,1.115-2.359,2.539-3.307,3.983c-0.876,1.495-1.675,3.034-2.324,4.639
					c-1.323,3.2-2.253,6.554-2.85,9.958c-1.201,6.805-0.908,13.892,1.118,20.467l0.002,0.008c0.055,0.179-0.045,0.369-0.224,0.424
					c-0.179,0.055-0.369-0.045-0.424-0.224c0-0.001-0.001-0.004-0.002-0.005c-1.956-6.735-2.123-13.899-0.805-20.73
					c0.656-3.418,1.647-6.773,3.028-9.964c0.678-1.601,1.506-3.134,2.409-4.618C236.811,135.157,237.855,133.746,239.215,132.653z"
					/>
			</g>
			<g>
				<path style="fill:#27DEBF;" d="M193.034,139.365c0,0,0.006,0.008,0.018,0.017c0.291,0.368,5.063,6.411,12.063,18.101
					l12.18,2.345l-9.076,1.3l4.612,7.826l11.97,2.861l-9.454,1.242c0,0,2.33,9.26,8.946,13.294c3.652,2.227,5.46,2.604,6.608,1.578
					c0.802-0.717,1.12-5.115,1.891-9.025c0.771-3.91,1.02-10.299-2.452-18.123c-0.922-2.081-2.179-4.01-3.682-5.785
					C218.051,144.8,201.363,139.499,193.034,139.365z"/>
				<path style="opacity:0.3;fill:#FFFFFF;" d="M193.034,139.365c0,0,0.006,0.008,0.018,0.017
					c0.291,0.368,5.063,6.411,12.063,18.101l12.18,2.345l-9.076,1.3l4.612,7.826l11.97,2.861l-9.454,1.242
					c0,0,2.33,9.26,8.946,13.294c3.652,2.227,5.46,2.604,6.608,1.578c0.802-0.717,1.12-5.115,1.891-9.025
					c0.771-3.91,1.02-10.299-2.452-18.123c-0.922-2.081-2.179-4.01-3.682-5.785C218.051,144.8,201.363,139.499,193.034,139.365z"/>
				<path style="opacity:0.1;" d="M227.764,164.793c0.007,0.001,0.006,0.008,0.006,0.008c-0.001,0.007-0.001,0.007,0.004,0.015
					c1.426,3.408,2.149,7.001,2.494,10.208c-0.001,0.007,0.005,0.008,0.005,0.008l-0.001,0.007
					c0.211,1.995,0.266,9.435-0.061,13.285c0.252-0.091,0.486-0.212,0.689-0.394c0.803-0.717,1.12-5.115,1.891-9.025
					c0.771-3.91,1.02-10.299-2.452-18.123c-0.923-2.081-2.179-4.011-3.682-5.786c-8.606-10.196-25.295-15.497-33.623-15.632
					c12.717,2.483,26.195,11.409,32.68,21.505C226.522,162.129,227.189,163.439,227.764,164.793z"/>
				<path style="fill:#FAFAFA;" d="M205.717,143.763c6.244,2.971,12.118,6.965,16.666,12.282c2.27,2.642,4.224,5.599,5.564,8.835
					c1.329,3.234,2.148,6.672,2.355,10.14c0.001,0.019-0.013,0.035-0.032,0.036c-0.017,0.001-0.033-0.012-0.036-0.029
					c-0.593-3.415-1.495-6.751-2.91-9.878c-1.391-3.129-3.17-6.096-5.357-8.755c-2.186-2.658-4.729-5.022-7.484-7.101
					c-2.749-2.089-5.712-3.898-8.796-5.47c-0.017-0.008-0.024-0.029-0.015-0.045C205.68,143.762,205.701,143.755,205.717,143.763z"
					/>
			</g>
			<g>
				<path style="fill:#27DEBF;" d="M268.96,148.049L268.96,148.049c-0.916-0.07-1.953-0.081-3.084-0.029
					c-3.392,0.156-7.622,0.874-11.928,2.212c-1.435,0.446-2.879,0.961-4.302,1.547c-0.712,0.293-1.419,0.604-2.117,0.933
					c-3.492,1.644-6.77,3.739-9.394,6.318c-1.297,1.271-2.422,2.672-3.346,4.19c-0.12,0.198-0.25,0.39-0.363,0.592
					c-0.001,0.002-0.001,0.003-0.002,0.004c-0.293,0.523-0.557,1.037-0.809,1.548c-2.925,5.733-3.371,9.801-3.458,14.334
					c-0.067,3.516,0.904,7.594,1.55,8.29c0.089,0.095,0.188,0.174,0.293,0.244c0.965,0.693,2.577,0.409,5.643-1.089
					c6.144-3.003,8.951-11.316,8.951-11.316l-8.206-1.865l10.753-1.534l4.693-6.499l-7.869-1.886l10.895-1.063
					c7.108-9.698,11.797-14.617,12.082-14.917C268.954,148.056,268.96,148.049,268.96,148.049L268.96,148.049z"/>
				<path style="opacity:0.1;" d="M265.875,148.02c-3.392,0.156-7.622,0.874-11.928,2.212c-1.435,0.446-2.879,0.961-4.302,1.547
					c-0.712,0.293-1.419,0.604-2.117,0.933c-3.492,1.644-6.77,3.739-9.394,6.318c-1.297,1.271-2.422,2.672-3.346,4.19
					c-0.12,0.198-0.25,0.39-0.363,0.592c-0.001,0.002-0.001,0.003-0.002,0.004c-0.293,0.523-0.557,1.037-0.809,1.548
					c-2.925,5.733-3.371,9.801-3.458,14.334c-0.067,3.516,0.904,7.594,1.55,8.29c0.089,0.095,0.188,0.174,0.293,0.244
					c0.185,0.133,0.404,0.218,0.643,0.278c-0.433-5.481,3.006-19.129,7.372-24.578c4.543-5.67,15.017-13.677,28.928-15.87
					l-0.01-0.015C268.023,147.979,266.995,147.969,265.875,148.02z"/>
				<path style="fill:#FAFAFA;" d="M232.609,188.511c-0.071-4.035,0.48-8.068,1.447-11.989c1.016-3.905,2.433-7.748,4.623-11.189
					c1.098-1.726,2.463-3.253,3.907-4.678c1.446-1.428,3.026-2.712,4.671-3.897c3.314-2.334,6.91-4.275,10.71-5.639
					c0.018-0.006,0.037,0.003,0.043,0.02c0.006,0.017-0.002,0.035-0.018,0.042c-3.642,1.719-7.135,3.721-10.337,6.124
					c-1.606,1.19-3.156,2.458-4.605,3.832c-1.45,1.371-2.818,2.839-3.92,4.493c-2.2,3.328-3.676,7.118-4.748,10.977
					c-1.048,3.872-1.688,7.875-1.708,11.902c0,0.019-0.015,0.034-0.034,0.034C232.624,188.544,232.609,188.529,232.609,188.511z"/>
			</g>
		</g>
	</g>
</g>
<g id="Character_1">
	<g id="Character_on_the_couch_1_">
		<g id="Couch">
			<g>
				<path id="XMLID_811_" style="fill:#FAFAFA;" d="M326.266,272.304h10.15l-1.622,9.9h-0.015c-0.076,0.446-0.393,0.88-0.984,1.222
					c-1.355,0.782-3.553,0.782-4.908,0c-0.591-0.341-0.909-0.776-0.984-1.222h-0.015L326.266,272.304z"/>
				<path id="XMLID_810_" style="fill:#FAFAFA;" d="M382.003,242.436h10.15l-1.622,9.9h-0.015c-0.075,0.446-0.393,0.88-0.984,1.222
					c-1.355,0.782-3.553,0.782-4.908,0c-0.591-0.342-0.909-0.776-0.984-1.222h-0.016L382.003,242.436z"/>
				<path id="XMLID_809_" style="fill:#FAFAFA;" d="M251.081,230.192h10.15l-1.622,9.9h-0.016c-0.075,0.446-0.393,0.88-0.984,1.222
					c-1.355,0.783-3.553,0.783-4.908,0c-0.591-0.341-0.908-0.776-0.984-1.222h-0.016L251.081,230.192z"/>
				<path id="XMLID_808_" style="fill:#FAFAFA;" d="M302.71,200.158h10.15l-1.622,9.9h-0.015c-0.076,0.446-0.393,0.88-0.984,1.222
					c-1.355,0.783-3.553,0.783-4.908,0c-0.591-0.341-0.909-0.776-0.984-1.222h-0.016L302.71,200.158z"/>
			</g>
			<g id="XMLID_805_">
				<path id="XMLID_807_" style="fill:#37474F;" d="M242.98,178.163v47.274c0,3.126,2.216,6.968,4.922,8.525l4.012,2.319
					c0.023,0.011,0.045,0.023,0.068,0.034c1.58,0.887,4.116,1.305,6.15,1.057l60.245,31.878c0.136,3.046,2.262,6.649,4.865,8.184
					c0.011,0,0.034,0.011,0.046,0.023l4.001,2.308c0.125,0.079,0.25,0.148,0.375,0.193c0.068,0.045,0.136,0.068,0.204,0.102
					c0.023,0.011,0.046,0.011,0.057,0.023c2.205,1.012,5.24,1.125,7.639,0.352c0.296-0.091,0.58-0.193,0.852-0.318
					c0.045-0.023,0.091-0.034,0.136-0.057c0.204-0.091,0.398-0.193,0.58-0.295l57.974-33.382c2.717-1.569,4.922-5.399,4.922-8.525
					l0.085-59.848l0.006-22.764c0-3.126-2.217-6.956-4.922-8.525l-64.835-37.359c-2.717-1.569-6.792-1.41-9.498,0.158l-4.012,2.308
					c-2.705,1.568-5.263,5.376-5.672,8.479l-3.865,25.337l-3.569-2.064c-3.313-1.916-7.396-1.917-10.71-0.004l-45.134,26.062
					C245.197,171.196,242.98,175.038,242.98,178.163z"/>
				<path id="XMLID_806_" style="fill:#455A64;" d="M316.852,111.832l4.008-2.314c2.718-1.569,6.78-1.728,9.498-0.158l64.834,37.363
					c0.289,0.167,0.603,0.385,0.506,0.316c2.239,1.568,4.058,4.638,4.365,7.377c-0.364-2.512-2.41-3.421-4.865-2.012
					c0.329-0.191-4.014,2.316-4.014,2.316c-2.718,1.569-7.125,1.569-9.844,0l-64.488-37.205
					C314.133,115.946,314.133,113.401,316.852,111.832z"/>
			</g>
			<g id="XMLID_799_">
				<path id="XMLID_804_" style="fill:#263238;" d="M242.98,178.163v47.274c0,3.126,2.216,6.968,4.922,8.525l4.012,2.319
					c0.023,0.011,0.045,0.023,0.068,0.034c1.58,0.887,3.717,1.25,5.763,1.091c1.466-0.102,2.887-0.489,4.012-1.125l45.557-26.314
					c2.705-1.557,4.922-5.399,4.922-8.525v-47.274c0-3.126-2.205-6.968-4.922-8.525l-3.569-2.064
					c-3.313-1.916-7.396-1.917-10.71-0.004l-45.134,26.062C245.197,171.196,242.98,175.038,242.98,178.163z"/>
				<path id="XMLID_803_" style="fill:#455A64;" d="M303.741,143.576l3.578,2.066c2.707,1.563,2.707,4.12,0,5.683l-45.562,26.305
					c-2.707,1.563-4.922,5.399-4.922,8.525l0,47.28c0,3.126-2.215,4.405-4.922,2.842l-4.008-2.314
					c-2.707-1.563-4.922-5.399-4.922-8.525v-47.279c0-3.126,2.215-6.962,4.922-8.525l45.133-26.057
					C296.35,141.664,300.429,141.664,303.741,143.576z"/>
				<path id="XMLID_800_" style="fill:#37474F;" d="M256.835,186.155l0,47.28c0,3.126-2.215,4.404-4.922,2.842l-4.008-2.314
					c-2.707-1.563-4.922-5.399-4.922-8.525v-47.279c0-1.563,0.554-3.303,1.446-4.849l13.852,7.997
					C257.389,182.852,256.835,184.592,256.835,186.155z"/>
			</g>
			<g id="XMLID_794_">
				<path id="XMLID_798_" style="fill:#263238;" d="M258.883,237.406c0.464,0.97,1.081,1.902,1.798,2.707
					c1.044,1.172,3.271,2.454,4.63,3.239c17.314,10.001,29.797,17.178,47.111,27.174c1.359,0.785,3.563,0.784,4.921-0.001
					l16.006-9.244l32.02-18.482c2.717-1.569,4.922-5.229,4.922-8.173c0-2.944-2.205-6.604-4.922-8.173l-18.164-10.491l-13.856-7.991
					l-15.052-8.667c-1.364-0.784-3.137-1.171-4.922-1.171c-1.784,0-3.558,0.387-4.922,1.171l-45.557,26.314
					c-2.717,1.569-4.922,5.229-4.922,8.173C257.974,234.939,258.314,236.201,258.883,237.406z"/>
				<path id="XMLID_797_" style="fill:#37474F;" d="M312.416,259.866l-51.982-29.991c-1.359-0.785-2.461-0.149-2.461,1.421v4.98
					c0,1.569,1.102,3.478,2.461,4.262l51.986,29.989c1.359,0.785,2.46,0.149,2.46-1.421l-0.002-4.977
					C314.878,262.559,313.776,260.651,312.416,259.866z"/>
			</g>
			<g id="XMLID_790_">
				<path id="XMLID_793_" style="fill:#37474F;" d="M318.301,174.925l47.066,27.147c2.718,1.569,4.922,5.386,4.921,8.525l0,9.959
					c0,3.139-2.204,6.956-4.922,8.525l-45.563,26.306c-2.718,1.569-7.125,1.569-9.844,0l-47.065-27.146
					c-2.718-1.569-4.922-5.386-4.922-8.525v-9.96c0-3.139,2.204-6.956,4.922-8.525l45.562-26.305
					C311.175,173.356,315.583,173.356,318.301,174.925z"/>
				<path id="XMLID_792_" style="fill:#263238;" d="M314.877,235.232v21.335c1.785,0,3.569-0.398,4.922-1.182l45.569-26.302
					c2.717-1.569,4.922-5.388,4.922-8.525V210.6c0-2.944-1.944-6.479-4.422-8.207c2.205,1.58,2.035,3.899-0.5,5.365l-45.569,26.302
					C318.435,234.845,316.662,235.232,314.877,235.232z"/>
				<path id="XMLID_791_" style="fill:#455A64;" d="M309.96,234.061l-47.065-27.146c-2.718-1.569-2.718-4.114,0-5.683l45.562-26.305
					c2.718-1.569,7.126-1.569,9.844,0l47.066,27.147c2.718,1.569,2.718,4.114,0,5.683l-45.563,26.305
					C317.085,235.63,312.678,235.63,309.96,234.061z"/>
			</g>
		</g>
		<g id="Character">
			<g>
				<g>
					<path id="XMLID_786_" style="fill:#B16668;" d="M276.346,236.648c0,0,3.806,12.165,3.66,16.824
						c-0.153,4.855,0.881,6.555-0.382,11.743c-0.275,1.13-1.07,3.375-1.298,4.292c-0.203,0.816,0.051,1.509,1.097,1.819
						c2.061,0.612,5.877-3.035,7.896-7.183c2.019-4.148,5.184-13.621,5.428-14.767c0.235-1.105-0.019-2.525-0.379-3.44
						c-0.631-1.605-0.816-1.833-0.816-1.833c-0.517-2.163-0.513-6.191-0.864-9.008L276.346,236.648z"/>
					<g>
						<path style="fill:#263238;" d="M296.478,254.129c0,0,0.448,1.01,0.428,1.632c-0.031,0.969-2.476,3.962-3.428,5.046
							c-0.952,1.085-1.91,2.464-2.036,5.362c-0.135,3.098-1.749,5.954-3.956,8.332c-2.208,2.378-5.901,4.873-11.126,6.011
							c-5.224,1.138-6.804-1.565-6.804-1.565s-1.372-2.59-0.338-3.517C270.252,274.503,296.478,254.129,296.478,254.129z"/>
						<path id="XMLID_785_" style="fill:#455A64;" d="M291.552,244.104c0.155,0.007,0.433-0.013,0.791,0.501
							c0.136,0.195,0.872,2.563,1.541,3.83c0.716,1.356,2.499,3.72,2.594,5.694c-1.497,3.676-5.26,6.004-6.092,9.523
							c-0.832,3.519-1.241,7.651-7.086,11.551c-5.845,3.9-11.514,3.875-13.441,2.55c-1.927-1.325-1.559-3.478,1.611-7.37
							c3.364-4.131,6.182-13.458,6.183-13.462c0.39-1.291,0.652-2.666,0.87-3.995c0.212-1.292-0.05-2.714-0.041-4.03
							c0.004-0.623,0.036-1.29,0.408-1.789c0.372-0.5,1.002-0.72,1.594-0.915c0.946-0.311,1.902-0.623,2.894-0.716
							c0.991-0.093,2.036,0.052,2.87,0.596c0.603,0.393,1.074,0.978,1.714,1.308c0.858,0.443,1.969,0.339,2.73-0.254
							c1.122-0.875,1.042-1.754,0.936-2.41C291.648,244.698,291.552,244.104,291.552,244.104z"/>
						<path style="fill:#FAFAFA;" d="M286.796,271.976c0,0-1.758-4.494-7.576-4.962c-5.818-0.468-8.08,2.321-9.111,3.987
							c-1.228,1.984-2.643,5.647-0.333,6.928c2.495,1.383,5.527,1.276,10.45-0.693C285.148,275.267,286.796,271.976,286.796,271.976
							z"/>
						<g>
							<path style="fill:#FAFAFA;" d="M287.213,254.369c-0.171,0.065-0.369,0.053-0.531-0.047c-0.86-0.534-5.529-1.929-8.514,0.407
								c-0.334-0.318-0.217-0.838,0.304-1.54c3.414-1.784,7.835-0.487,8.873,0.158c0.272,0.169,0.343,0.524,0.16,0.792
								C287.432,254.248,287.329,254.325,287.213,254.369z"/>
							<path style="fill:#FAFAFA;" d="M277.285,258.067c-0.156-0.531,0.161-1.305,0.47-1.569c3.342-1.465,7.449-0.245,8.444,0.372
								c0.272,0.169,0.343,0.523,0.16,0.792c-0.074,0.109-0.177,0.186-0.293,0.23c-0.171,0.065-0.368,0.053-0.53-0.047
								C284.701,257.326,280.272,256.008,277.285,258.067z"/>
							<path style="fill:#FAFAFA;" d="M274.25,265.725c0.035-0.713,0.349-1.397,0.921-2.042c3.392-1.674,7.711-0.404,8.735,0.231
								c0.272,0.169,0.343,0.524,0.16,0.792c-0.074,0.109-0.177,0.186-0.293,0.23c-0.171,0.065-0.368,0.053-0.53-0.047
								C282.336,264.326,277.186,262.806,274.25,265.725z"/>
							<path style="fill:#FAFAFA;" d="M284.92,261.414c-0.171,0.065-0.368,0.053-0.53-0.047c-0.85-0.528-5.424-1.89-8.412,0.335
								c-0.081-0.55,0.12-1.116,0.631-1.681c3.343-1.465,7.449-0.245,8.444,0.372c0.272,0.169,0.343,0.524,0.16,0.792
								C285.139,261.293,285.036,261.37,284.92,261.414z"/>
						</g>
					</g>
				</g>
				<g id="XMLID_782_">
					<path id="XMLID_784_" style="fill:#B16668;" d="M269.96,250.654c0,0-3.588,14.144-6.701,19.487
						c-3.113,5.343-4.699,7.915-8.697,11.819c-0.87,0.85-2.821,2.402-3.532,3.089c-0.633,0.612-0.791,1.367-0.035,2.222
						c1.49,1.686,8.327,2.633,12.419,0.072c4.092-2.561,8.116-8.412,10.606-10.54c0.936-0.8,1.823-1.624,2.675-2.505
						c0.821-0.85,0.691-1.735,0.843-2.751c0.074-0.492,0.116-1.847,0.116-1.847c0.73-2.371,2.475-6.041,3.43-8.331L269.96,250.654z"
						/>
					<g>
						<path style="fill:#263238;" d="M278.097,280.651c0,0-0.027,1.156-0.324,1.735c-0.462,0.903-4.113,2.643-5.498,3.244
							c-1.385,0.602-2.908,1.478-4.322,4.165c-1.512,2.871-4.314,4.853-7.466,6.117c-3.151,1.264-7.761,1.976-13.213,0.719
							c-5.452-1.257-5.74-4.521-5.74-4.521s-0.141-3.064,1.252-3.479C244.179,288.216,278.097,280.651,278.097,280.651z"/>
						<path id="XMLID_783_" style="fill:#455A64;" d="M277.914,268.965c0.144,0.076,0.415,0.18,0.525,0.827
							c0.041,0.245-0.32,2.814-0.253,4.313c0.072,1.603,0.703,4.636-0.089,6.547c-3.058,2.809-7.659,3.332-10.018,6.29
							c-2.359,2.958-4.592,6.685-11.865,7.765c-7.273,1.079-12.627-1.476-13.858-3.591c-1.231-2.115,0.079-3.987,4.816-6.255
							c5.029-2.406,11.862-9.974,11.865-9.977c0.945-1.047,1.807-2.231,2.607-3.392c0.778-1.128,1.165-2.59,1.761-3.831
							c0.282-0.587,0.61-1.205,1.185-1.511c0.576-0.306,1.27-0.234,1.917-0.153c1.034,0.129,2.078,0.26,3.058,0.615
							c0.98,0.355,1.904,0.958,2.45,1.846c0.395,0.642,0.58,1.405,1.038,2.003c0.614,0.802,1.711,1.201,2.697,0.979
							c1.453-0.327,1.769-1.194,1.963-1.863C277.74,269.569,277.914,268.965,277.914,268.965z"/>
						<path style="fill:#FAFAFA;" d="M260.963,293.215c0,0,0.344-5.038-4.952-8.08c-5.296-3.042-8.683-1.412-10.403-0.297
							c-2.049,1.328-5.024,4.164-3.41,6.407c1.743,2.423,4.66,3.677,10.198,4.012C257.934,295.593,260.963,293.215,260.963,293.215z
							"/>
						<g>
							<path style="fill:#FAFAFA;" d="M269.223,276.74c-0.191-0.015-0.373-0.114-0.481-0.282c-0.576-0.889-4.37-4.295-8.239-3.418
								c-0.174-0.45,0.169-0.889,0.976-1.321c4.027-0.164,7.632,3.039,8.325,4.113c0.182,0.281,0.091,0.649-0.202,0.821
								C269.484,276.723,269.353,276.75,269.223,276.74z"/>
							<path style="fill:#FAFAFA;" d="M258.176,275.804c0.09-0.573,0.735-1.163,1.146-1.275c3.816,0.107,7.158,3.095,7.824,4.124
								c0.182,0.281,0.091,0.648-0.202,0.821c-0.119,0.07-0.251,0.097-0.38,0.087c-0.191-0.015-0.373-0.114-0.481-0.282
								C265.525,278.416,261.922,275.19,258.176,275.804z"/>
							<path style="fill:#FAFAFA;" d="M251.884,281.696c0.352-0.659,0.954-1.167,1.784-1.521c3.957-0.069,7.477,3.062,8.163,4.121
								c0.182,0.281,0.091,0.649-0.202,0.821c-0.119,0.07-0.251,0.097-0.38,0.087c-0.191-0.016-0.373-0.114-0.481-0.282
								C260.16,283.983,255.966,280.245,251.884,281.696z"/>
							<path style="fill:#FAFAFA;" d="M263.907,282.382c-0.191-0.015-0.373-0.114-0.481-0.282c-0.569-0.879-4.288-4.211-8.109-3.441
								c0.169-0.556,0.612-1.003,1.348-1.309c3.818,0.107,7.159,3.095,7.824,4.124c0.182,0.281,0.091,0.649-0.202,0.821
								C264.168,282.366,264.036,282.392,263.907,282.382z"/>
						</g>
					</g>
				</g>
				<g>
					<path style="fill:#27DEBF;" d="M308.496,171.638c-6.244,3.814-27.723,13.911-36.688,20.908
						c-2.59,2.021-3.628,4.882-3.575,11.313c0.072,8.727,4.389,38.811,4.389,38.811c0.796,1.745,2.712-1.277,2.712-1.277
						l35.929-38.467L308.496,171.638z"/>
					<path style="opacity:0.3;" d="M308.496,171.638c-6.244,3.814-27.723,13.911-36.688,20.908
						c-2.59,2.021-3.628,4.882-3.575,11.313c0.072,8.727,4.389,38.811,4.389,38.811c0.796,1.745,2.712-1.277,2.712-1.277
						l35.929-38.467L308.496,171.638z"/>
					<path style="opacity:0.3;" d="M274.805,233.6c8.038-5.641,35.523-41.87,35.523-41.87s-0.006-0.006-0.012-0.013
						c-3.068-3.07-3.956-12.89-3.956-12.89c-1.625,3.623-0.716,9.37,0.128,11.514c-2.05,1.492-13.591,9.458-21.588,14.76
						c-2.006,1.33-4.083,3.006-5.013,6.338C277.657,219.428,274.766,231.943,274.805,233.6z"/>
				</g>
				<g id="XMLID_781_">
					<path style="fill:#27DEBF;" d="M308.496,171.638L308.496,171.638l40.998,12.771c-2.687,7.496-3.603,11.407-6.072,15.266
						c-2.478,3.871-5.208,7.993-16.526,12.427c-10.896,4.269-24.122,8.496-26.782,9.497c-2.004,0.755-3.247,4.529-4.539,9.45
						c-1.354,5.162-1.783,9.255-7.892,19.813c-5.982,10.338-7.215,12.577-7.215,12.577s-7.92,0.155-12.744-4.87
						c0,0,10.222-36.312,12.298-42.829c1.16-3.64,1.342-5.595,6.294-9.285c4.245-3.163,23.016-15.031,23.016-15.031
						S303.117,181.421,308.496,171.638z"/>
					<path style="opacity:0.3;" d="M308.496,171.638L308.496,171.638l40.998,12.771c-2.687,7.496-3.603,11.407-6.072,15.266
						c-2.478,3.871-5.208,7.993-16.526,12.427c-10.896,4.269-24.122,8.496-26.782,9.497c-2.004,0.755-3.247,4.529-4.539,9.45
						c-1.354,5.162-1.783,9.255-7.892,19.813c-5.982,10.338-7.215,12.577-7.215,12.577s-7.92,0.155-12.744-4.87
						c0,0,10.222-36.312,12.298-42.829c1.16-3.64,1.342-5.595,6.294-9.285c4.245-3.163,23.016-15.031,23.016-15.031
						S303.117,181.421,308.496,171.638z"/>
				</g>
			</g>
			<g id="XMLID_573_">
				<g id="XMLID_620_">
					<path id="XMLID_733_" style="fill:#B16668;" d="M310.627,115.031c-0.785-0.473-1.133-5.744-0.296-9.505
						c0.837-3.762-0.905-4.671-1.762-3.495c-0.857,1.176-1.06,2.193-1.06,2.193s-2.794,0.513-4.9,2.606
						c-2.106,2.093-4.588,4.64-3.862,10.214c0.14,1.076,0.229,3.893-0.38,5.541c-3.022,8.171-13.655,18.415-16.062,29.322
						c-2.217,10.046,5.617,11.047,12.453,7.978c7.865-3.531,22.919-16.909,22.919-16.909l6.535-21.907
						c-4.154-0.044-7.245,0.668-12.75,5.988c-0.922,0.891-4.755,4.165-4.755,4.165c1.443-3.184,2.238-5.239,3.919-7.685"/>
					<path style="fill:#9A4A4D;" d="M301.147,145.614c-1.423,3.456-4.019,7.243-4.019,7.243s3.437-2.074,5.133-6.006
						L301.147,145.614z"/>
					<path style="fill:#FAFAFA;" d="M325.11,121.057c-4.495-0.421-8.143,0.279-11.671,3.694c-3.254,3.149-6.731,6.471-6.731,6.471
						c-2.323,5.422-4.009,10.683-5.561,14.392c0.782,2.732,2.257,5.874,4.178,7.862l18.249-14.65L325.11,121.057z"/>
					<path style="fill:#9A4A4D;" d="M308.25,121.068c1.264-1.997-0.585-3.936-0.585-3.936l2.959-2.003l0.003-0.099
						c-0.006-0.003-0.011-0.013-0.016-0.016l-11.967-0.549c-0.044,0.783-0.019,1.634,0.104,2.578
						c0.072,0.549,0.122,1.536,0.094,2.594l1.556,0.933c0.34,0.204,0.766,0.217,1.12,0.036l5.051-2.61
						C308.325,118.683,308.25,121.068,308.25,121.068z"/>
				</g>
				<g id="XMLID_594_">
					<g id="XMLID_609_">
						<path id="XMLID_619_" style="fill:#37474F;" d="M298.571,104.359l21.039-9.909c0.452-0.212,0.872-0.194,1.175,0.006
							c0.267,0.177,1.347,0.844,1.644,1.01c0.3,0.168,0.501,0.501,0.529,0.96l0.68,10.872c0.057,0.914-0.587,1.978-1.439,2.378
							l-21.039,9.909c-0.421,0.197-0.813,0.196-1.11,0.033c-0.304-0.166-1.473-0.885-1.777-1.091
							c-0.263-0.178-0.436-0.495-0.463-0.919c-0.171-2.729-0.509-8.142-0.68-10.871
							C297.075,105.824,297.719,104.758,298.571,104.359z"/>
						<path style="fill:#27DEBF;" d="M322.154,107.574c0.018,0.406-0.338,0.997-0.72,1.182l-19.873,9.396l0.029,0.481l-0.815-11.569
							c-0.026-0.406,0.33-0.998,0.711-1.175l20.327-9.63l0,0.007l-0.445,0.212L322.154,107.574z"/>
						<path style="opacity:0.75;fill:#FFFFFF;" d="M322.154,107.574c0.018,0.406-0.338,0.997-0.72,1.182l-19.873,9.396l0.029,0.481
							l-0.815-11.569c-0.026-0.406,0.33-0.998,0.711-1.175l20.327-9.63l0,0.007l-0.445,0.212L322.154,107.574z"/>
						<path style="fill:#263238;" d="M322.636,107.837c0.026,0.406-0.339,1.005-0.712,1.183l-20.334,9.614l-0.029-0.481
							l19.873-9.396c0.382-0.185,0.738-0.776,0.72-1.182l-0.785-11.095l0.445-0.212L322.636,107.837z"/>
						<path style="fill:#263238;" d="M300.108,119.646c-0.021-0.008-0.035-0.016-0.057-0.024c-0.303-0.168-1.47-0.889-1.778-1.092
							c-0.259-0.18-0.431-0.497-0.46-0.92c-0.171-2.731-0.509-8.144-0.68-10.875c-0.04-0.626,0.257-1.329,0.725-1.834l1.709,1.033
							c-0.475,0.505-0.773,1.214-0.733,1.847c0.171,2.731,0.509,8.144,0.68,10.875C299.546,119.15,299.774,119.497,300.108,119.646z
							"/>
						<path style="fill:#455A64;" d="M322.405,95.452c-0.312-0.157-0.695-0.143-1.089,0.042l-21.041,9.912
							c-0.26,0.121-0.502,0.307-0.709,0.529l-1.715-1.035c0.214-0.233,0.446-0.406,0.719-0.541l21.037-9.911
							c0.453-0.211,0.873-0.192,1.174,0.005C321.042,94.618,322.039,95.239,322.405,95.452z"/>
						<path id="XMLID_615_" style="opacity:0.35;" d="M300.276,112.296c-0.241,0.124-0.422,0.443-0.404,0.712
							c0.018,0.269,0.229,0.391,0.471,0.271c0.242-0.119,0.423-0.438,0.404-0.712C300.727,112.293,300.516,112.172,300.276,112.296z
							"/>
					</g>
					<path id="XMLID_595_" style="fill:#B16668;" d="M310.954,114.977c0.631-0.521,0.856-2.149,1.929-3.613
						c1.24-1.692,4.096-1.25,3.204,0.114c-0.892,1.364-1.196,2.61-1.845,6.101c-0.652,3.509-2.055,4.05-3.615,5.958l-0.003-8.407
						L310.954,114.977z"/>
				</g>
			</g>
			<g>
				<path id="XMLID_554_" style="fill:#EBEBEB;" d="M339.906,122.725c3.456,0.912,14.603,5.312,14.603,5.312
					c2.397,1.88,1.395,5.988,1.353,10.733c-0.931,34.296-6.875,49.579-6.875,49.579c-13.416,2.943-37.931-5.592-42.487-15.829
					c4.1-6.231,6.861-15.536,7.442-33.821c0.431-13.566,6.596-17.669,10.595-17.638C324.536,121.06,332.986,120.9,339.906,122.725z"
					/>
			</g>
			<g id="XMLID_487_">
				<g id="XMLID_533_">
					<path id="XMLID_550_" style="fill:#263238;" d="M322.806,94.514c0.158-0.867,0.27-1.558,0.026-2.408
						c-0.243-0.845-0.566-1.665-0.769-2.521c-0.273-1.149-0.58-2.291-0.92-3.423c-0.492-1.637-1.137-3.152-1.125-4.884
						c0.005-0.796,0.252-1.625,0.831-2.169c0.755-0.71,1.933-0.798,2.92-0.487c0.987,0.311,1.829,0.956,2.648,1.59
						c-0.005-1.223,0.27-2.489,1.024-3.451c0.754-0.961,2.054-1.546,3.229-1.222c1.123,0.31,1.885,1.318,2.786,2.059
						c1.643,1.35,3.805,1.83,5.862,2.359c2.201,0.565,3.899,0.986,5.949,2.536c1.775,1.341,3.593,4.201,3.523,7.024
						c-0.026,1.056-0.419,3.47-0.586,4.793c-0.25,1.979-0.452,3.965-0.775,5.932c-1.642,10.002-4.908,17.256-14.985,16.512
						c-3.84-0.283-9.195-2.662-10.194-6.845c-0.165-0.689-0.144-1.488-0.191-2.194c-0.098-1.47-0.136-2.943-0.113-4.416
						C321.992,100.354,322.279,97.412,322.806,94.514z"/>
					<path style="fill:#455A64;" d="M348.791,89.517c0,0,1.942,0.068,2.96,2.6c0.886,2.202,1.296,5.676-0.863,11.042
						c-2.274,5.654-4.065,7.423-5.307,9.525c-0.892,1.51-2.314,4.346-2.314,4.346l0.631-6.636l0.567-4.615
						c0,0-2.836-0.655-3.661-5.256c-0.93-5.186,0.056-5.834,0.056-5.834L348.791,89.517z"/>
					<path id="XMLID_548_" style="fill:#B16668;" d="M344.27,105.198c0.339,0.145,0.706,0.157,1.094-0.075
						c0.912-0.546,1.347-1.7,2.124-2.401c1.009-0.911,4.166-2.025,5.454,1.302c1.313,3.39-1.949,7.64-4.313,8.54
						c-3.464,1.319-4.729-2.169-4.729-2.169l-1.343,13.956c-3.982,6.115-8.282,6.612-12.387,6.322
						c-4.105-0.29-3.791-4.107-1.161-6.729l0.348-4.554c0,0-3.801,0.293-5.614-0.126c-3.016-0.697-4.448-3.11-5.13-6.481
						c-0.781-3.86-0.755-7.961-0.48-11.87c0.365-5.18,2.295-10.763,2.295-10.763s1.739-1.581,6.792-1.657
						c3.572-0.054,8.068-0.303,9.943,1.931c0.128,1.058,0.887,3.44,3.698,4.264C339.782,101.887,343.671,104.941,344.27,105.198z"/>
					<path style="fill:#263238;" d="M337.286,91.049c-0.738-1.363-3.371-2.043-4.887-1.782c-2.53,0.435-4.075,1.203-6.155,1.906
						c-1.364,0.461-2.603,0.71-4.621,0.771c-1.439,0.043-3.057-0.377-4.299-1.104s-1.843-2.451-1.949-3.887
						c-0.108-1.468,0.667-2.893,1.738-3.902c-0.023,0.675,0.42,1.299,0.98,1.676c0.561,0.377,1.229,0.554,1.883,0.725
						c-0.997-0.836-1.492-2.23-1.246-3.507c0.246-1.278,1.614-2.942,2.866-3.297c1.203-0.341,2.598-0.696,5.256,1.5
						C329.511,82.342,338.567,83.717,337.286,91.049z"/>
					<path id="XMLID_537_" style="fill:#9A4A4D;" d="M329.357,119.391c0,0,6.912-0.869,9.387-1.959
						c1.656-0.729,3.077-2.101,3.532-3.014c0,0-0.595,1.988-2.154,3.703c-1.906,2.098-10.899,3.082-10.899,3.082L329.357,119.391z"
						/>
				</g>
				<g id="XMLID_494_">
					<path id="XMLID_519_" style="fill:#263238;" d="M332.212,101.708c-0.058,0.783,0.507,1.461,1.26,1.515
						c0.754,0.054,1.412-0.538,1.47-1.321c0.058-0.783-0.506-1.462-1.261-1.515C332.928,100.334,332.27,100.925,332.212,101.708z"/>
					<path id="XMLID_518_" style="fill:#263238;" d="M333.095,96.653l2.947,1.581c0.422-0.846,0.104-1.886-0.71-2.323
						C334.518,95.475,333.517,95.807,333.095,96.653z"/>
					<path id="XMLID_517_" style="fill:#9A4A4D;" d="M332.471,110.26l-5.868,1.721c0.444,1.678,2.118,2.654,3.739,2.178
						C331.963,113.684,332.916,111.938,332.471,110.26z"/>
					<path style="fill:#F28F8F;" d="M330.342,114.16c-0.542,0.159-1.085,0.143-1.591,0.006c0.169-1.471,1.46-2.565,2.952-2.46
						c0.271,0.019,0.524,0.088,0.767,0.178C332.205,112.944,331.43,113.84,330.342,114.16z"/>
					<path id="XMLID_509_" style="fill:#263238;" d="M320.032,96.997l3.235-0.943c-0.229-0.91-1.138-1.437-2.032-1.177
						C320.342,95.138,319.804,96.087,320.032,96.997z"/>
					<path id="XMLID_497_" style="fill:#263238;" d="M320.948,100.844c-0.058,0.783,0.507,1.461,1.261,1.515
						c0.754,0.053,1.412-0.538,1.47-1.321c0.058-0.783-0.507-1.461-1.26-1.515C321.664,99.469,321.006,100.061,320.948,100.844z"/>
					<polygon id="XMLID_496_" style="fill:#9A4A4D;" points="328.15,99.255 327.155,108.492 322.53,106.519 					"/>
				</g>
			</g>
		</g>
		<g id="XMLID_735_">
			<path id="XMLID_748_" style="fill:#263238;" d="M332.213,276.927v-47.279c0-3.126,2.215-6.962,4.922-8.525l45.622-26.334
				c2.161-1.248,2.16-4.368-0.002-5.614l-1.111-0.64l3.867-25.339c0.413-3.098,2.966-6.912,5.673-8.475l4.008-2.314
				c2.707-1.563,4.922-0.284,4.922,2.842v22.762l-0.079,59.848c0,3.126-2.215,6.962-4.922,8.525l-57.977,33.386
				C334.427,281.331,332.213,280.052,332.213,276.927z"/>
			<path id="XMLID_737_" style="fill:#455A64;" d="M318.366,221.647v47.285c0,0.102,0,0.216,0.012,0.318
				c0.136,3.046,2.262,6.649,4.865,8.184c0.011,0,0.034,0.011,0.046,0.023l4.001,2.308c0.125,0.079,0.25,0.148,0.375,0.193
				c0.068,0.045,0.136,0.068,0.204,0.102c0.023,0.011,0.046,0.011,0.057,0.023c0.137,0.057,0.273,0.114,0.398,0.148
				c2.159,0.852,4.978,0.921,7.241,0.204c0.296-0.091,0.58-0.193,0.852-0.318c-2.364,0.978-4.194-0.352-4.206-3.183c0,0,0,0,0-0.011
				v-47.274c0-3.126,2.216-6.968,4.922-8.525l8.934-5.16l36.695-21.178c2.161-1.247,2.161-4.365,0.001-5.613l-4.074-2.353
				c-2.705-1.557-7.138-1.557-9.844,0l-36.634,21.153l-8.923,5.149C320.571,214.691,318.366,218.521,318.366,221.647z"/>
			<path id="XMLID_736_" style="fill:#37474F;" d="M332.211,229.649v47.274c0,0.011,0,0.011,0,0.011
				c0.011,2.83,1.841,4.16,4.206,3.183c-0.273,0.125-0.557,0.227-0.852,0.318c-2.262,0.716-5.081,0.648-7.241-0.204
				c-0.125-0.034-0.262-0.091-0.398-0.148c-0.011-0.011-0.034-0.011-0.057-0.023c-0.068-0.034-0.136-0.057-0.204-0.102
				c-0.125-0.046-0.25-0.114-0.375-0.193l-4.001-2.308c-0.011-0.011-0.034-0.023-0.046-0.023c-2.603-1.534-4.728-5.138-4.865-8.184
				c-0.012-0.102-0.012-0.216-0.012-0.318v-47.285c0-1.563,0.551-3.301,1.441-4.845l13.85,7.996
				C332.765,226.344,332.211,228.086,332.211,229.649z"/>
		</g>
		<g id="Arm">
			<path style="fill:#B16668;" d="M372.867,175.955c-1.331-10.419-2.439-15.831-3.811-22.828
				c-3.181-16.22-2.432-20.88-14.168-23.925c0,0-4.25,3.739-4.424,13.333c-0.132,7.257,1.974,11.243,1.974,11.243l4.979,23.957
				c-4.323,4.057-15.424,12.721-18.134,14.157c-3.654,1.936-7.7,2.689-11.603,4.035c-2.586,0.892-5.022,2.012-7.544,3.057
				c-0.135,0.056-0.272,0.114-0.379,0.213c-0.218,0.204-0.257,0.551-0.153,0.83c0.105,0.28,0.328,0.499,0.573,0.67
				c1.315,0.919,2.665,0.932,4.207,0.574c1.186-0.275,2.204-0.905,3.617-0.867c0.272,0.007,0.56,0.084,0.447,0.426
				c-0.034,0.103-0.236,0.455-0.423,0.635c-1.023,0.985-2.582,1.493-3.941,1.903c-1.359,0.409-2.785,0.563-4.204,0.598
				c-1.143,0.027-2.3-0.02-3.415,0.23c-0.367,0.082-0.736,0.201-1.032,0.432c-1.553,1.214,0.907,2.145,1.409,2.997
				c0.263,0.445,0.719,1.225,1.034,1.635c0.29,0.378,0.774,0.535,1.194,0.759c0.583,0.312,1.068,0.779,1.609,1.158
				c1.25,0.876,2.942,1.147,4.434,1.15c1.321,0.003,2.633-0.202,3.938-0.406c2.728-0.427,5.424-1.276,7.654-2.958
				c0.944-0.711,1.779-1.551,2.595-2.403c0.704-0.735,1.395-1.483,2.14-2.178c0.709-0.662,3.28-2.596,3.859-2.933
				c1.949-1.135,13.135-6.425,24.344-14.238C374.556,183.788,373.456,180.565,372.867,175.955z"/>
			<path style="fill:#FAFAFA;" d="M354.508,128.037c8.307,2.699,10.573,6.211,11.366,8.871c1.142,3.832,2.041,8.2,3.372,14.677
				c1.989,9.672,2.363,13.503,2.363,13.503s-4.581,3.712-16.484,3.562l-3.982-15.737
				C351.145,152.913,345.343,139.096,354.508,128.037z"/>
		</g>
	</g>
</g>
<g id="Side_Table">
	<g id="Side_Table_1_">
		<g id="Side_table_1_">
			<g>
				<g>
					<polygon id="XMLID_1291_" style="fill:#27DEBF;" points="366.636,284.719 373.007,281.04 366.636,279.2 					"/>
					<polygon id="XMLID_859_" style="opacity:0.6;fill:#FFFFFF;" points="366.636,284.719 373.007,281.04 366.636,279.2 					"/>
					<polygon id="XMLID_858_" style="opacity:0.05;" points="366.636,284.719 373.007,281.04 366.636,279.2 					"/>
				</g>
				<g>
					<polygon id="XMLID_857_" style="fill:#27DEBF;" points="366.636,284.719 363.449,282.879 363.449,277.361 366.636,279.2 					
						"/>
					<polygon id="XMLID_855_" style="opacity:0.75;fill:#FFFFFF;" points="366.636,284.719 363.449,282.879 363.449,277.361 
						366.636,279.2 					"/>
				</g>
			</g>
			<g>
				<g>
					<polygon id="XMLID_853_" style="fill:#27DEBF;" points="398.555,297.63 398.555,303.497 444.662,276.889 444.662,271.023 					
						"/>
					<polygon id="XMLID_851_" style="opacity:0.6;fill:#FFFFFF;" points="398.555,297.63 398.555,303.497 444.662,276.889 
						444.662,271.023 					"/>
					<polygon id="XMLID_850_" style="opacity:0.1;" points="398.555,297.63 398.555,303.497 444.662,276.889 444.662,271.023 					
						"/>
				</g>
				<g>
					<polygon id="XMLID_848_" style="fill:#27DEBF;" points="398.555,303.497 395.368,301.657 395.368,295.791 398.555,297.63 					
						"/>
					<polygon id="XMLID_1397_" style="opacity:0.75;fill:#FFFFFF;" points="398.555,303.497 395.368,301.657 395.368,295.791 
						398.555,297.63 					"/>
				</g>
			</g>
			<g>
				<polygon id="XMLID_847_" style="fill:#27DEBF;" points="447.849,225.033 401.741,251.64 401.74,299.47 447.849,272.863 				"/>
				<polygon id="XMLID_846_" style="opacity:0.6;fill:#FFFFFF;" points="447.849,225.033 401.741,251.64 401.74,299.47 
					447.849,272.863 				"/>
			</g>
			<g>
				<polygon id="XMLID_845_" style="fill:#27DEBF;" points="401.741,251.64 360.263,227.691 360.263,275.521 401.74,299.47 				"/>
				<polygon id="XMLID_844_" style="opacity:0.75;fill:#FFFFFF;" points="401.741,251.64 360.263,227.691 360.263,275.521 
					401.74,299.47 				"/>
			</g>
			<g>
				<polygon id="XMLID_843_" style="fill:#27DEBF;" points="360.263,227.691 406.371,201.084 447.849,225.033 401.741,251.64 				
					"/>
				<polygon id="XMLID_842_" style="opacity:0.85;fill:#FFFFFF;" points="360.263,227.691 406.371,201.084 447.849,225.033 
					401.741,251.64 				"/>
			</g>
			<g>
				<polygon id="XMLID_841_" style="fill:#27DEBF;" points="398.555,268.197 363.448,247.926 363.448,273.681 398.555,293.952 				
					"/>
				<polygon id="XMLID_840_" style="opacity:0.7;fill:#FFFFFF;" points="398.555,268.197 363.448,247.926 363.448,273.681 
					398.555,293.952 				"/>
				<polygon id="XMLID_839_" style="opacity:0.1;" points="363.448,273.681 385.602,260.717 398.555,268.197 398.555,293.952 				
					"/>
				<polygon style="opacity:0.05;" points="363.448,273.681 385.602,260.717 363.448,247.926 				"/>
			</g>
			<g>
				<polygon id="XMLID_838_" style="fill:#27DEBF;" points="398.555,253.479 363.448,233.21 363.448,244.247 398.555,264.517 				
					"/>
				<polygon id="XMLID_837_" style="opacity:0.85;fill:#FFFFFF;" points="398.555,253.479 363.448,233.21 363.448,244.247 
					398.555,264.517 				"/>
				<path id="XMLID_836_" style="fill:#455A64;" d="M387.675,249.522c0,0.508-1.52,0.042-3.396-1.041l-5.952-3.436
					c-1.876-1.083-3.397-2.373-3.397-2.881l0-0.92l12.745,7.358C387.674,248.602,387.674,249.014,387.675,249.522z"/>
			</g>
		</g>
		<g id="Shadow_23_" style="opacity:0.1;">
			<path id="Shadow_25_" d="M424.825,231.29c3.297,0,6.374-0.839,8.663-2.362c2.022-1.343,3.136-3.022,3.136-4.729
				c0-1.707-1.113-3.386-3.136-4.729c-2.289-1.522-5.366-2.362-8.663-2.362c-3.298,0-6.375,0.839-8.663,2.362
				c-2.022,1.343-3.136,3.022-3.136,4.729c0,1.707,1.113,3.386,3.136,4.729C418.451,230.451,421.528,231.29,424.825,231.29z"/>
		</g>
		<g id="Lamp_3_">
			<g id="XMLID_5842_">
				<path id="XMLID_5868_" style="fill:#37474F;" d="M417.081,223.635c-0.005-0.205,0.016-0.411,0.059-0.615
					c0.368-2.302,2.357-4.789,3.744-5.581h7.822c1.387,0.792,3.375,3.278,3.743,5.579c0.044,0.205,0.065,0.411,0.06,0.617
					c0.001,0.035-0.009,0.104-0.009,0.104c-0.072,1.082-0.816,2.152-2.247,2.978c-3.015,1.741-7.903,1.741-10.917,0
					c-1.431-0.826-2.174-1.896-2.247-2.978C417.089,223.739,417.08,223.669,417.081,223.635z"/>
				<path id="XMLID_5854_" style="fill:#455A64;" d="M428.505,217.314c2.049,1.183,2.049,3.101,0,4.284
					c-2.049,1.183-5.371,1.183-7.42,0c-2.049-1.183-2.049-3.101,0-4.284C423.134,216.131,426.456,216.131,428.505,217.314z"/>
			</g>
			<path id="XMLID_5852_" style="fill:#263238;" d="M423.728,191.207h2.133v27.429h-0.009c0.026,0.175-0.072,0.354-0.303,0.488
				c-0.417,0.241-1.092,0.241-1.508,0c-0.231-0.133-0.329-0.313-0.303-0.488h-0.009V191.207z"/>
			<path id="XMLID_1340_" style="fill:#27DEBF;" d="M409.062,187.103h-0.007l7.411-18.895h16.659l7.411,18.895h-0.009
				c1.055,2.955-0.395,6.15-4.368,8.443c-6.277,3.624-16.454,3.624-22.73,0C409.457,193.253,408.007,190.058,409.062,187.103z"/>
			<g>
				<path id="XMLID_835_" style="fill:#27DEBF;" d="M430.822,172.733c-3.329,1.922-8.726,1.922-12.055,0
					c-3.329-1.922-3.329-5.038,0-6.96c3.329-1.922,8.726-1.922,12.055,0C434.151,167.695,434.151,170.811,430.822,172.733z"/>
				<path id="XMLID_834_" style="opacity:0.3;fill:#FFFFFF;" d="M430.822,172.733c-3.329,1.922-8.726,1.922-12.055,0
					c-3.329-1.922-3.329-5.038,0-6.96c3.329-1.922,8.726-1.922,12.055,0C434.151,167.695,434.151,170.811,430.822,172.733z"/>
			</g>
			<g>
				<path id="XMLID_833_" style="fill:#27DEBF;" d="M424.795,173.185c2.106,0,4.071-0.466,5.532-1.31
					c1.292-0.745,2.003-1.676,2.003-2.623c0-0.947-0.711-1.878-2.003-2.623c-1.462-0.844-3.427-1.31-5.532-1.31
					c-2.106,0-4.071,0.466-5.532,1.31c-1.292,0.745-2.003,1.676-2.003,2.623c0,0.947,0.711,1.878,2.003,2.623
					C420.724,172.72,422.689,173.185,424.795,173.185z"/>
				<path id="XMLID_832_" style="opacity:0.15;" d="M424.795,173.185c2.106,0,4.071-0.466,5.532-1.31
					c1.292-0.745,2.003-1.676,2.003-2.623c0-0.947-0.711-1.878-2.003-2.623c-1.462-0.844-3.427-1.31-5.532-1.31
					c-2.106,0-4.071,0.466-5.532,1.31c-1.292,0.745-2.003,1.676-2.003,2.623c0,0.947,0.711,1.878,2.003,2.623
					C420.724,172.72,422.689,173.185,424.795,173.185z"/>
			</g>
		</g>
	</g>
</g>
<g id="Icons">
	<g id="Call_Icon_1_">
		<g id="Box">
			<path style="fill:#455A64;" d="M450.494,100.66l-31.362-18.109c-0.725-0.419-1.381-0.454-1.852-0.173
				c-0.461,0.275-3.573,2.065-4.043,2.334c-0.473,0.27-0.766,0.854-0.766,1.685l0,45.591c0,1.657,1.163,3.672,2.598,4.5
				l31.362,18.109c0.724,0.418,1.379,0.454,1.85,0.174c0.462-0.275,3.579-2.066,4.049-2.338c0.47-0.271,0.761-0.854,0.761-1.682
				v-45.59C453.092,103.503,451.929,101.488,450.494,100.66z"/>
			<path style="fill:#263238;" d="M453.091,105.162v45.585c0,0.83-0.29,1.41-0.76,1.69c-0.44,0.25-3.21,1.84-3.93,2.26
				c0.4-0.3,0.63-0.85,0.63-1.6v-45.595c0-0.82-0.29-1.74-0.76-2.56l4.06-2.34C452.801,103.412,453.091,104.332,453.091,105.162z"/>
			<path style="fill:#455A64;" d="M415.07,136.487l31.362,18.109c1.435,0.828,2.598,0.157,2.598-1.5v-45.59
				c0-1.657-1.163-3.672-2.598-4.5L415.07,84.897c-1.435-0.828-2.598-0.157-2.598,1.5l0,45.59
				C412.472,133.644,413.635,135.659,415.07,136.487z"/>
			<path style="fill:#37474F;" d="M452.331,102.602l-4.06,2.34c-0.47-0.81-1.12-1.52-1.84-1.94l-31.358-18.106
				c-0.66-0.38-1.26-0.45-1.72-0.25c0.73-0.42,3.5-2.01,3.93-2.27c0.47-0.28,1.12-0.24,1.85,0.18l31.357,18.106
				C451.211,101.072,451.861,101.782,452.331,102.602z"/>
		</g>
		<g id="Call_Icon">
			<g id="g4780">
				<g id="g15" transform="matrix(1.452588,0,0,1.452588,-115.17955,-97.147891)">
					<path id="path17-6" style="fill:#FAFAFA;" d="M381.746,157.892c-0.475-0.864-0.984-1.687-1.484-2.516
						c-0.998-1.655-1.91-2.266-2.655-0.96c-0.418,0.733-1.637,0.792-2.249,0.011c-1.687-2.152-2.99-4.718-3.753-7.799
						c-0.337-1.363,0.301-2.761,1.09-3.131c0.418-0.195,0.839-0.469,0.806-1.443c-0.044-1.27-2.007-6.563-2.782-7.449
						c-0.321-0.367-0.64-0.54-0.966-0.559c-1.818-0.108-3.992,2.148-3.271,5.29c2.151,9.372,3.928,14.299,9.921,22.126
						c2.556,3.364,5.834,1.514,6.419,0.199C383.208,160.203,382.392,159.065,381.746,157.892L381.746,157.892z"/>
					<path id="path19-1" style="fill:#FAFAFA;" d="M377.029,137.636c3.809,3.101,5.566,6.905,6.051,13.092
						c0.045,0.571-0.087,1.316,0.418,1.624c0.528,0.321,0.401-0.562,0.406-1.105c-0.09-6.347-2.665-12.223-6.765-14.817
						c-0.248-0.148-0.847-0.782-0.883,0.15C376.232,137.207,376.714,137.379,377.029,137.636L377.029,137.636z"/>
					<path id="path21-2" style="fill:#FAFAFA;" d="M377.221,139.991c-0.367-0.279-0.85-0.825-0.936-0.091
						c-0.089,0.77,0.45,0.998,0.796,1.317c2.353,2.168,3.172,3.959,3.559,7.776c0.057,0.556-0.056,1.307,0.522,1.505
						c0.428,0.147,0.274-0.641,0.31-1.029C381.492,146.031,379.572,141.783,377.221,139.991L377.221,139.991z"/>
					<path id="path23" style="fill:#FAFAFA;" d="M376.865,143.107c-0.245-0.132-0.485-0.23-0.574,0.121
						c-0.135,0.523,0.149,0.831,0.438,1.069c0.965,0.796,1.473,1.965,1.57,3.503c0.026,0.417,0.192,0.839,0.444,0.939
						c0.35,0.138,0.381-0.323,0.371-0.785C379.13,146.299,377.908,143.669,376.865,143.107L376.865,143.107z"/>
				</g>
			</g>
		</g>
	</g>
	<g id="Gears_1_">
		<g id="XMLID_4018_">
			<path style="fill:#27DEBF;" d="M452.064,81.28l-1.795-4.051c-0.128-0.287-0.541-0.636-0.885-0.748
				c-0.453-0.148-0.916-0.336-1.378-0.559c-0.089-0.045-0.177-0.052-0.249-0.022c-0.063,0.025-0.11,0.078-0.14,0.156l-0.901,2.404
				c-0.138,0.367-0.409,0.625-0.745,0.707c-0.338,0.084-0.696-0.021-0.988-0.283l-3.104-2.791c-0.475-0.427-0.771-1.226-0.689-1.859
				l0.401-3.104c0.045-0.339-0.105-0.895-0.318-1.188c-0.496-0.68-0.973-1.404-1.414-2.153c-0.158-0.268-0.574-0.517-0.872-0.522
				l-2.112-0.036c-0.684-0.011-1.377-0.503-1.614-1.145l-1.685-4.568c-0.126-0.341-0.11-0.708,0.044-1.036
				c0.153-0.327,0.427-0.573,0.77-0.693l1.749-0.613c0.219-0.077,0.377-0.353,0.338-0.592c-0.117-0.741-0.195-1.479-0.23-2.195
				c-0.017-0.374-0.241-0.92-0.479-1.169l-2.724-2.86c-0.446-0.467-0.667-1.291-0.516-1.917l0.754-3.128
				c0.093-0.385,0.332-0.672,0.656-0.788c0.325-0.116,0.693-0.046,1.009,0.193l2.772,2.1c0.18,0.136,0.385,0.042,0.501-0.102
				c0.205-0.255,0.428-0.494,0.662-0.708c0.232-0.214,0.366-0.606,0.292-0.857l-1.214-4.097c-0.105-0.353-0.057-0.727,0.132-1.025
				c0.188-0.299,0.506-0.502,0.871-0.56l2.218-0.344c0.686-0.107,1.444,0.308,1.727,0.943l1.796,4.052
				c0.126,0.286,0.538,0.635,0.882,0.747c0.455,0.148,0.919,0.336,1.379,0.559c0.088,0.043,0.179,0.052,0.249,0.022
				c0.063-0.025,0.11-0.078,0.14-0.156l0.901-2.404c0.138-0.367,0.41-0.625,0.746-0.707c0.336-0.08,0.696,0.021,0.987,0.284
				l3.104,2.791c0.477,0.427,0.772,1.227,0.69,1.86l-0.401,3.103c-0.044,0.34,0.105,0.896,0.319,1.189
				c0.494,0.677,0.97,1.401,1.414,2.154c0.158,0.268,0.573,0.516,0.872,0.521l2.112,0.036c0.685,0.011,1.378,0.504,1.613,1.145
				l1.687,4.569c0.125,0.341,0.109,0.708-0.045,1.035c-0.154,0.327-0.428,0.573-0.77,0.692l-1.748,0.613
				c-0.219,0.077-0.377,0.353-0.339,0.592c0.119,0.749,0.196,1.487,0.23,2.194c0.019,0.375,0.242,0.921,0.479,1.17l2.726,2.86
				c0.444,0.467,0.665,1.29,0.515,1.916l-0.755,3.129c-0.093,0.385-0.332,0.672-0.656,0.788c-0.322,0.116-0.691,0.045-1.008-0.193
				l-2.773-2.1c-0.182-0.135-0.386-0.041-0.501,0.101c-0.204,0.254-0.426,0.492-0.661,0.709c-0.232,0.214-0.367,0.606-0.293,0.856
				l1.214,4.097c0.105,0.353,0.058,0.727-0.131,1.025c-0.189,0.299-0.507,0.502-0.872,0.559l-2.217,0.344
				c-0.072,0.011-0.146,0.017-0.22,0.017C452.949,82.239,452.316,81.848,452.064,81.28z M457.845,73.746l2.773,2.1
				c0.042,0.032,0.07,0.043,0.077,0.05c0.009-0.012,0.024-0.04,0.036-0.09l0.755-3.129c0.073-0.302-0.057-0.782-0.271-1.007
				l-2.726-2.86c-0.397-0.417-0.72-1.19-0.749-1.801c-0.032-0.671-0.105-1.374-0.22-2.088c-0.111-0.706,0.321-1.442,0.985-1.675
				l1.749-0.613c0.091-0.032,0.164-0.097,0.205-0.184c0.04-0.086,0.044-0.184,0.011-0.275l-1.686-4.57
				c-0.095-0.257-0.431-0.496-0.706-0.5l-2.111-0.036c-0.641-0.011-1.373-0.443-1.704-1.005c-0.428-0.725-0.886-1.423-1.361-2.074
				c-0.36-0.494-0.576-1.309-0.501-1.895l0.401-3.104c0.041-0.313-0.136-0.79-0.371-1.001l-3.104-2.792
				c-0.053-0.048-0.09-0.059-0.093-0.06c-0.008,0.004-0.036,0.031-0.061,0.098l-0.901,2.403c-0.127,0.339-0.374,0.596-0.695,0.725
				c-0.33,0.133-0.702,0.115-1.044-0.051c-0.42-0.203-0.843-0.374-1.255-0.509c-0.528-0.172-1.205-0.668-1.478-1.284l-1.796-4.051
				c-0.102-0.232-0.427-0.41-0.676-0.369l-2.217,0.344c-0.087,0.013-0.152,0.052-0.191,0.113c-0.037,0.06-0.044,0.136-0.02,0.22
				l1.214,4.097c0.181,0.608-0.059,1.391-0.569,1.861c-0.198,0.182-0.387,0.384-0.561,0.601c-0.478,0.594-1.28,0.711-1.862,0.27
				l-2.773-2.1c-0.042-0.032-0.071-0.043-0.078-0.05c-0.009,0.012-0.023,0.039-0.036,0.09l-0.754,3.129v0.001
				c-0.073,0.301,0.056,0.781,0.271,1.006l2.724,2.86c0.399,0.417,0.722,1.192,0.75,1.801c0.033,0.68,0.107,1.382,0.22,2.087
				c0.112,0.706-0.319,1.442-0.984,1.676l-1.75,0.613c-0.091,0.032-0.164,0.097-0.204,0.184c-0.041,0.086-0.045,0.184-0.011,0.275
				l1.685,4.569c0.095,0.258,0.432,0.497,0.707,0.501l2.111,0.036c0.639,0.011,1.371,0.443,1.704,1.006
				c0.426,0.722,0.884,1.42,1.361,2.074c0.361,0.495,0.576,1.31,0.5,1.895l-0.401,3.103c-0.04,0.313,0.137,0.791,0.371,1.002
				l3.104,2.791c0.053,0.048,0.091,0.059,0.093,0.061c0.008-0.004,0.036-0.031,0.061-0.098l0.901-2.403
				c0.127-0.339,0.374-0.596,0.696-0.725c0.333-0.133,0.704-0.113,1.043,0.05c0.421,0.204,0.844,0.374,1.255,0.509
				c0.527,0.171,1.204,0.667,1.479,1.284l1.796,4.052c0.103,0.233,0.427,0.41,0.676,0.369l2.217-0.344
				c0.086-0.013,0.152-0.052,0.19-0.112c0.037-0.06,0.045-0.136,0.02-0.22l-1.214-4.098c-0.18-0.609,0.06-1.391,0.569-1.86
				c0.197-0.182,0.385-0.382,0.561-0.602c0.283-0.352,0.68-0.536,1.076-0.536C457.333,73.479,457.608,73.566,457.845,73.746z
				 M445.546,68.715L445.546,68.715c-3.479-3.129-5.558-8.796-4.633-12.633c0.42-1.74,1.409-2.934,2.786-3.361
				c1.699-0.527,3.783,0.171,5.723,1.915c3.48,3.128,5.559,8.796,4.634,12.633c-0.42,1.74-1.409,2.934-2.786,3.361
				c-0.371,0.115-0.761,0.172-1.163,0.172C448.667,70.801,447.062,70.077,445.546,68.715z M443.991,53.66
				c-1.047,0.325-1.78,1.242-2.12,2.651c-0.85,3.523,1.095,8.759,4.334,11.671c1.676,1.506,3.414,2.126,4.774,1.706
				c1.047-0.325,1.78-1.242,2.12-2.651c0.85-3.523-1.095-8.758-4.335-11.671c-1.331-1.197-2.703-1.836-3.893-1.836
				C444.565,53.531,444.27,53.574,443.991,53.66z"/>
		</g>
		<g id="XMLID_4042_">
			<path style="fill:#27DEBF;" d="M423.805,71.026l-1.29-2.907c-0.081-0.183-0.357-0.417-0.581-0.489
				c-0.332-0.109-0.668-0.245-1-0.406c-0.039-0.019-0.079-0.028-0.164,0.051l-0.646,1.723c-0.109,0.29-0.324,0.494-0.593,0.56
				c-0.267,0.063-0.554-0.015-0.786-0.222l-2.226-2.002c-0.359-0.323-0.583-0.929-0.521-1.407l0.288-2.225
				c0.029-0.222-0.074-0.6-0.214-0.793c-0.359-0.494-0.703-1.015-1.018-1.551c-0.099-0.168-0.369-0.331-0.556-0.334l-1.515-0.026
				c-0.523-0.009-1.054-0.386-1.233-0.875l-1.21-3.277c-0.098-0.265-0.086-0.552,0.034-0.806c0.119-0.255,0.333-0.448,0.601-0.542
				l1.254-0.44c0.119-0.042,0.209-0.2,0.187-0.333c-0.084-0.539-0.141-1.071-0.165-1.584c-0.012-0.247-0.164-0.621-0.321-0.784
				l-1.954-2.052c-0.337-0.354-0.504-0.978-0.389-1.452l0.54-2.244c0.072-0.304,0.264-0.532,0.525-0.625
				c0.259-0.091,0.551-0.038,0.801,0.151l1.989,1.506c0.098,0.072,0.198-0.003,0.244-0.059c0.151-0.189,0.312-0.361,0.483-0.518
				c0.143-0.132,0.23-0.379,0.186-0.529l-0.871-2.939c-0.082-0.277-0.044-0.57,0.104-0.804c0.148-0.234,0.397-0.395,0.682-0.44
				l1.591-0.247c0.542-0.085,1.113,0.237,1.327,0.726l1.29,2.907c0.081,0.183,0.358,0.417,0.581,0.49
				c0.328,0.107,0.662,0.242,1,0.405c0.04,0.021,0.081,0.025,0.164-0.05l0.646-1.724c0.109-0.29,0.325-0.494,0.593-0.56
				c0.274-0.066,0.554,0.016,0.785,0.223l2.227,2.002c0.359,0.323,0.583,0.927,0.521,1.407l-0.288,2.226
				c-0.029,0.222,0.074,0.6,0.214,0.793c0.359,0.493,0.703,1.015,1.018,1.551c0.099,0.168,0.369,0.33,0.556,0.334l1.515,0.025
				c0.522,0.009,1.052,0.385,1.234,0.875l1.211,3.278c0.097,0.266,0.084,0.553-0.036,0.808c-0.12,0.254-0.334,0.446-0.6,0.538
				l-1.254,0.44c-0.119,0.042-0.209,0.2-0.189,0.332c0.086,0.538,0.143,1.072,0.166,1.583c0.013,0.248,0.165,0.622,0.322,0.786
				l1.953,2.051c0.338,0.354,0.505,0.978,0.391,1.452l-0.542,2.245c-0.074,0.304-0.264,0.531-0.525,0.624
				c-0.256,0.091-0.551,0.038-0.801-0.151l-1.989-1.506c-0.094-0.074-0.199,0.003-0.244,0.058c-0.151,0.189-0.312,0.361-0.483,0.518
				c-0.143,0.132-0.23,0.379-0.186,0.529l0.871,2.939c0.082,0.277,0.044,0.57-0.104,0.805c-0.149,0.234-0.398,0.394-0.683,0.438
				l-1.59,0.247c-0.056,0.008-0.112,0.013-0.168,0.013C424.484,71.763,423.997,71.462,423.805,71.026z M428.078,65.52l1.939,1.525
				l0.542-2.245c0.045-0.186-0.042-0.505-0.175-0.644l-1.954-2.052c-0.302-0.317-0.537-0.883-0.561-1.346
				c-0.022-0.48-0.075-0.981-0.157-1.488c-0.085-0.545,0.249-1.114,0.762-1.294l1.255-0.44c0.057-0.02,0.084-0.059,0.098-0.088
				c0.012-0.024,0.028-0.074,0.006-0.133l-1.21-3.277c-0.057-0.151-0.269-0.302-0.43-0.305l-1.515-0.025
				c-0.485-0.009-1.04-0.336-1.293-0.763c-0.302-0.512-0.628-1.01-0.971-1.48c-0.27-0.37-0.431-0.98-0.374-1.42l0.288-2.226
				c0.025-0.194-0.094-0.514-0.24-0.646l-2.203-2.008l-0.646,1.724c-0.099,0.265-0.293,0.466-0.546,0.568
				c-0.262,0.104-0.552,0.091-0.817-0.038c-0.301-0.146-0.598-0.266-0.89-0.361c-0.397-0.13-0.905-0.504-1.109-0.967l-1.29-2.907
				c-0.056-0.13-0.239-0.239-0.395-0.215l-1.591,0.247l-0.067-0.432l-0.016,0.563l0.871,2.939c0.138,0.466-0.044,1.063-0.433,1.421
				c-0.138,0.127-0.27,0.268-0.393,0.422c-0.373,0.462-0.996,0.552-1.451,0.207l-1.939-1.524l-0.54,2.244v0.001
				c-0.046,0.185,0.04,0.504,0.174,0.644l1.953,2.051c0.298,0.313,0.539,0.891,0.561,1.345c0.023,0.48,0.076,0.981,0.156,1.487
				c0.088,0.546-0.245,1.114-0.76,1.295l-1.254,0.44c-0.061,0.021-0.089,0.065-0.1,0.089c-0.014,0.029-0.026,0.076-0.005,0.132
				l1.211,3.278c0.054,0.151,0.268,0.301,0.429,0.304l1.514,0.026c0.485,0.007,1.042,0.335,1.294,0.763
				c0.302,0.511,0.628,1.01,0.971,1.48c0.27,0.369,0.431,0.98,0.374,1.419l-0.288,2.225c-0.024,0.195,0.094,0.514,0.24,0.646
				l2.202,2.007l0.646-1.723c0.099-0.265,0.293-0.467,0.546-0.568c0.262-0.105,0.551-0.091,0.818,0.038
				c0.3,0.146,0.597,0.266,0.889,0.361c0.397,0.129,0.905,0.503,1.109,0.967l1.29,2.907c0.056,0.13,0.242,0.235,0.394,0.215
				l1.59-0.247l0.084-0.132L425.8,67.57c-0.137-0.466,0.044-1.063,0.433-1.42c0.139-0.128,0.27-0.268,0.393-0.422
				c0.22-0.273,0.528-0.416,0.837-0.416C427.678,65.312,427.892,65.38,428.078,65.52z M419.149,62.041L419.149,62.041
				c-2.516-2.262-4.018-6.364-3.348-9.144c0.308-1.278,1.037-2.155,2.054-2.471c1.247-0.388,2.773,0.121,4.186,1.392
				c2.517,2.261,4.019,6.363,3.349,9.143c-0.308,1.278-1.037,2.156-2.055,2.471c-0.274,0.085-0.562,0.127-0.859,0.127
				C421.423,63.559,420.252,63.033,419.149,62.041z M418.115,51.261c-0.722,0.224-1.228,0.86-1.465,1.841
				c-0.602,2.501,0.781,6.219,3.083,8.29l0,0c1.178,1.06,2.399,1.501,3.343,1.207c0.722-0.224,1.228-0.861,1.465-1.842
				c0.603-2.501-0.78-6.219-3.084-8.289c-0.939-0.845-1.903-1.296-2.735-1.296C418.51,51.172,418.307,51.201,418.115,51.261z"/>
		</g>
	</g>
	<g id="Wrench">
		<path style="fill:#27DEBF;" d="M396.038,122.579c-0.705,0-1.454-0.222-2.201-0.662c-0.091-0.054-0.181-0.11-0.27-0.169
			c-0.307-0.201-0.406-0.64-0.226-0.999l2.5-5.022l-1.28-4.214l-2.292-1.351l-2.272,4.559c-0.093,0.182-0.268,0.286-0.468,0.262
			c-0.446-0.048-0.789-0.758-0.9-1.195c-0.356-1.39-0.534-2.762-0.527-4.076c0.017-3.368,1.247-5.694,3.237-6.179V78.56
			c-1.986-2.627-3.255-6.483-3.237-9.867c0.014-2.853,0.906-4.991,2.446-5.866c1.089-0.619,2.422-0.53,3.753,0.255
			c0.092,0.054,0.183,0.11,0.273,0.17c0.3,0.197,0.399,0.645,0.223,0.998l-2.499,5.022l1.28,4.214l2.291,1.35l2.272-4.556
			c0.092-0.183,0.268-0.286,0.468-0.262c0.447,0.048,0.791,0.76,0.902,1.198c0.356,1.391,0.533,2.76,0.526,4.071
			c-0.018,3.368-1.248,5.693-3.237,6.179v24.973c1.986,2.627,3.255,6.484,3.237,9.867c-0.014,2.853-0.905,4.991-2.446,5.866
			C397.113,122.444,396.589,122.579,396.038,122.579z M391.956,109.108l3.237,1.907l1.452,4.78l-2.634,5.29
			c0.045,0.089,0.125,0.139,0.206,0.187c1.105,0.65,2.145,0.737,3.003,0.249c1.281-0.729,2.054-2.679,2.066-5.218
			c0.017-3.271-1.224-7.002-3.159-9.507l-0.078-0.101V80.83l0.323-0.045c1.755-0.244,2.898-2.403,2.914-5.502
			c0.007-1.247-0.163-2.553-0.503-3.881c-0.041-0.16-0.101-0.3-0.16-0.41l-2.443,4.899l-3.236-1.907l-1.452-4.78l2.633-5.29
			c-0.045-0.089-0.124-0.138-0.205-0.186c-1.106-0.652-2.146-0.739-3.002-0.25c-1.282,0.728-2.055,2.679-2.067,5.218
			c-0.017,3.271,1.224,7.003,3.159,9.506l0.078,0.102v25.865l-0.323,0.045c-1.755,0.243-2.899,2.403-2.914,5.501l0,0
			c-0.007,1.25,0.163,2.558,0.504,3.886c0.04,0.158,0.1,0.297,0.158,0.406L391.956,109.108z"/>
	</g>
</g>
<g id="Speech_Bubbles">
	<g id="Speech_Bubble_5_">
		<g id="Speech_Bubble_10_">
			<g>
				<path id="XMLID_755_" style="fill:#27DEBF;" d="M254.053,48.647l36.558,21.106c0.406,0.234,0.735,0.804,0.735,1.273l0,25.606
					c0,0.469-0.331,1.034-0.739,1.264l-2.632,1.514c-0.408,0.23-1.068,0.227-1.474-0.007l-36.558-21.106
					c-0.406-0.234-0.735-0.804-0.735-1.273V51.381c0-0.469,0.331-1.035,0.739-1.266l2.633-1.476
					C252.988,48.409,253.647,48.412,254.053,48.647z"/>
				<path id="XMLID_754_" style="fill:#27DEBF;" d="M287.236,98.979V73.335c0-0.469-0.329-1.038-0.735-1.273l-36.558-21.106
					c-0.406-0.234-0.735-0.044-0.735,0.424v25.643c0,0.469,0.329,1.038,0.735,1.273l36.558,21.106
					C286.907,99.637,287.236,99.448,287.236,98.979z"/>
				<path id="XMLID_553_" style="fill:#27DEBF;" d="M287.236,98.979V73.335c0-0.469-0.329-1.038-0.735-1.273l-36.558-21.106
					c-0.406-0.234-0.735-0.044-0.735,0.424v25.643c0,0.469,0.329,1.038,0.735,1.273l36.558,21.106
					C286.907,99.637,287.236,99.448,287.236,98.979z"/>
				<path id="XMLID_750_" style="opacity:0.2;" d="M286.501,99.403c0.391,0.227,1.106,0.235,1.475,0.009l2.631-1.516
					c0.407-0.227,0.739-0.796,0.739-1.264l0-25.607c0-0.244-0.092-0.512-0.234-0.75l-4.094,2.337
					c0.136,0.227,0.217,0.489,0.217,0.723v25.642C287.236,99.407,286.933,99.654,286.501,99.403z"/>
				<path id="XMLID_749_" style="opacity:0.4;fill:#FFFFFF;" d="M249.218,51.248c0.058-0.37,0.36-0.502,0.726-0.292l36.555,21.107
					c0.204,0.119,0.387,0.319,0.519,0.55l4.097-2.337c-0.133-0.221-0.309-0.411-0.506-0.523l-36.559-21.107
					c-0.404-0.234-1.062-0.238-1.473-0.007l-2.631,1.475C249.577,50.324,249.269,50.81,249.218,51.248z"/>
			</g>
			<g>
				<path id="XMLID_621_" style="fill:#27DEBF;" d="M293.36,89.683c0.462-0.275,3.917-2.22,4.029-2.285
					c0.34-0.207,0.462-0.709,0.146-1.049l-6.252-7.801l-4.046,2.3l6.249,7.804C293.79,88.979,293.669,89.459,293.36,89.683z"/>
				<path id="XMLID_617_" style="opacity:0.4;fill:#FFFFFF;" d="M293.36,89.683c0.462-0.275,3.917-2.22,4.029-2.285
					c0.34-0.207,0.462-0.709,0.146-1.049l-6.252-7.801l-4.046,2.3l6.249,7.804C293.79,88.979,293.669,89.459,293.36,89.683z"/>
				<path id="XMLID_616_" style="fill:#27DEBF;" d="M287.236,80.85l6.25,7.802c0.424,0.454,0.113,1.078-0.42,1.127l-5.83,0.632
					L287.236,80.85z"/>
			</g>
		</g>
		<g>
			<path id="XMLID_9137_" style="fill:#FAFAFA;" d="M278.447,77.017c0,0.977-0.716,1.348-1.598,0.827l-20.31-11.726
				c-0.882-0.521-1.598-1.736-1.598-2.713c0-0.978,0.715-1.347,1.598-0.826l20.31,11.726
				C277.732,74.825,278.447,76.039,278.447,77.017z"/>
			<path id="XMLID_9120_" style="fill:#FAFAFA;" d="M282.978,87.496c0,0.977-0.715,1.347-1.598,0.826l-24.841-14.336
				c-0.882-0.521-1.598-1.736-1.598-2.713c0-0.977,0.715-1.348,1.598-0.827l24.841,14.336
				C282.263,85.304,282.978,86.518,282.978,87.496z"/>
		</g>
	</g>
	<g id="Speech_Bubble_11_">
		<g id="Speech_Bubble_2_">
			<path id="XMLID_4854_" style="fill:#27DEBF;" d="M126.963,127.174l-3.927-7.385l3.16-9.121v-5.583l-9.67,5.583v5.583l4.158,7.201
				c0.07,0.122,0.171,0.201,0.282,0.251l-0.002,0.003L126.963,127.174z"/>
			<path id="XMLID_4853_" style="opacity:0.2;" d="M126.963,127.174l-3.927-7.385l3.16-9.121v-5.583l-9.67,5.583v5.583l4.158,7.201
				c0.07,0.122,0.171,0.201,0.282,0.251l-0.002,0.003L126.963,127.174z"/>
			<path id="XMLID_4852_" style="fill:#27DEBF;" d="M151.981,71.264c0-1.849-1.298-4.097-2.899-5.022l-2.361-1.363
				c-1.601-0.925-4.197-0.925-5.798,0L94.798,91.51c-1.601,0.925-2.899,3.173-2.899,5.022v28.279c0,1.849,1.299,4.097,2.899,5.022
				l2.361,1.363c1.601,0.924,4.198,0.924,5.799,0l19.64-11.428l4.149,7.187c0.265,0.46,0.948,0.394,1.121-0.107l4.385-12.658
				l16.83-9.624c1.601-0.924,2.899-3.173,2.899-5.022L151.981,71.264z"/>
			<path id="XMLID_4851_" style="opacity:0.2;" d="M91.898,124.811c0,1.849,1.298,4.097,2.899,5.022l2.361,1.363
				c1.447,0.836,3.7,0.908,5.303,0.234c-1.365,0.516-2.404-0.254-2.404-1.908l0-28.279c0-0.925,0.325-1.949,0.849-2.857
				l-8.159-4.711c-0.525,0.908-0.849,1.933-0.849,2.857V124.811z"/>
			<path id="XMLID_4850_" style="opacity:0.4;fill:#FFFFFF;" d="M151.887,70.44c-0.338-1.231-1.461-1.623-2.8-0.852l-46.132,26.635
				c-0.798,0.46-1.528,1.244-2.043,2.164l-8.156-4.707c0.527-0.92,1.244-1.704,2.042-2.164l46.118-26.635
				c1.609-0.92,4.206-0.92,5.803,0l2.367,1.366C150.453,67.032,151.603,68.79,151.887,70.44z"/>
		</g>
		<g id="XMLID_481_">
			<path id="XMLID_4835_" style="fill:#FAFAFA;" d="M111.838,104.118c-2.137,1.234-3.869,4.234-3.869,6.702
				c0,2.468,1.733,3.467,3.869,2.234c2.137-1.234,3.869-4.234,3.869-6.702C115.708,103.884,113.975,102.884,111.838,104.118z"/>
			<path id="XMLID_4834_" style="fill:#FAFAFA;" d="M126.104,95.865c-2.137,1.234-3.869,4.234-3.869,6.702
				c0,2.468,1.733,3.468,3.869,2.234c2.137-1.234,3.869-4.234,3.869-6.702C129.973,95.632,128.241,94.631,126.104,95.865z"/>
			<path id="XMLID_4833_" style="fill:#FAFAFA;" d="M140.369,87.612c-2.137,1.234-3.869,4.235-3.869,6.702
				c0,2.467,1.732,3.467,3.869,2.234c2.137-1.234,3.869-4.234,3.869-6.702C144.239,87.379,142.506,86.379,140.369,87.612z"/>
		</g>
	</g>
</g>
</svg>
