<?xml version="1.0" encoding="utf-8"?>
<!-- Generator: Adobe Illustrator 27.5.0, SVG Export Plug-In . SVG Version: 6.00 Build 0)  -->
<svg version="1.1" xmlns="http://www.w3.org/2000/svg" xmlns:xlink="http://www.w3.org/1999/xlink" x="0px" y="0px"
	 viewBox="0 0 500 500" style="enable-background:new 0 0 500 500;" xml:space="preserve">
<g id="Floor">
	<path id="Floor_22_" style="opacity:0.7;fill:#F0F0F0;" d="M99.667,433.115c82.502,44.749,216.264,44.751,298.764,0.001
		c82.502-44.751,82.502-117.304,0-162.054c-82.502-44.75-216.264-44.75-298.765-0.001C17.164,315.811,17.164,388.366,99.667,433.115
		z"/>
</g>
<g id="Shadow">
	<path id="Shadow_23_" style="fill:#E0E0E0;" d="M190.717,324.771c-22.271,10.616-58.378,10.616-80.648,0
		c-22.271-10.613-22.271-27.823,0-38.439c22.271-10.613,58.377-10.613,80.648,0C212.988,296.948,212.988,314.159,190.717,324.771z"
		/>
</g>
<g id="Plants">
	<g id="Plants_16_">
		<g id="Plants_18_">
			<g id="XMLID_3609_">
				<g id="XMLID_3614_">
					<path id="XMLID_3615_" style="fill:#27DEBF;" d="M78.723,303.783l6.41-3.662c0,0,3.074-16.942,0.775-31.505
						c-3.232-20.475-17.174-27.538-22.237-25.503c-5.063,2.035-6.253,8.101,2.891,19.932
						C71.956,270.025,78.896,284.78,78.723,303.783z"/>
				</g>
				<g id="XMLID_3612_" style="opacity:0.1;">
					<path id="XMLID_3613_" d="M78.723,303.783l6.41-3.662c0,0,3.074-16.942,0.775-31.505
						c-3.232-20.475-17.174-27.538-22.237-25.503c-5.063,2.035-6.253,8.101,2.891,19.932
						C71.956,270.025,78.896,284.78,78.723,303.783z"/>
				</g>
				<g id="XMLID_3610_">
					<path id="XMLID_3611_" style="fill:#FFFFFF;" d="M81.046,295.651c-0.021,0-0.042-0.002-0.063-0.004
						c-0.25-0.035-0.425-0.265-0.39-0.515c2.649-19.169-5.06-40.171-13.721-48.635c-0.18-0.176-0.184-0.466-0.007-0.646
						c0.177-0.178,0.466-0.184,0.646-0.007c8.819,8.618,16.676,29.962,13.987,49.413C81.466,295.485,81.27,295.651,81.046,295.651z"
						/>
				</g>
			</g>
			<g id="XMLID_3602_">
				<g id="XMLID_3607_">
					<path id="XMLID_3608_" style="fill:#27DEBF;" d="M60.939,314.056c-1.013,0.581-3.1-0.69-3.9-1.226
						c-1.369-0.918-2.478-2.219-3.214-3.69c-0.857-1.712-1.073-3.546-0.805-5.44c0.139-0.982,0.414-1.939,0.688-2.893
						c0.269-0.936,0.538-1.872,0.807-2.808c0.265-0.923,0.534-1.879,0.412-2.832c-0.246-1.92-1.95-3.266-3.5-4.426
						c-1.714-1.283-3.498-2.977-3.488-5.289c0.008-1.784,0.931-3.44,2.037-4.84c1.105-1.4,2.417-2.637,3.416-4.115
						c0.719-1.064,1.28-2.313,1.164-3.592c-0.073-0.794-0.402-1.543-0.782-2.244c-0.816-1.505-1.893-2.884-2.456-4.501
						c-0.563-1.617-0.483-3.628,0.779-4.785c1.036-0.95,2.576-1.083,3.978-0.99c1.297,0.086,2.565,0.671,3.7,1.302
						c3.67,2.041,5.765,6.388,9.66,7.958c1.502,0.606,3.148,0.738,4.714,1.152c1.566,0.414,3.162,1.214,3.888,2.662
						c1.43,2.855-1.224,6.375-0.218,9.406c0.889,2.682,3.496,3.709,4.96,6.126c0.64,1.057,0.788,2.28,0.685,3.512
						c-0.175,2.085-0.48,3.615-1.481,5.934c-0.827,1.916-3.257,5.345-3.257,5.345C78.662,303.843,61.094,313.967,60.939,314.056z"/>
				</g>
				<g id="XMLID_3605_">
					<path id="XMLID_3606_" style="fill:#FFFFFF;" d="M71.344,308.513c-0.006,0-0.013,0-0.013,0
						c-0.259-0.011-0.454-0.224-0.444-0.476c0.755-18.144-7.794-38.174-14.01-43.994c-0.184-0.172-0.194-0.461-0.021-0.646
						c0.173-0.184,0.461-0.193,0.646-0.021c6.341,5.936,15.065,26.3,14.299,44.699C71.79,308.321,71.588,308.513,71.344,308.513z"/>
				</g>
				<g id="XMLID_3603_">
					<path id="XMLID_3604_" style="fill:#FFFFFF;" d="M68.625,287.077c-0.045,0-0.09-0.006-0.135-0.021
						c-5.829-1.802-13.095-2.12-13.167-2.122c-0.253-0.011-0.448-0.224-0.438-0.476c0.011-0.252,0.202-0.451,0.476-0.438
						c0.074,0.004,7.455,0.326,13.399,2.164c0.241,0.074,0.377,0.33,0.302,0.571C69.001,286.951,68.821,287.077,68.625,287.077z"/>
				</g>
			</g>
		</g>
		<g id="Plants_17_">
			<g id="XMLID_3596_">
				<g id="XMLID_3599_">
					<path id="XMLID_3601_" style="fill:#27DEBF;" d="M391.775,396.106c3.442-7.496,15.994-20.535,28.242-26.697
						c12.249-6.162,27.747-7.663,35.071-0.702c6.821,6.483,1.07,16.697-11.978,19.223c-13.048,2.527-31.863,4.587-41.763,14.765
						l-15.909,10.76L391.775,396.106z"/>
					<path id="XMLID_3600_" style="opacity:0.1;" d="M391.775,396.106c3.442-7.496,15.994-20.535,28.242-26.697
						c12.249-6.162,27.747-7.663,35.071-0.702c6.821,6.483,1.07,16.697-11.978,19.223c-13.048,2.527-31.863,4.587-41.763,14.765
						l-15.909,10.76L391.775,396.106z"/>
				</g>
				<g id="XMLID_3597_">
					<path id="XMLID_3598_" style="fill:#FFFFFF;" d="M386.512,406.11c0.248,0.091,0.535,0.009,0.696-0.214
						c16.77-23.285,47.022-34.58,61.523-33.487c0.332,0.025,0.621-0.224,0.646-0.556c0.026-0.33-0.215-0.623-0.556-0.646
						c-14.777-1.115-45.568,10.346-62.591,33.984c-0.195,0.27-0.133,0.646,0.136,0.84
						C386.412,406.066,386.461,406.091,386.512,406.11z"/>
				</g>
			</g>
			<g id="XMLID_3591_">
				<g id="XMLID_3594_">
					<path id="XMLID_3595_" style="fill:#27DEBF;" d="M382.807,424.242c3.139-3.661,11.479-8.252,22.441-10.173
						c12.127-2.126,25.123,0.303,30.081-3.409c5.955-4.459,3.525-12.372-6.474-15.543c-9.998-3.171-32.557,2.1-44.139,20.311
						L382.807,424.242z"/>
				</g>
				<g id="XMLID_3592_">
					<path id="XMLID_3593_" style="fill:#FFFFFF;" d="M383.007,418.98c0.216,0.079,0.466,0.03,0.638-0.145
						c17.914-18.32,38.173-18.334,46.382-15.783c0.317,0.099,0.655-0.079,0.755-0.397c0.099-0.319-0.066-0.651-0.397-0.754
						c-9.078-2.822-29.318-2.608-47.603,16.091c-0.232,0.237-0.228,0.62,0.01,0.853C382.856,418.906,382.929,418.952,383.007,418.98
						z"/>
				</g>
			</g>
		</g>
	</g>
</g>
<g id="Line">
	<g id="Line_1_">
		<g id="Arrow">
			<polygon id="XMLID_3590_" style="fill:#27DEBF;" points="201.244,330.226 212.979,337.001 209.068,339.26 224.714,339.26 
				224.714,330.226 220.802,332.485 209.068,325.709 			"/>
		</g>
		<g id="Line_2_">
			<g id="XMLID_3574_">
				<path id="XMLID_3575_" style="fill:#27DEBF;" d="M231.544,344.166c-0.164,0-0.329-0.041-0.48-0.129l-2.919-1.685
					c-0.461-0.266-0.619-0.855-0.353-1.316c0.266-0.461,0.856-0.619,1.316-0.353l2.919,1.685c0.461,0.266,0.619,0.855,0.353,1.316
					C232.2,343.993,231.876,344.166,231.544,344.166z"/>
			</g>
			<g id="XMLID_3563_">
				<path id="XMLID_3564_" style="fill:#27DEBF;" d="M354.572,415.198c-0.164,0-0.329-0.041-0.48-0.129l-5.629-3.25
					c-0.461-0.266-0.619-0.855-0.353-1.316c0.266-0.461,0.856-0.62,1.316-0.353l5.629,3.25c0.461,0.266,0.619,0.855,0.353,1.316
					C355.229,415.026,354.905,415.198,354.572,415.198z M340.903,407.305c-0.164,0-0.329-0.041-0.481-0.129l-5.629-3.249
					c-0.461-0.266-0.619-0.855-0.353-1.316c0.266-0.461,0.855-0.62,1.316-0.353l5.629,3.249c0.461,0.266,0.619,0.855,0.353,1.316
					C341.559,407.132,341.236,407.305,340.903,407.305z M327.233,399.413c-0.164,0-0.329-0.041-0.48-0.129l-5.629-3.25
					c-0.461-0.266-0.619-0.855-0.353-1.316c0.266-0.461,0.856-0.618,1.316-0.353l5.629,3.25c0.461,0.266,0.619,0.855,0.353,1.316
					C327.889,399.24,327.566,399.413,327.233,399.413z M313.562,391.52c-0.164,0-0.329-0.041-0.48-0.129l-5.628-3.249
					c-0.461-0.266-0.619-0.855-0.353-1.316c0.266-0.46,0.855-0.618,1.316-0.353l5.628,3.249c0.461,0.266,0.619,0.855,0.353,1.316
					C314.219,391.347,313.895,391.52,313.562,391.52z M299.893,383.628c-0.164,0-0.329-0.041-0.481-0.129l-5.628-3.25
					c-0.461-0.266-0.619-0.855-0.353-1.316c0.266-0.462,0.856-0.619,1.316-0.353l5.628,3.25c0.461,0.266,0.619,0.855,0.353,1.316
					C300.549,383.456,300.226,383.628,299.893,383.628z M286.223,375.736c-0.164,0-0.329-0.041-0.48-0.129l-5.628-3.249
					c-0.461-0.266-0.619-0.855-0.353-1.316c0.266-0.461,0.856-0.619,1.316-0.353l5.628,3.249c0.461,0.266,0.619,0.855,0.353,1.316
					C286.879,375.563,286.556,375.736,286.223,375.736z M272.553,367.844c-0.164,0-0.329-0.041-0.48-0.129l-5.629-3.25
					c-0.461-0.266-0.619-0.855-0.353-1.316c0.265-0.461,0.856-0.619,1.316-0.353l5.629,3.25c0.461,0.266,0.619,0.855,0.353,1.316
					C273.21,367.671,272.886,367.844,272.553,367.844z M258.884,359.951c-0.164,0-0.329-0.041-0.481-0.129l-5.629-3.249
					c-0.461-0.266-0.619-0.855-0.353-1.316c0.266-0.46,0.855-0.619,1.316-0.353l5.629,3.249c0.461,0.266,0.619,0.855,0.353,1.316
					C259.54,359.778,259.217,359.951,258.884,359.951z M245.213,352.059c-0.164,0-0.329-0.041-0.481-0.129l-5.628-3.25
					c-0.461-0.266-0.619-0.855-0.353-1.316c0.266-0.462,0.856-0.619,1.316-0.353l5.628,3.25c0.461,0.266,0.619,0.855,0.353,1.316
					C245.87,351.887,245.546,352.059,245.213,352.059z"/>
			</g>
			<g id="XMLID_3561_">
				<path id="XMLID_3562_" style="fill:#27DEBF;" d="M365.532,421.525c-0.164,0-0.329-0.041-0.48-0.129l-2.918-1.685
					c-0.461-0.266-0.619-0.855-0.353-1.316c0.266-0.462,0.856-0.618,1.316-0.353l2.918,1.685c0.461,0.266,0.619,0.855,0.353,1.316
					C366.188,421.353,365.865,421.525,365.532,421.525z"/>
			</g>
		</g>
	</g>
</g>
<g id="Pin">
	<g id="Pin_1_">
		<g id="XMLID_3554_">
			<g id="XMLID_3555_">
				<path id="XMLID_3556_" style="fill:#455A64;" d="M429.295,169.324c0-0.01-0.01-0.01-0.01-0.01
					c-0.279-0.164-0.607-0.366-0.895-0.53l-27.936-16.043c-6.269-4.199-13.636-6.394-21.821-6.394
					c-9.774,0-19.635,3.544-31.239,9.967c-40.57,22.476-75.237,87.293-75.237,129.856v11.777c0,51.586,67.84,114.537,67.84,114.537
					l28.129,16.253c0.039,0.048,0.077,0.048,0.125,0.048c-0.944-1.107,29.891-46.088,58.963-133.824
					C459.398,197.848,429.902,169.883,429.295,169.324z M381.821,323.544c-22.967,13.27-42.226,6.317-47.677-15.09
					c-10.535-1.483-18.152-9.553-20.492-22.851c-2.956-42.958,19.866-77.192,52.549-91.078c13.973-5.085,25.682-1.454,31.942,9.062
					c19.202-3.293,32.934,9.861,32.934,34.648C431.077,269.627,409.034,307.847,381.821,323.544z"/>
			</g>
		</g>
		<path id="XMLID_3553_" style="fill:#263238;" d="M431.077,238.234c0,31.393-22.042,69.613-49.256,85.309
			c-22.967,13.27-42.226,6.317-47.677-15.09c6.904,0.992,15.07-0.857,23.833-5.922c24.922-14.367,45.106-49.352,45.106-78.097
			c0-8.532-1.782-15.562-4.94-20.848C417.345,200.293,431.077,213.448,431.077,238.234z"/>
		<g id="XMLID_3526_">
			<g id="XMLID_3550_">
				<polygon id="XMLID_3552_" style="fill:#27DEBF;" points="343.435,305.452 359.074,314.478 359.074,284.201 343.435,275.174 				
					"/>
				<polygon id="XMLID_3551_" style="opacity:0.2;" points="343.435,305.452 359.074,314.478 359.074,284.201 343.435,275.174 				
					"/>
			</g>
			<polygon id="XMLID_3549_" style="fill:#27DEBF;" points="418.03,250.16 381.799,233.176 345.569,291.995 359.074,284.201 
				359.074,314.478 376.188,304.595 376.188,284.79 387.397,278.319 387.397,298.123 404.539,288.217 404.539,257.939 			"/>
			<g id="XMLID_3546_">
				<polygon id="XMLID_3548_" style="fill:#27DEBF;" points="366.16,224.149 381.799,233.176 345.569,291.995 329.93,282.969 				
					"/>
				<polygon id="XMLID_3547_" style="opacity:0.1;" points="366.16,224.149 381.799,233.176 345.569,291.995 329.93,282.969 				"/>
			</g>
			<g id="XMLID_3530_">
				<polygon id="XMLID_3532_" style="fill:#27DEBF;" points="366.16,224.149 381.799,233.176 418.03,250.16 402.39,241.133 				"/>
				<polygon id="XMLID_3531_" style="opacity:0.4;fill:#FFFFFF;" points="366.16,224.149 381.799,233.176 418.03,250.16 
					402.39,241.133 				"/>
			</g>
			<g id="XMLID_3527_">
				<polygon id="XMLID_3529_" style="fill:#27DEBF;" points="376.188,304.595 387.397,298.123 387.397,278.319 376.188,284.79 				
					"/>
				<polygon id="XMLID_3528_" style="opacity:0.2;" points="376.188,304.595 387.397,298.123 387.397,278.319 376.188,284.79 				
					"/>
			</g>
		</g>
		<g id="XMLID_3521_">
			<path id="XMLID_3522_" style="fill:#37474F;" d="M429.295,169.324c0-0.01-0.01-0.01-0.01-0.01
				c-0.279-0.164-0.607-0.366-0.895-0.53c-13.559-7.617-31.682-6.596-51.586,4.882c-30.016,17.353-55.997,53.792-68.294,92.031
				c-4.882,15.147-6.943,23.169-6.943,37.825v11.767c0,39.751,44.326,93.215,65.049,112.311c0.491,0.453,0.982,0.818,1.512,1.136
				c0.039,0.048,0.077,0.048,0.125,0.048c5.008,3.091,11.806,1.339,14.493-4.199c17.873-36.602,69.96-146.833,69.96-189.551V223.27
				C452.705,196.769,443.74,178.001,429.295,169.324z M334.144,308.454c-0.289-1.098-0.539-2.234-0.742-3.409
				c-0.578-3.072-0.847-6.394-0.847-9.938c0-31.393,22.042-69.603,49.265-85.3c3.062-1.753,6.076-3.178,8.985-4.237
				c2.523-0.915,4.969-1.579,7.338-1.984c19.202-3.293,32.934,9.861,32.934,34.648c0,31.393-22.042,69.613-49.256,85.309
				C358.854,336.814,339.595,329.861,334.144,308.454z"/>
		</g>
	</g>
</g>
<g id="Character">
	<g id="Character_1_">
		<g id="XMLID_3516_">
			<path id="XMLID_3520_" style="fill:#263238;" d="M180.596,127.58h-20.981c-9.489,0-17.18-7.692-17.18-17.181v-4.851
				c0-10.538,8.543-19.081,19.08-19.081l0,0c10.538,0,19.081,8.543,19.081,19.081V127.58z"/>
			<g id="XMLID_3517_">
				<path id="XMLID_3519_" style="fill:#263238;" d="M145.465,96.052l-4.424-2.375c0.628-1.268,2.127-1.764,3.349-1.108
					C145.612,93.225,146.093,94.784,145.465,96.052z"/>
				<path id="XMLID_3518_" style="fill:#263238;" d="M145.84,96.554l-4.704,1.759c-0.539-1.308,0.077-2.762,1.376-3.248
					C143.811,94.579,145.301,95.246,145.84,96.554z"/>
			</g>
		</g>
		<g id="XMLID_3512_">
			<polygon id="XMLID_3515_" style="fill:#9A4A4D;" points="187.562,151.932 193.339,162.522 185.309,169.405 177.279,156.959 			
				"/>
			<path id="XMLID_3514_" style="fill:#27DEBF;" d="M171.401,129.214c3.024,0.251,6.156,1.542,8.326,6.035
				c2.17,4.492,8.957,18.483,8.957,18.483s-1.528,6.078-9.439,6.884l-3.143-4.815L171.401,129.214z"/>
			<path id="XMLID_3513_" style="opacity:0.1;" d="M171.401,129.214c3.024,0.251,6.156,1.542,8.326,6.035
				c2.17,4.492,8.957,18.483,8.957,18.483s-1.528,6.078-9.439,6.884l-3.143-4.815L171.401,129.214z"/>
		</g>
		<g id="XMLID_3503_">
			<path id="XMLID_3511_" style="fill:#263238;" d="M118.008,274.596c-1.506-0.775-2.462,1.137-3.828,2.671
				c-0.957,1.076-2.45,2.779-2.672,4.004c-0.327,1.814,1.308,4.67,3.119,6.245c1.811,1.575,3.913,2.702,4.571,6.154
				c0.658,3.452,1.999,5.504,5.577,7.047c3.92,1.691,9.172,1.15,10.953,0c2.11-1.363,0.183-2.859-2.774-7.091
				c-3.859-5.521-6.864-9.466-6.864-14.617L118.008,274.596z"/>
			<path id="XMLID_3510_" style="fill:#B16668;" d="M121.093,270.074l-3.168,4.644c-1.373,2.013-0.945,4.817,1.07,6.186
				c0.032,0.022,0.065,0.044,0.098,0.065c1.928,1.251,4.513,0.752,6.066-0.942l4.945-5.397L121.093,270.074z"/>
			<path id="XMLID_3509_" style="fill:#37474F;" d="M178.059,181.919c0.2,5.918,1.244,27.501-3.075,38.827
				c-4.043,10.603-7.701,16.275-8.988,18.477c-1.287,2.202-38.362,38.296-38.362,38.296s-6.291-0.461-7.292-6.562
				c0,0,15.191-25.824,18.48-31.121c3.289-5.296,14.941-13.417,14.941-13.417l-1.06-49.649L178.059,181.919z"/>
			
				<rect id="XMLID_3508_" x="169.723" y="293.101" transform="matrix(-0.9751 0.2217 -0.2217 -0.9751 409.4359 551.953)" style="fill:#B16668;" width="8.038" height="11.706"/>
			<path id="XMLID_3507_" style="fill:#37474F;" d="M164.993,199.988c0,0,3.048-2.565,7.166-8.253
				c5.992-8.279,5.07-15.63,5.07-15.63h-2.454l-32.42,0.664c-3.214,5.268-3.914,13.256-2.828,21.037
				c2.253,16.15,15.631,44.104,15.631,44.104c-0.187,2.209-1.122,11.493,0.986,19.724c3.324,12.985,12.382,34.959,12.382,34.959
				s5.675,0.81,8.493-2.474c0,0-5.016-44.612-6.367-56.043C169.19,225.708,164.993,199.988,164.993,199.988z"/>
			<path id="XMLID_3506_" style="fill:#263238;" d="M178.079,299.901l-0.255-1.121c0.824,0.156,4.342,5.999,7.833,8.538
				c3.823,2.78,7.141,4.423,8.848,5.677c2.285,1.676-1.023,5.109-6.646,5.415c-2.792,0.152-7.874-0.697-9.44-2.184
				c-1.566-1.486-2.7-3.946-3.941-5.015c-1.241-1.068-3.754-2.005-4.605-3.374c-0.467-0.752-0.539-2.616-0.487-4.217
				c0.048-1.469,0.096-3.082,0.599-3.06c0.04,0.169,0.194,0.855,0.194,0.855c0.713,0.501,2.947,1.136,4.767,1.051
				C176.27,302.407,178.733,302.099,178.079,299.901z"/>
			<path id="XMLID_3505_" style="fill:#263238;" d="M169.662,230.505c0,0-3.778-26.842-4.669-30.517c0,0,6.661-2.537,8.708-4.863
				c0,0-1.462,3.254-6.226,6.146L169.662,230.505z"/>
			<path id="XMLID_3504_" style="fill:#263238;" d="M149.644,229.468c0,0,3.896,10.235,5.514,12.443c0,0-0.404,7.608-0.347,9.146
				l-2.107,1.837c0,0-0.1-6.39,0.943-10.263C153.647,242.63,151.015,237.34,149.644,229.468z"/>
		</g>
		<g id="XMLID_3499_">
			<g id="XMLID_3501_">
				<path id="XMLID_3502_" style="fill:#27DEBF;" d="M176.241,157.894c0.507,4.696,1.818,24.025,1.818,24.025
					c-15.51,8.276-34.745,2.793-37.69-0.619c2.667-8.777,6.515-12.486,8.709-14.822l-5.025-14.02c0,0-0.6-1.434-0.587-1.446
					c0.305-0.523,7.81-7.28,4.112-17.967c-0.574-1.658,0.6-3.409,2.349-3.552l4.453-0.364l12.077-0.354
					c2.888,0.162,4.945,0.44,4.945,0.44c1.851,1.731,4.767,6.489,6.658,11.329C179.278,143.664,180.596,148.649,176.241,157.894z"/>
			</g>
			<polygon id="XMLID_3500_" style="opacity:0.1;" points="147.295,157.519 149.057,150.665 151.245,166.49 146.817,168.954 
				149.078,166.478 146.786,160.086 			"/>
		</g>
		<g id="XMLID_3484_">
			<g id="XMLID_3497_">
				<path id="XMLID_3498_" style="fill:#B16668;" d="M173.782,94.778c2.015,1.191,4.506,6.26,4.261,16.887
					c-0.208,9.006-3.128,11.231-4.594,11.872c-1.466,0.641-4.293,0.251-7.042-0.207v5.405c0,0,4.093,7.571,3.168,10.597
					c-1.942,0.339-4.505-0.992-8.059-3.413c-3.555-2.421-7.137-6.791-7.137-6.791l0.062-12.428c0,0-1.618,1.571-4.36-0.827
					c-2.264-1.98-3.027-5.318-1.262-7.109c1.764-1.791,5.026-1.303,6.276,1.25c0,0,4.383,0.16,10.22-3.046
					C171.151,103.762,173.394,98.27,173.782,94.778z"/>
			</g>
			<g id="XMLID_3495_">
				<path id="XMLID_3496_" style="fill:#263238;" d="M167.987,109.402c0.033,0.649-0.447,1.199-1.072,1.229
					c-0.625,0.03-1.158-0.473-1.19-1.122c-0.033-0.649,0.447-1.199,1.072-1.229C167.422,108.251,167.954,108.753,167.987,109.402z"
					/>
			</g>
			<g id="XMLID_3493_" style="opacity:0.5;">
				<path id="XMLID_3494_" style="fill:#9A4A4D;" d="M168.289,117.037l2.63,0.839c-0.218,0.753-0.984,1.175-1.711,0.944
					C168.482,118.588,168.071,117.79,168.289,117.037z"/>
			</g>
			<g id="XMLID_3491_">
				<path id="XMLID_3492_" style="fill:#263238;" d="M177.273,105.924l-2.291-1.588c0.418-0.655,1.27-0.829,1.903-0.39
					C177.517,104.384,177.691,105.271,177.273,105.924z"/>
			</g>
			<g id="XMLID_3489_">
				<path id="XMLID_3490_" style="fill:#263238;" d="M176.745,108.583c0.033,0.649-0.448,1.199-1.072,1.229
					c-0.625,0.03-1.158-0.473-1.19-1.121c-0.033-0.649,0.447-1.199,1.072-1.229C176.179,107.432,176.712,107.935,176.745,108.583z"
					/>
			</g>
			<g id="XMLID_3487_" style="opacity:0.5;">
				<polygon id="XMLID_3488_" style="fill:#9A4A4D;" points="171.401,107.935 171.582,114.753 175.17,113.641 				"/>
			</g>
			<g id="XMLID_3485_" style="opacity:0.5;">
				<path id="XMLID_3486_" style="fill:#9A4A4D;" d="M166.407,123.331c-2.896-0.38-8.855-2.092-9.783-4.448
					c0,0,0.309,1.481,2.089,3.006c1.78,1.525,7.695,3.245,7.695,3.245V123.331z"/>
			</g>
		</g>
		<g id="XMLID_3478_">
			<path id="XMLID_3483_" style="fill:#B16668;" d="M130.784,174.923c0.07-0.974,1.894-11.369,3.15-17.183l12.221,3.745
				l-1.961,8.145l-10.168,9.831C130.801,178.821,130.715,175.897,130.784,174.923z"/>
			<path id="XMLID_3482_" style="fill:#27DEBF;" d="M149.926,129.492c-4.689,0.411-10.869,1.108-13.809,14.454
				c-2.756,12.509-3.438,16.884-3.438,16.884s3.612,4.575,12.948,4.07l3.431-14.235
				C155.306,142.444,153.295,136.549,149.926,129.492z"/>
			<g id="XMLID_3479_">
				<path id="XMLID_3481_" style="fill:#263238;" d="M189.442,165.24c1.679-3.125,2.095-3.262,3.092-3.947
					c0.998-0.685,7.122-1.6,9.663-1.814c2.99-0.252,4.051,0.298,3.22,2.868c-1.779,5.502-7.174,17.186-8.382,18.798
					c-0.792,1.057-0.955,2.039-4.315,2.367c-3.141,0.306-7.078,0.478-8.237,0.548c-1.16,0.07-2.763,0.358-1.724-3.052
					c1.039-3.411,3.491-8.949,4.59-11.332C188.641,166.87,189.442,165.24,189.442,165.24z"/>
				<path id="XMLID_3480_" style="fill:#B16668;" d="M144.194,169.63c0,0,27.156,2.871,30.671,1.78
					c3.515-1.091,8.242-4.606,10.787-6.06c2.545-1.454,4.363-1.576,4.363-0.969s-2.173,3.925-2.666,5.296
					c-0.494,1.37,2.34,1.379,6.06,0.522c3.719-0.857,5.211-3.023,6.181-1.754c0.969,1.269-2.061,7.45-8.242,9.753
					c-6.181,2.303-10.767,0.783-15.867,0.998c-5.1,0.214-34.362,2.497-41.455,0.266c0,0-0.821-3.318,2.451-6.036
					C139.749,170.706,144.194,169.63,144.194,169.63z"/>
			</g>
		</g>
	</g>
</g>
<g id="Clouds">
	<g id="Clouds_3_">
		<path id="XMLID_3405_" style="fill:#F0F0F0;" d="M317.794,72.831l7.444-4.298c-0.037-0.29-0.063-0.59-0.063-0.913v-2.157
			c0-3.838,2.694-8.505,6.018-10.424c1.346-0.777,2.584-0.976,3.587-0.692c0.544-5.454,4.331-11.624,8.929-14.279
			c4.973-2.871,9.004-0.544,9.004,5.198v3.226c0,1.487-0.275,3.057-0.762,4.618l6.184-3.57c1.844-1.064,3.338-0.201,3.338,1.927
			c0,2.129-1.495,4.717-3.338,5.782L317.794,80.54c-1.844,1.064-3.338,0.202-3.338-1.927
			C314.456,76.484,315.951,73.895,317.794,72.831z"/>
		<path id="XMLID_3402_" style="fill:#F0F0F0;" d="M282.121,122.836l5.618-3.244c-0.028-0.219-0.047-0.445-0.047-0.689v-1.628
			c0-2.896,2.034-6.419,4.542-7.867c1.016-0.587,1.95-0.736,2.707-0.523c0.411-4.117,3.268-8.773,6.739-10.777
			c3.753-2.167,6.795-0.41,6.795,3.923v2.435c0,1.123-0.208,2.308-0.575,3.485l4.667-2.694c1.392-0.803,2.519-0.152,2.519,1.454
			c0,1.607-1.128,3.56-2.519,4.364l-30.445,17.578c-1.391,0.803-2.519,0.152-2.519-1.454
			C279.602,125.593,280.73,123.64,282.121,122.836z"/>
	</g>
</g>
</svg>
