<?xml version="1.0" encoding="utf-8"?>
<!-- Generator: Adobe Illustrator 27.5.0, SVG Export Plug-In . SVG Version: 6.00 Build 0)  -->
<svg version="1.1" xmlns="http://www.w3.org/2000/svg" xmlns:xlink="http://www.w3.org/1999/xlink" x="0px" y="0px"
	 viewBox="0 0 500 500" style="enable-background:new 0 0 500 500;" xml:space="preserve">
<g id="Floor">
	<ellipse id="Floor_15_" style="fill:#F5F5F5;" cx="250" cy="350.053" rx="234.048" ry="135.185"/>
</g>
<g id="Shadows">
	<ellipse id="Shadow_11_" style="fill:#E0E0E0;" cx="380.733" cy="313.792" rx="41.011" ry="23.678"/>
	<path id="Shadow_2_" style="fill:#E0E0E0;" d="M303.414,471.695l113.907-65.764c2.496-1.441,2.496-3.777,0-5.218l-240.138-138.59
		c-2.496-1.441-6.543-1.441-9.039,0L54.236,327.888c-2.496,1.441-2.496,3.777,0,5.218l240.139,138.589
		C296.871,473.136,300.918,473.136,303.414,471.695z"/>
</g>
<g id="Plants">
	<g id="Plants_9_">
		<g id="XMLID_499_">
			<g id="XMLID_507_">
				<path id="XMLID_508_" style="fill:#27DEBF;" d="M396.627,375.26l-6.396-5.513c0,0,0.252-19.693,6.016-35.541
					c8.105-22.281,25.301-27.163,30.54-23.772c5.24,3.392,5.25,10.462-7.602,21.746C411.603,338.839,400.587,353.888,396.627,375.26
					z"/>
			</g>
			<g id="XMLID_505_" style="opacity:0.15;">
				<path id="XMLID_506_" d="M396.627,375.26l-6.396-5.513c0,0,0.252-19.693,6.016-35.541c8.105-22.281,25.301-27.163,30.54-23.772
					c5.24,3.392,5.25,10.462-7.602,21.746C411.603,338.839,400.587,353.888,396.627,375.26z"/>
			</g>
			<g id="XMLID_501_">
				<path id="XMLID_503_" style="fill:#FFFFFF;" d="M395.796,365.623c0.024,0.005,0.048,0.007,0.072,0.009
					c0.288,0.016,0.535-0.205,0.551-0.493c1.216-22.101,14.462-43.995,26.036-51.604c0.241-0.158,0.308-0.483,0.149-0.724
					c-0.159-0.239-0.483-0.308-0.724-0.149c-11.785,7.748-25.271,29.994-26.505,52.42
					C395.361,365.345,395.545,365.574,395.796,365.623z"/>
			</g>
		</g>
		<g id="XMLID_400_">
			<g id="XMLID_491_">
				<path id="XMLID_495_" style="fill:#27DEBF;" d="M415.471,390.682c1.01,0.874,3.631-0.097,4.646-0.525
					c1.737-0.732,3.267-1.949,4.415-3.44c1.337-1.735,1.98-3.747,2.093-5.932c0.058-1.133-0.041-2.268-0.14-3.398
					c-0.098-1.11-0.195-2.219-0.292-3.329c-0.096-1.095-0.188-2.226,0.157-3.27c0.695-2.102,2.903-3.24,4.897-4.204
					c2.204-1.066,4.578-2.578,5.072-5.175c0.382-2.004-0.294-4.066-1.229-5.88c-0.935-1.813-2.138-3.489-2.936-5.366
					c-0.575-1.352-0.932-2.877-0.521-4.287c0.255-0.876,0.789-1.645,1.369-2.349c1.246-1.512,2.756-2.824,3.742-4.517
					c0.986-1.693,1.335-3.968,0.171-5.543c-0.955-1.293-2.655-1.778-4.25-1.981c-1.475-0.187-3.026,0.193-4.439,0.653
					c-4.567,1.489-7.869,5.911-12.584,6.823c-1.819,0.352-3.696,0.141-5.544,0.263c-1.849,0.122-3.816,0.671-4.947,2.139
					c-2.229,2.893-0.02,7.424-1.811,10.608c-1.585,2.817-4.736,3.4-6.907,5.794c-0.95,1.047-1.383,2.387-1.536,3.793
					c-0.26,2.379-0.251,4.164,0.365,6.986c0.51,2.332,2.488,6.713,2.488,6.713C397.806,375.342,415.316,390.548,415.471,390.682z"/>
			</g>
			<g id="XMLID_481_">
				<path id="XMLID_484_" style="fill:#FFFFFF;" d="M405.001,382.184c0.007,0.001,0.014,0.003,0.014,0.003
					c0.293,0.044,0.559-0.152,0.603-0.437c3.118-20.535,17.095-41.156,25.346-46.33c0.244-0.153,0.318-0.476,0.165-0.721
					c-0.154-0.244-0.476-0.317-0.721-0.165c-8.417,5.279-22.662,26.235-25.825,47.059
					C404.542,381.871,404.727,382.13,405.001,382.184z"/>
			</g>
			<g id="XMLID_474_">
				<path id="XMLID_477_" style="fill:#FFFFFF;" d="M412.739,358.712c0.05,0.01,0.103,0.013,0.156,0.006
					c6.939-0.749,15.165,0.482,15.247,0.495c0.286,0.043,0.552-0.154,0.596-0.438c0.043-0.285-0.128-0.55-0.438-0.596
					c-0.084-0.012-8.441-1.264-15.516-0.5c-0.287,0.03-0.495,0.288-0.464,0.575C412.344,358.488,412.519,358.669,412.739,358.712z"
					/>
			</g>
		</g>
	</g>
	<g id="Plants_8_">
		<g id="XMLID_389_">
			<path id="XMLID_399_" style="fill:#27DEBF;" d="M64.578,320.789l8.929-5.155c0,0,2.187-19.121,0.732-33.93
				c-2.045-20.809-15.483-45.847-31.515-39.967c-16.032,5.88,7.351,27.072,12.556,44.721
				C60.484,304.108,64.578,320.789,64.578,320.789z"/>
			<path id="XMLID_397_" style="opacity:0.15;" d="M64.578,320.789l8.929-5.155c0,0,2.187-19.121,0.732-33.93
				c-2.045-20.809-15.483-45.847-31.515-39.967c-16.032,5.88,7.351,27.072,12.556,44.721
				C60.484,304.108,64.578,320.789,64.578,320.789z"/>
			<path id="XMLID_394_" style="fill:#FFFFFF;" d="M69.274,318.618c-0.006,0-0.012,0-0.019,0c-0.298-0.01-0.532-0.26-0.522-0.559
				c1.568-46.237-21.448-69.495-21.681-69.724c-0.213-0.21-0.215-0.552-0.006-0.764c0.212-0.213,0.554-0.215,0.764-0.006
				c0.236,0.233,23.587,23.826,22.003,70.531C69.805,318.388,69.565,318.618,69.274,318.618z"/>
		</g>
		<g id="XMLID_383_">
			<path id="XMLID_387_" style="fill:#27DEBF;" d="M59.813,324.478l6.353-3.668c0,0,1.081-13.121-5.352-29.061
				c-5.6-13.877-19.496-25.389-26.485-22.97c-6.989,2.419-6.815,7.375-3.408,12.574C34.328,286.551,55.059,298.943,59.813,324.478z"
				/>
			<path id="XMLID_385_" style="fill:#FFFFFF;" d="M63.165,323.083h-0.002c-0.298-0.002-0.54-0.244-0.538-0.543
				c0.126-29.234-27.324-48.993-27.602-49.189c-0.243-0.172-0.301-0.509-0.128-0.753c0.171-0.242,0.507-0.303,0.753-0.128
				c0.281,0.199,28.186,20.285,28.058,50.076C63.703,322.843,63.462,323.083,63.165,323.083z"/>
		</g>
	</g>
</g>
<g id="Device">
	<g id="Device_2_">
		<g id="Mobile_7_">
			<g>
				<path id="XMLID_370_" style="fill:#455A64;" d="M416.687,378.992c-0.044-0.1-0.1-0.19-0.167-0.279
					c-0.045-0.067-0.089-0.112-0.145-0.179c-0.045-0.067-0.1-0.134-0.168-0.201c-0.056-0.056-0.122-0.123-0.189-0.178
					c-0.19-0.167-0.424-0.335-0.691-0.491L182.468,243.222c-2.13-1.227-5.588-1.227-7.719,0L60.584,309.133
					c-0.167,0.1-0.323,0.19-0.457,0.29c-0.056,0.045-0.111,0.078-0.156,0.123c-0.279,0.234-0.491,0.468-0.647,0.725
					c-0.045,0.056-0.078,0.123-0.111,0.19c-0.056,0.1-0.1,0.201-0.123,0.301c-0.022,0.078-0.045,0.156-0.056,0.234
					c-0.034,0.134-0.045,0.257-0.045,0.39c0,0.089,0.011,0.178,0.022,0.268c0.022,0.1,0.045,0.201,0.078,0.301
					s0.078,0.201,0.123,0.29c0.245,0.491,0.703,0.948,1.372,1.339l232.859,134.443c0.658,0.379,1.461,0.636,2.298,0.781
					c0.502,0.089,1.037,0.123,1.562,0.134c0.524,0,1.049-0.045,1.55-0.123c0.178-0.022,0.346-0.056,0.502-0.1
					c0.491-0.112,0.959-0.268,1.394-0.469c0.145-0.067,0.279-0.145,0.413-0.223l114.165-65.911
					C416.788,381.268,417.245,380.063,416.687,378.992z M391.612,374.218l-7.306,4.216l-97.266,56.118
					c-0.257,0.145-0.513,0.279-0.781,0.39c-1.606,0.658-3.402,0.658-5.008,0c-0.268-0.112-0.535-0.245-0.792-0.39L95.776,327.928
					l-8.935-5.153c-0.345-0.201-0.624-0.424-0.836-0.658c-0.926-1.015-0.636-2.309,0.836-3.168l104.527-60.345
					c1.328-0.758,2.7-1.305,4.06-1.127c0.335,0.045,0.658,0.134,0.993,0.268c0.167,0.067,0.346,0.145,0.513,0.245l194.677,112.402
					C393.085,371.24,393.085,373.371,391.612,374.218z"/>
			</g>
			<g>
				<path id="XMLID_369_" style="fill:#37474F;" d="M60.132,309.427c-1.923,1.362-3.406,4.103-3.415,6.394l0.002,5.1
					c-0.003,2.47,1.715,5.46,3.859,6.697L293.419,462.05c0.811,0.468,1.796,0.75,2.834,0.864c0.34,0.042,0.681,0.062,1.032,0.066
					c0.005-0.008,0.013-0.004,0.013-0.004l-0.001-14.028l0.005-0.008c-0.526-0.006-1.055-0.046-1.56-0.128
					c-0.843-0.145-1.641-0.407-2.304-0.789L60.58,313.582C58.619,312.449,58.461,310.659,60.132,309.427z"/>
			</g>
			<path style="fill:#27DEBF;" d="M355.015,406.365c-3.737-2.153-10.039-2.153-13.776,0c-0.959,0.558-1.673,1.205-2.063,1.885
				c-1.238,2.142,1.026,3.759,2.063,4.361c3.737,2.153,10.039,2.153,13.776,0c0.948-0.558,1.662-1.205,2.063-1.885
				C358.317,408.585,356.041,406.968,355.015,406.365z"/>
			<g id="XMLID_359_">
				<path id="XMLID_366_" style="fill:#263238;" d="M127.009,282.22c1.042-0.602,1.042-1.577,0-2.179
					c-1.042-0.602-2.732-0.602-3.774,0c-1.042,0.602-1.042,1.577,0,2.179C124.277,282.822,125.966,282.822,127.009,282.22z"/>
				<g>
					<path id="XMLID_363_" style="fill:#263238;" d="M121.077,292.542c0.924-0.534,0.924-1.399,0-1.933
						c-0.924-0.534-2.423-0.534-3.348,0c-0.924,0.534-0.924,1.399,0,1.933C118.654,293.076,120.153,293.076,121.077,292.542z"/>
					<path id="XMLID_360_" style="fill:#263238;" d="M126.746,289.346l18.744-10.822c1.027-0.593,1.079-1.525,0.115-2.081
						c-0.964-0.556-2.577-0.527-3.604,0.066l-18.744,10.822c-1.027,0.593-1.078,1.524-0.115,2.081
						C124.106,289.97,125.72,289.939,126.746,289.346z"/>
				</g>
			</g>
			<g>
				<path id="XMLID_358_" style="fill:#263238;" d="M415.835,378.005c1.6,1.244,1.426,2.997-0.508,4.11l-114.168,65.918
					c-1.06,0.613-2.462,0.919-3.862,0.916l0.001,14.028c1.405-0.005,2.785-0.312,3.85-0.933l114.167-65.896
					c2.129-1.221,3.858-4.217,3.861-6.688l0.016-5.112C419.182,382.089,417.73,379.386,415.835,378.005z"/>
			</g>
			<g>
				<g>
					<path style="fill:#263238;" d="M115.04,348.961c1.102,0.636,1.995,2.12,1.995,3.314c0,0.576-0.209,0.976-0.55,1.164
						c-0.24,0.133-1.148,0.676-1.398,0.814c-0.363,0.202-0.873,0.163-1.44-0.164L87.689,339.1c-1.102-0.636-1.995-2.12-1.995-3.314
						c0-0.55,0.191-0.939,0.505-1.137c0.247-0.156,1.192-0.701,1.44-0.84c0.363-0.203,0.875-0.165,1.442,0.163L115.04,348.961z"/>
					<path style="fill:#455A64;" d="M113.649,349.766l-25.96-14.988c-1.102-0.636-1.995-0.184-1.995,1.009
						c0,1.194,0.893,2.677,1.995,3.314l25.96,14.988c1.102,0.636,1.995,0.184,1.995-1.009
						C115.644,351.885,114.751,350.402,113.649,349.766z"/>
				</g>
				<g>
					<path style="fill:#263238;" d="M80.291,328.899c1.102,0.636,1.995,2.12,1.995,3.314c0,0.576-0.209,0.976-0.55,1.164
						c-0.24,0.133-1.148,0.676-1.398,0.814c-0.363,0.202-0.873,0.163-1.44-0.164l-12.238-7.066c-1.102-0.636-1.995-2.12-1.995-3.314
						c0-0.55,0.191-0.939,0.504-1.137c0.247-0.156,1.192-0.701,1.44-0.84c0.363-0.203,0.875-0.165,1.442,0.163L80.291,328.899z"/>
					<path style="fill:#455A64;" d="M78.899,329.703l-12.238-7.066c-1.102-0.636-1.995-0.184-1.995,1.009
						c0,1.194,0.893,2.677,1.995,3.314l12.238,7.066c1.102,0.636,1.995,0.184,1.995-1.009
						C80.895,331.823,80.002,330.339,78.899,329.703z"/>
				</g>
			</g>
		</g>
		<g id="Window_2_">
			<path style="fill:#27DEBF;" d="M391.612,374.163l-7.306,4.216l-97.266,56.118c-0.257,0.145-0.513,0.279-0.781,0.39
				c-1.606,0.658-3.402,0.658-5.008,0c-0.268-0.112-0.535-0.245-0.792-0.39L95.776,327.872l-8.935-5.153
				c-0.345-0.201-0.624-0.424-0.836-0.658c-0.926-1.015-0.636-2.309,0.836-3.168l104.527-60.345c1.328-0.758,2.7-1.305,4.06-1.127
				c0.335,0.045,0.658,0.134,0.993,0.268c0.167,0.067,0.346,0.145,0.513,0.245l194.677,112.402
				C393.085,371.185,393.085,373.315,391.612,374.163z"/>
			<path style="opacity:0.8;fill:#FFFFFF;" d="M391.612,374.163l-7.306,4.216l-97.266,56.118c-0.257,0.145-0.513,0.279-0.781,0.39
				c-1.606,0.658-3.402,0.658-5.008,0c-0.268-0.112-0.535-0.245-0.792-0.39L95.776,327.872l-8.935-5.153
				c-0.345-0.201-0.624-0.424-0.836-0.658c-0.926-1.015-0.636-2.309,0.836-3.168l104.527-60.345c1.328-0.758,2.7-1.305,4.06-1.127
				c0.335,0.045,0.658,0.134,0.993,0.268c0.167,0.067,0.346,0.145,0.513,0.245l194.677,112.402
				C393.085,371.185,393.085,373.315,391.612,374.163z"/>
			<g>
				<g id="XMLID_338_">
					<path id="XMLID_355_" style="fill:#455A64;" d="M108.917,314.82c-0.046-0.001-0.097-0.017-0.151-0.048l-0.513-0.296
						l-1.235,0.714c-0.068,0.039-0.138,0.038-0.211-0.005l-0.184-0.106c-0.042-0.024-0.07-0.045-0.085-0.063
						c-0.014-0.018-0.028-0.042-0.04-0.073l-0.524-1.82c-0.009-0.033-0.011-0.058-0.004-0.075c0.005-0.018,0.027-0.038,0.067-0.06
						l0.172-0.099c0.051-0.03,0.102-0.044,0.153-0.042c0.049,0.002,0.104,0.02,0.161,0.053l1.793,1.035l0.273-0.158
						c0.053-0.03,0.101-0.044,0.146-0.041c0.047,0.003,0.099,0.021,0.156,0.054l0.122,0.071c0.054,0.031,0.082,0.06,0.085,0.085
						c0.004,0.026-0.02,0.054-0.073,0.084l-0.273,0.158l0.513,0.296c0.054,0.031,0.082,0.06,0.084,0.087
						c0.001,0.027-0.025,0.056-0.078,0.087l-0.208,0.119C109.012,314.807,108.964,314.822,108.917,314.82z M107.898,314.176
						l-1.278-0.738l0.382,1.256L107.898,314.176z"/>
					<path id="XMLID_344_" style="fill:#455A64;" d="M110.075,313.793c-0.519-0.02-1.034-0.178-1.547-0.474
						c-0.511-0.295-0.783-0.593-0.818-0.893c-0.035-0.301,0.168-0.578,0.607-0.831c0.176-0.102,0.362-0.186,0.559-0.25
						c0.195-0.064,0.382-0.103,0.562-0.117c0.041-0.003,0.072,0.001,0.094,0.014c0.014,0.008,0.028,0.022,0.038,0.04l0.112,0.195
						c0.011,0.025,0.01,0.042-0.006,0.051c-0.009,0.004-0.033,0.01-0.073,0.016c-0.291,0.036-0.559,0.125-0.803,0.266
						c-0.296,0.171-0.433,0.361-0.409,0.571c0.026,0.21,0.234,0.428,0.628,0.655c0.396,0.229,0.773,0.352,1.129,0.367
						c0.355,0.017,0.676-0.058,0.962-0.223c0.104-0.06,0.196-0.124,0.275-0.192c0.079-0.069,0.132-0.131,0.159-0.188l-0.833-0.481
						l-0.515,0.297c-0.052,0.03-0.101,0.044-0.147,0.041c-0.047-0.002-0.098-0.02-0.156-0.053l-0.117-0.068
						c-0.057-0.033-0.086-0.062-0.087-0.087c-0.002-0.025,0.023-0.052,0.075-0.083l0.823-0.475c0.057-0.033,0.115-0.047,0.171-0.043
						c0.056,0.004,0.117,0.025,0.183,0.063l1.189,0.686c0.045,0.026,0.075,0.048,0.089,0.065c0.016,0.017,0.018,0.039,0.011,0.064
						c-0.065,0.238-0.303,0.476-0.714,0.714C111.072,313.696,110.592,313.814,110.075,313.793z"/>
				</g>
				<g id="XMLID_314_">
					<g id="XMLID_335_">
						<path id="XMLID_336_" style="fill:#455A64;" d="M120.302,307.67c0.396,0.229,0.396,0.599,0,0.828
							c-0.396,0.229-1.039,0.229-1.435,0c-0.396-0.229-0.396-0.6,0-0.828C119.264,307.442,119.906,307.442,120.302,307.67z"/>
					</g>
					<g id="XMLID_328_">
						<g id="XMLID_332_">
							<path id="XMLID_333_" style="fill:#455A64;" d="M117.693,306.993c-0.723,0.417-0.945,1.014-0.668,1.541
								c0.056,0.107,0.24,0.175,0.432,0.161l0.002,0c0.242-0.017,0.404-0.156,0.332-0.29c-0.2-0.372-0.042-0.793,0.466-1.087
								c0.509-0.294,1.239-0.384,1.882-0.269c0.234,0.042,0.476-0.051,0.505-0.192l0-0.001c0.023-0.111-0.095-0.216-0.279-0.248
								C119.45,306.447,118.416,306.576,117.693,306.993z"/>
						</g>
					</g>
					<g id="XMLID_315_">
						<g id="XMLID_325_">
							<path id="XMLID_326_" style="fill:#455A64;" d="M116.545,306.33c-1.074,0.62-1.458,1.49-1.154,2.291
								c0.045,0.118,0.231,0.199,0.439,0.185l0.004,0c0.235-0.016,0.39-0.146,0.338-0.28c-0.254-0.653,0.058-1.364,0.937-1.871
								c0.878-0.507,2.113-0.689,3.244-0.542c0.231,0.03,0.456-0.059,0.484-0.195l0,0c0.025-0.12-0.116-0.227-0.319-0.253
								C119.134,305.486,117.622,305.708,116.545,306.33z"/>
						</g>
					</g>
				</g>
				<g>
					<path style="fill:#455A64;" d="M137.694,296.099c-0.051-0.004-0.09-0.017-0.121-0.04c-0.03-0.023-0.042-0.049-0.035-0.078
						l0.218-1.063c0.007-0.026,0.015-0.051,0.024-0.077c0.01-0.026,0.03-0.048,0.061-0.066l0.371-0.214
						c0.035-0.02,0.077-0.03,0.129-0.03c0.05,0,0.092,0.01,0.127,0.031l3.066,1.77c0.034,0.02,0.053,0.044,0.053,0.073
						c0,0.03-0.018,0.054-0.053,0.074l-0.385,0.222c-0.035,0.02-0.076,0.03-0.128,0.03c-0.05,0-0.094-0.01-0.129-0.03l-2.344-1.354
						l-0.146,0.693c-0.006,0.029-0.029,0.052-0.067,0.068c-0.037,0.016-0.083,0.023-0.138,0.022L137.694,296.099z"/>
					<path style="fill:#455A64;" d="M140.095,294.713c-0.05-0.003-0.09-0.017-0.121-0.04c-0.03-0.022-0.042-0.048-0.036-0.078
						l0.219-1.063c0.005-0.026,0.014-0.051,0.023-0.077c0.009-0.025,0.031-0.047,0.062-0.065l0.369-0.214
						c0.035-0.02,0.077-0.03,0.129-0.03c0.051,0,0.093,0.01,0.128,0.03l3.066,1.77c0.035,0.02,0.052,0.045,0.052,0.074
						c-0.001,0.029-0.018,0.054-0.053,0.074l-0.383,0.222c-0.036,0.021-0.078,0.03-0.129,0.03c-0.05,0-0.093-0.01-0.128-0.03
						l-2.344-1.353l-0.146,0.693c-0.007,0.029-0.029,0.052-0.067,0.069c-0.038,0.017-0.084,0.024-0.138,0.022L140.095,294.713z"/>
					<path style="fill:#455A64;" d="M143.113,292.818c0.035-0.02,0.078-0.03,0.128-0.031c0.051,0,0.093,0.01,0.128,0.03l0.465,0.269
						c0.035,0.02,0.053,0.045,0.052,0.074c0,0.03-0.018,0.054-0.053,0.074l-0.441,0.255c-0.035,0.02-0.077,0.03-0.129,0.03
						c-0.05,0-0.093-0.01-0.128-0.03l-0.465-0.269c-0.035-0.02-0.052-0.045-0.053-0.074c0.001-0.029,0.018-0.054,0.053-0.074
						L143.113,292.818z M144.774,293.777c0.035-0.02,0.078-0.03,0.128-0.031c0.051,0,0.093,0.01,0.128,0.03l0.465,0.269
						c0.035,0.02,0.052,0.045,0.052,0.074c0,0.03-0.018,0.054-0.053,0.074l-0.441,0.255c-0.035,0.02-0.077,0.03-0.129,0.03
						c-0.05,0-0.093-0.01-0.128-0.03l-0.465-0.269c-0.035-0.02-0.052-0.045-0.053-0.074c0.001-0.029,0.018-0.054,0.053-0.074
						L144.774,293.777z"/>
					<path style="fill:#455A64;" d="M148.03,292.729c-0.035,0.02-0.077,0.03-0.129,0.03c-0.05,0-0.093-0.01-0.127-0.03l-0.575-0.332
						l-1.471,0.849c-0.035,0.02-0.077,0.03-0.127,0.03c-0.051,0-0.094-0.01-0.129-0.03l-0.337-0.194
						c-0.044-0.026-0.072-0.054-0.086-0.085c-0.012-0.032-0.023-0.066-0.033-0.104l-0.36-1.885c-0.016-0.082,0.01-0.143,0.075-0.181
						l0.361-0.208c0.035-0.02,0.078-0.03,0.129-0.03c0.05,0,0.092,0.01,0.127,0.03l1.898,1.096l0.409-0.236
						c0.034-0.02,0.078-0.03,0.128-0.03c0.051,0,0.094,0.01,0.128,0.03l0.337,0.195c0.034,0.02,0.053,0.045,0.052,0.074
						c0,0.029-0.018,0.054-0.052,0.074l-0.409,0.236l0.575,0.332c0.034,0.02,0.053,0.044,0.053,0.073
						c0,0.03-0.018,0.054-0.053,0.074L148.03,292.729z M146.606,292.056l-1.016-0.586l0.203,1.055L146.606,292.056z"/>
					<path style="fill:#455A64;" d="M146.742,289.785c-0.035-0.02-0.051-0.044-0.051-0.074c-0.001-0.029,0.017-0.054,0.052-0.074
						l1.784-1.03c0.035-0.021,0.077-0.03,0.128-0.03c0.051,0,0.094,0.01,0.129,0.03l0.337,0.195c0.034,0.02,0.051,0.045,0.051,0.074
						c0,0.03-0.017,0.054-0.052,0.074l-1.333,0.769l0.556,0.381c0.05-0.069,0.114-0.13,0.192-0.182
						c0.077-0.052,0.143-0.094,0.196-0.125c0.177-0.102,0.366-0.184,0.564-0.243c0.199-0.06,0.401-0.096,0.605-0.106
						c0.204-0.01,0.406,0.006,0.605,0.048c0.199,0.042,0.387,0.114,0.565,0.216c0.202,0.117,0.344,0.236,0.423,0.356
						c0.079,0.12,0.109,0.24,0.09,0.359c-0.019,0.119-0.082,0.234-0.192,0.346c-0.109,0.113-0.249,0.218-0.42,0.316
						c-0.219,0.126-0.431,0.22-0.638,0.281c-0.208,0.061-0.406,0.097-0.596,0.105c-0.19,0.009-0.367-0.004-0.531-0.039
						c-0.165-0.034-0.312-0.086-0.441-0.154c-0.042-0.02-0.06-0.045-0.058-0.074c0.003-0.03,0.023-0.054,0.057-0.074l0.385-0.222
						c0.031-0.018,0.07-0.029,0.115-0.032c0.047-0.003,0.091,0.003,0.136,0.018c0.092,0.032,0.181,0.049,0.268,0.051
						c0.086,0.003,0.171-0.004,0.251-0.019c0.082-0.016,0.159-0.04,0.235-0.073c0.076-0.033,0.15-0.071,0.223-0.113
						c0.181-0.104,0.277-0.216,0.289-0.337c0.012-0.121-0.066-0.23-0.237-0.329c-0.143-0.082-0.317-0.119-0.522-0.11
						c-0.206,0.009-0.399,0.064-0.583,0.167c-0.095,0.055-0.163,0.102-0.204,0.143c-0.041,0.04-0.07,0.076-0.086,0.107
						c-0.015,0.031-0.03,0.059-0.045,0.083c-0.014,0.025-0.043,0.05-0.088,0.075l-0.437,0.252c-0.034,0.02-0.077,0.03-0.127,0.03
						c-0.051,0-0.093-0.01-0.128-0.03L146.742,289.785z"/>
				</g>
				<g>
					<polygon style="fill:#455A64;" points="95.646,322.923 94.657,322.352 95.975,321.591 96.965,322.162 					"/>
					<polygon style="fill:#455A64;" points="97.624,321.781 95.646,320.639 96.965,319.878 98.943,321.02 					"/>
					<polygon style="fill:#455A64;" points="99.603,320.639 96.636,318.926 97.955,318.164 100.922,319.877 					"/>
					<polygon style="fill:#455A64;" points="101.581,319.496 97.625,317.212 98.944,316.451 102.9,318.735 					"/>
				</g>
				<g id="XMLID_270_">
					<path id="XMLID_281_" style="fill:#455A64;" d="M190.997,264.165c-0.324-0.026-0.599,0.015-0.776,0.118l-4.933,2.84
						c-0.32,0.184-0.237,0.521,0.188,0.766l1.798,1.038c0.237,0.137,0.546,0.227,0.869,0.254c0.138,0.012,0.27,0.01,0.39-0.004
						c0.156-0.018,0.286-0.056,0.385-0.114l4.933-2.84c0.319-0.185,0.237-0.521-0.189-0.767l-1.798-1.038
						C191.628,264.282,191.32,264.192,190.997,264.165z M188.097,268.998c-0.117-0.009-0.253-0.055-0.372-0.123l-1.798-1.038
						c-0.313-0.181-0.38-0.448-0.144-0.584l4.933-2.84c0.058-0.033,0.128-0.055,0.201-0.064c0.041-0.005,0.082-0.006,0.124-0.002
						c0.117,0.009,0.253,0.055,0.371,0.123l1.798,1.038c0.314,0.181,0.381,0.449,0.145,0.584l-4.933,2.84
						C188.334,268.985,188.217,269.008,188.097,268.998z"/>
					<g id="XMLID_278_">
						<path style="fill:#455A64;" d="M187.031,266.893l2.127,1.228l-0.776,0.446c-0.066,0.038-0.214,0.051-0.263,0.023l-1.582-0.913
							c-0.227-0.131-0.277-0.334-0.111-0.434L187.031,266.893z"/>
						<polygon style="fill:#455A64;" points="187.395,266.69 188.317,266.154 190.445,267.382 189.516,267.914 						"/>
						<polygon style="fill:#455A64;" points="188.682,265.95 189.604,265.415 191.738,266.647 190.809,267.178 						"/>
						<path style="fill:#455A64;" d="M191.032,264.757l1.533,0.885c0.282,0.163,0.221,0.4-0.157,0.618l-0.312,0.18l-2.127-1.228
							l0.736-0.425C190.791,264.738,190.971,264.721,191.032,264.757z"/>
					</g>
					<g id="XMLID_271_">
						<path id="XMLID_272_" style="fill:#455A64;" d="M192.061,264.319c0.135-0.079,0.544,0.029,0.913,0.242l0.334,0.193
							c0.369,0.213,0.564,0.455,0.434,0.539l-0.234,0.154l-1.693-0.984C191.816,264.463,191.926,264.399,192.061,264.319z"/>
					</g>
				</g>
				<polygon style="fill:#455A64;" points="178.434,272.46 182.259,269.138 184.275,272.008 181.631,271.287 				"/>
			</g>
		</g>
		<polygon id="Shadow" style="opacity:0.1;" points="222.37,285.215 135.063,335.622 222.372,386.17 309.678,335.622 		"/>
	</g>
	<g id="Message">
		<path id="XMLID_396_" style="fill:#27DEBF;" d="M256.576,385.723v0.642c0,1.027,0.721,2.276,1.611,2.79l34.553,19.949
			c0.889,0.514,2.332,0.514,3.221,0l57.217-33.034c0.889-0.514,1.611-1.763,1.611-2.79v-0.642c0-1.027-0.721-2.276-1.611-2.79
			l-34.553-19.949c-0.89-0.514-2.332-0.514-3.221,0l-57.217,33.034C257.297,383.446,256.576,384.695,256.576,385.723z"/>
		<path id="XMLID_268_" style="fill:#27DEBF;" d="M256.576,385.723v0.642c0,1.027,0.721,2.276,1.611,2.79l34.553,19.949
			c0.889,0.514,2.332,0.514,3.221,0l57.217-33.034c0.889-0.514,1.611-1.763,1.611-2.79v-0.642c0-1.027-0.721-2.276-1.611-2.79
			l-34.553-19.949c-0.89-0.514-2.332-0.514-3.221,0l-57.217,33.034C257.297,383.446,256.576,384.695,256.576,385.723z"/>
		<path style="opacity:0.3;fill:#FFFFFF;" d="M353.178,369.848l-34.553-19.949c-0.89-0.514-2.332-0.514-3.222,0l-21.053,12.155
			v47.435h-0.001c0.583,0,1.166-0.128,1.611-0.385l57.217-33.034c0.89-0.514,1.611-1.763,1.611-2.79v-0.642
			C354.789,371.61,354.067,370.361,353.178,369.848z"/>
		<path style="opacity:0.15;" d="M353.178,369.848l-34.553-19.949c-0.89-0.514-2.332-0.514-3.222,0l-21.053,12.155v47.435h-0.001
			c0.583,0,1.166-0.128,1.611-0.385l57.217-33.034c0.89-0.514,1.611-1.763,1.611-2.79v-0.642
			C354.789,371.61,354.067,370.361,353.178,369.848z"/>
		<path style="opacity:0.3;fill:#FFFFFF;" d="M294.35,362.054l-36.164,20.879c-0.889,0.513-1.611,1.763-1.611,2.79v0.642
			c0,1.027,0.721,2.276,1.611,2.79l34.553,19.949c0.445,0.257,1.027,0.385,1.61,0.385h0.001V362.054z"/>
		<path style="opacity:0.2;" d="M294.35,362.054l-36.164,20.879c-0.889,0.513-1.611,1.763-1.611,2.79v0.642
			c0,1.027,0.721,2.276,1.611,2.79l34.553,19.949c0.445,0.257,1.027,0.385,1.61,0.385h0.001V362.054z"/>
		<path id="XMLID_392_" style="fill:#27DEBF;" d="M287.207,401.547l-29.02-16.755c-0.89-0.514-0.89-1.346,0-1.86l57.217-33.034
			c0.89-0.514,2.332-0.514,3.221,0l34.553,19.949c0.89,0.514,0.89,1.346,0,1.86l-9.492,5.48l-3.323,1.919l-44.402,25.635
			c-0.89,0.514-2.332,0.514-3.221,0l-2.815-1.625L287.207,401.547z"/>
		<path id="XMLID_371_" style="opacity:0.3;fill:#FFFFFF;" d="M287.207,401.547l-29.02-16.755c-0.89-0.514-0.89-1.346,0-1.86
			l57.217-33.034c0.89-0.514,2.332-0.514,3.221,0l34.553,19.949c0.89,0.514,0.89,1.346,0,1.86l-9.492,5.48l-3.323,1.919
			l-44.402,25.635c-0.89,0.514-2.332,0.514-3.221,0l-2.815-1.625L287.207,401.547z"/>
		<path style="opacity:0.15;" d="M313.551,373.713l39.627-3.866l-39.277,2.224l4.724-22.173c-0.482-0.278-1.124-0.392-1.755-0.369
			l-7.41,29.971l-51.927,4.283c-0.038,0.363,0.174,0.732,0.654,1.009l41.936-2.434l-5.772,22.768l7.381-22.862h0l7.162-0.416
			c0.902-0.052,1.725-0.416,2.364-0.988l0.004-0.001l0.002-0.005c0.596-0.536,1.033-1.252,1.209-2.078L313.551,373.713z"/>
		<path id="XMLID_384_" style="opacity:0.3;fill:#FFFFFF;" d="M269.922,382.762l39.537-3.261l1.416-5.665l0.781-3.154l5.219-21.153
			c-0.535,0.019-1.063,0.134-1.472,0.37l-28.608,16.517l-28.608,16.517c-0.41,0.237-0.622,0.541-0.654,0.851l7.931-0.654
			L269.922,382.762z"/>
		<path id="XMLID_382_" style="fill:#F28F8F;" d="M310.471,345.168c3.614-2.086,9.472-2.086,13.086,0
			c3.614,2.086,3.614,5.469,0,7.555c-3.614,2.086-9.472,2.086-13.086,0C306.858,350.637,306.858,347.254,310.471,345.168z"/>
		<g>
			<path style="fill:#FAFAFA;" d="M312.444,350.188c-0.115-0.008-0.206-0.04-0.272-0.094c-0.064-0.054-0.089-0.115-0.074-0.182
				l0.541-2.379c0.015-0.058,0.035-0.128,0.061-0.21c0.024-0.082,0.091-0.153,0.199-0.216l1.324-0.764
				c0.079-0.045,0.177-0.068,0.293-0.068s0.213,0.023,0.293,0.068l7.007,4.046c0.078,0.045,0.118,0.102,0.119,0.169
				c-0.001,0.066-0.04,0.122-0.119,0.169l-1.421,0.819c-0.081,0.047-0.178,0.069-0.293,0.069c-0.116,0-0.214-0.023-0.293-0.069
				l-4.74-2.737l-0.314,1.309c-0.014,0.067-0.067,0.12-0.157,0.16c-0.091,0.04-0.194,0.056-0.31,0.047L312.444,350.188z"/>
		</g>
	</g>
</g>
<g id="Box">
	<g id="Box_7_">
		<g id="Box_8_">
			<g id="Back_box_3_">
				<g id="XMLID_6016_">
					<polygon id="XMLID_6017_" points="136.798,304.431 222.372,255.025 307.945,304.431 222.372,353.837 					"/>
				</g>
				<polygon id="XMLID_5973_" style="fill:#37474F;" points="222.37,255.025 222.37,170.538 135.063,220.946 208.109,263.26 				"/>
				<g id="XMLID_5970_">
					<polygon id="XMLID_5971_" style="fill:#263238;" points="222.37,170.538 222.37,255.025 236.635,263.259 309.678,220.945 					
						"/>
				</g>
			</g>
			<g id="Front_Box_3_">
				<g id="XMLID_5968_">
					<polygon id="XMLID_5969_" style="fill:#27DEBF;" points="135.063,220.946 135.063,303.43 222.37,353.837 222.37,271.494 					
						"/>
				</g>
				<g id="XMLID_553_" style="opacity:0.38;">
					<polygon id="XMLID_566_" points="135.063,220.946 135.063,303.43 222.37,353.837 222.37,271.494 					"/>
				</g>
				<g id="XMLID_5966_">
					<g>
						<polygon style="fill:#27DEBF;" points="222.37,271.494 222.37,353.837 309.678,303.429 309.678,220.945 						"/>
					</g>
					<g style="opacity:0.23;">
						<polygon points="222.37,271.494 222.37,353.837 309.678,303.429 309.678,220.945 						"/>
					</g>
					<polygon id="XMLID_5967_" style="opacity:0.7;fill:#FFFFFF;" points="222.372,271.494 224.094,350.69 287.502,316.233 
						222.37,353.837 					"/>
				</g>
				<g id="XMLID_5948_">
					<g id="XMLID_5959_">
						<g id="XMLID_5962_">
							<path id="XMLID_5965_" style="fill:#F0F0F0;" d="M245.809,332.204c-0.258,0-0.466-0.209-0.466-0.466v-10.442
								c0-0.257,0.208-0.466,0.466-0.466c0.258,0,0.466,0.209,0.466,0.466v10.442C246.275,331.995,246.067,332.204,245.809,332.204z
								"/>
						</g>
						<g id="XMLID_5960_">
							<path id="XMLID_5961_" style="fill:#F0F0F0;" d="M244.445,324.913c-0.062,0-0.125-0.013-0.185-0.038
								c-0.237-0.102-0.345-0.377-0.243-0.614l1.659-3.832l1.849,2.137c0.168,0.195,0.148,0.49-0.047,0.659
								c-0.194,0.164-0.489,0.148-0.657-0.047l-0.879-1.016l-1.069,2.47C244.796,324.808,244.625,324.913,244.445,324.913z"/>
						</g>
					</g>
					<g id="XMLID_5949_">
						<g id="XMLID_5957_">
							<path id="XMLID_5958_" style="fill:#F0F0F0;" d="M250.118,329.747c-0.257,0-0.466-0.209-0.466-0.466v-10.44
								c0-0.257,0.208-0.466,0.466-0.466c0.258,0,0.466,0.209,0.466,0.466v10.44C250.585,329.538,250.376,329.747,250.118,329.747z"
								/>
						</g>
						<g id="XMLID_5950_">
							<path id="XMLID_5951_" style="fill:#F0F0F0;" d="M248.755,322.456c-0.062,0-0.125-0.013-0.185-0.038
								c-0.237-0.102-0.345-0.377-0.243-0.614l1.658-3.828l1.849,2.133c0.169,0.195,0.148,0.49-0.047,0.657
								c-0.196,0.169-0.488,0.147-0.657-0.046l-0.879-1.016l-1.068,2.47C249.107,322.35,248.936,322.456,248.755,322.456z"/>
						</g>
					</g>
				</g>
				<g id="XMLID_261_">
					<g id="XMLID_5944_">
						<path id="XMLID_5947_" style="fill:#F0F0F0;" d="M233.385,339.291c-0.182,0-0.355-0.044-0.509-0.131
							c-0.355-0.202-0.558-0.61-0.558-1.12v-1.278c0-0.257,0.208-0.466,0.466-0.466c0.258,0,0.466,0.209,0.466,0.466v1.278
							c0,0.191,0.053,0.289,0.088,0.31c0.033,0.026,0.143,0.014,0.305-0.08c0.411-0.24,0.866-1.163,0.866-2.106v-5.345
							c0-0.257,0.208-0.466,0.466-0.466c0.257,0,0.466,0.209,0.466,0.466v5.345c0,1.216-0.57,2.467-1.326,2.911
							C233.871,339.218,233.62,339.291,233.385,339.291z"/>
					</g>
					<g id="XMLID_266_">
						<path id="XMLID_5941_" style="fill:#F0F0F0;" d="M228.478,334.985v-0.806c0-3.796,2.673-8.428,5.959-10.325
							c1.681-0.968,3.287-1.112,4.516-0.4c1.232,0.712,1.91,2.172,1.91,4.112v0.269L228.478,334.985z M237.227,323.94
							c-0.702,0-1.494,0.244-2.324,0.723c-2.792,1.611-5.105,5.366-5.449,8.684l10.473-6.047c-0.055-1.458-0.56-2.532-1.44-3.039
							C238.116,324.047,237.691,323.94,237.227,323.94z"/>
					</g>
				</g>
			</g>
		</g>
		<polygon style="fill:#27DEBF;" points="222.37,170.538 135.063,220.946 222.372,271.494 309.678,220.945 		"/>
		<polygon style="opacity:0.1;" points="222.37,170.538 135.063,220.946 222.372,271.494 309.678,220.945 		"/>
		<polygon style="opacity:0.7;fill:#FFFFFF;" points="135.063,220.946 222.372,268.367 309.678,220.945 222.372,271.494 		"/>
		<polygon style="fill:#455A64;" points="171.289,200.025 258.668,250.473 272.111,242.695 184.747,192.255 		"/>
		<g>
			<polygon style="fill:#27DEBF;" points="272.113,242.688 272.113,259.784 270.49,258.856 268.8,261.772 267.11,260.778 
				265.421,263.726 263.731,262.732 262.042,265.648 260.352,264.687 258.662,267.603 258.662,250.474 			"/>
			<polygon style="fill:#37474F;" points="272.113,242.688 272.113,259.784 270.49,258.856 268.8,261.772 267.11,260.778 
				265.421,263.726 263.731,262.732 262.042,265.648 260.352,264.687 258.662,267.603 258.662,250.474 			"/>
		</g>
	</g>
</g>
<g id="Speech_Bubble_1_">
	<g id="Speech_Bubble">
		<g id="Speech__Bubble">
			<g>
				<g>
					<path style="fill:#27DEBF;" d="M160.517,124.278l-10.695,6.175l-10.697,6.176l8.276,21.735c0.189,0.497,0.51,0.86,0.893,1.093
						c1.149,0.699,12.336,7.11,12.719,7.343c1.149,0.7,2.859,0.229,3.267-1.312l8.956-33.867L160.517,124.278z"/>
				</g>
				<g style="opacity:0.2;">
					<path d="M160.517,124.278l-10.695,6.175l-10.697,6.176l8.276,21.735c0.189,0.497,0.51,0.86,0.893,1.093
						c1.149,0.699,12.336,7.11,12.719,7.343c1.149,0.7,2.859,0.229,3.267-1.312l8.956-33.867L160.517,124.278z"/>
				</g>
				<g>
					<path style="fill:#27DEBF;" d="M151.844,143.972l10.697-6.176l10.695-6.175l-8.957,33.867c-0.544,2.055-3.403,2.206-4.16,0.219
						L151.844,143.972z"/>
				</g>
			</g>
			<g>
				<path style="fill:#27DEBF;" d="M226.132,63.424c0-4.27-1.482-7.28-3.883-8.713c-2.286-1.364-10.554-6.082-12.835-7.394
					c-2.448-1.408-5.825-1.203-9.559,0.953L90.468,111.425l0.001,53.849l12.719,7.326l109.387-63.154
					c7.488-4.323,13.558-14.837,13.558-23.483L226.132,63.424z"/>
			</g>
			<g style="opacity:0.5;">
				<path style="fill:#FFFFFF;" d="M226.132,63.424c0-4.27-1.482-7.28-3.883-8.713c-2.286-1.364-10.554-6.082-12.835-7.394
					c-2.448-1.408-5.825-1.203-9.559,0.953L90.468,111.425l0.001,53.849l12.719,7.326l109.387-63.154
					c7.488-4.323,13.558-14.837,13.558-23.483L226.132,63.424z"/>
			</g>
			<g>
				<path style="fill:#27DEBF;" d="M212.574,109.445c7.488-4.323,13.558-14.837,13.558-23.483l0-22.538
					c0-8.646-6.07-12.151-13.558-7.828l-109.387,63.155l0.001,53.849L212.574,109.445z"/>
			</g>
		</g>
		<g id="Icon">
			<g>
				<g id="XMLID_378_">
					<path style="fill:#37474F;" d="M109.815,102.99l0.001-0.003l-0.062-0.032c-0.002-0.001-0.004-0.002-0.007-0.003l-14.938-8.63
						c-0.005-0.003-0.009-0.005-0.014-0.007l-0.087-0.045l-0.002,0.004c-6.962-3.529-16.241-2.582-26.255,3.867
						c-20.118,12.956-35.486,42.834-34.325,66.734c0.579,11.913,5.114,20.205,12.05,23.809l-0.001,0.003l0.061,0.031
						c0.003,0.001,0.005,0.003,0.008,0.004l14.96,8.607c0.002,0.001,0.004,0.002,0.007,0.003l0.073,0.037l0.001-0.003
						c6.964,3.54,16.273,2.506,26.296-3.948c20.118-12.956,35.486-42.834,34.325-66.734
						C121.328,114.771,116.751,106.594,109.815,102.99z"/>
				</g>
				<g id="XMLID_377_">
					<path style="fill:#263238;" d="M60.698,197.056l-14.448-8.335c-0.011,0.001-0.011,0.001-0.011,0.001l-0.067-0.04
						c-6.932-3.613-11.465-11.905-12.043-23.802c-0.518-10.659,2.258-22.501,7.262-33.494l14.92,8.719
						c-5.015,10.993-7.78,22.835-7.262,33.494C49.615,185.256,54.011,193.333,60.698,197.056z"/>
				</g>
				<g id="XMLID_373_">
					<path style="fill:#455A64;" d="M87.582,193.418c20.118-12.956,35.486-42.834,34.325-66.734
						c-1.161-23.901-18.411-32.773-38.529-19.818C63.26,119.822,47.892,149.7,49.053,173.601
						C50.214,197.501,67.464,206.374,87.582,193.418z"/>
				</g>
			</g>
			<g>
				<g>
					<path style="fill:#27DEBF;" d="M83.117,147.931c-1.034,0-2.009-0.253-2.887-0.76c-2.362-1.364-3.716-4.42-3.716-8.388
						c0-7.155,4.397-15.516,9.801-18.637c2.559-1.477,5.078-1.65,7.087-0.491c2.362,1.364,3.716,4.421,3.716,8.388
						c0,7.156-4.397,15.517-9.802,18.638C85.875,147.512,84.448,147.931,83.117,147.931z M90.509,120.901
						c-0.982,0-2.07,0.328-3.194,0.977c-4.853,2.802-8.8,10.385-8.8,16.904c0,3.233,0.989,5.659,2.714,6.656
						c1.368,0.789,3.173,0.614,5.085-0.49c4.854-2.802,8.801-10.386,8.801-16.905c0-3.233-0.989-5.659-2.714-6.655
						C91.837,121.063,91.199,120.901,90.509,120.901z"/>
				</g>
				<g>
					<path style="fill:#27DEBF;" d="M68.561,145.511c-0.346,0-0.682-0.179-0.867-0.5c-0.276-0.479-0.112-1.091,0.366-1.367
						l8.964-5.176c0.48-0.276,1.091-0.112,1.367,0.366c0.276,0.479,0.112,1.09-0.366,1.367l-8.964,5.176
						C68.903,145.467,68.73,145.511,68.561,145.511z"/>
				</g>
				<g>
					<path style="fill:#27DEBF;" d="M74.055,169.009c-0.136,0-0.27-0.028-0.397-0.083c-0.291-0.126-0.505-0.382-0.577-0.69
						l-6.506-27.822c-0.032-0.136-0.155-0.579-0.42-0.629l-2.519-0.475c-0.543-0.103-0.9-0.626-0.798-1.169
						c0.103-0.542,0.619-0.893,1.169-0.798l2.519,0.475c0.995,0.189,1.723,0.968,1.998,2.139l6.199,26.51l22.788-13.157
						c0.663-0.383,1.307-1.444,1.495-2.469l4.367-23.72c0.155-0.842-0.039-1.299-0.152-1.379c-0.017-0.013-0.138-0.01-0.342,0.108
						l-6.262,3.616c-0.481,0.276-1.091,0.113-1.367-0.366c-0.276-0.479-0.112-1.091,0.366-1.367l6.262-3.616
						c0.879-0.506,1.789-0.511,2.498-0.01c0.879,0.621,1.239,1.883,0.964,3.377l-4.367,23.72c-0.298,1.617-1.287,3.161-2.462,3.838
						l-23.956,13.831C74.401,168.964,74.228,169.009,74.055,169.009z"/>
				</g>
				<g>
					<path style="fill:#27DEBF;" d="M72.801,177.365c-0.448,0-0.876-0.112-1.265-0.337c-0.974-0.562-1.533-1.757-1.533-3.28
						c0-2.554,1.531-5.44,3.484-6.567l24.023-13.87c0.481-0.276,1.09-0.112,1.367,0.366c0.276,0.479,0.112,1.091-0.366,1.367
						l-24.023,13.87c-1.346,0.778-2.483,2.991-2.483,4.834c0,0.914,0.274,1.398,0.531,1.547c0.295,0.169,0.723-0.026,0.951-0.158
						l25.712-14.844c0.481-0.275,1.091-0.112,1.367,0.366c0.276,0.479,0.112,1.091-0.366,1.367L74.488,176.87
						C73.917,177.199,73.344,177.365,72.801,177.365z"/>
				</g>
				<g>
					<g>
						<path style="fill:#27DEBF;" d="M76.178,187.184c-0.45,0-0.88-0.112-1.272-0.338c-0.979-0.566-1.54-1.767-1.54-3.299
							c0-2.574,1.541-5.478,3.508-6.614c1.047-0.604,2.104-0.659,2.969-0.159c0.979,0.566,1.541,1.768,1.541,3.299
							c0,2.572-1.542,5.478-3.509,6.614C77.301,187.018,76.724,187.184,76.178,187.184z M78.566,178.439
							c-0.252,0-0.524,0.13-0.691,0.226c-1.36,0.785-2.507,3.02-2.507,4.881c0,0.925,0.278,1.416,0.539,1.566
							c0.299,0.17,0.735-0.024,0.967-0.159c1.36-0.785,2.508-3.02,2.508-4.881c0-0.924-0.278-1.416-0.539-1.566
							C78.759,178.459,78.664,178.439,78.566,178.439z"/>
					</g>
					<g>
						<path style="fill:#27DEBF;" d="M93.069,177.432c-0.45,0-0.88-0.112-1.272-0.338c-0.979-0.566-1.54-1.767-1.54-3.299
							c0-2.574,1.541-5.478,3.508-6.614c1.047-0.604,2.103-0.66,2.969-0.159c0.979,0.566,1.541,1.768,1.541,3.299
							c0,2.572-1.542,5.478-3.509,6.614C94.192,177.266,93.615,177.432,93.069,177.432z M95.457,168.687
							c-0.252,0-0.524,0.129-0.691,0.226c-1.36,0.785-2.507,3.02-2.507,4.881c0,0.925,0.278,1.416,0.539,1.567
							c0.298,0.172,0.736-0.025,0.967-0.159c1.36-0.785,2.508-3.02,2.508-4.881c0-0.924-0.278-1.416-0.539-1.566
							C95.649,168.707,95.554,168.687,95.457,168.687z"/>
					</g>
				</g>
				<g>
					<path style="fill:#27DEBF;" d="M83.317,179.381c-0.345,0-0.682-0.179-0.867-0.5c-0.276-0.479-0.112-1.091,0.366-1.367
						l5.009-2.893c0.481-0.275,1.091-0.112,1.367,0.366c0.276,0.479,0.112,1.091-0.366,1.367l-5.009,2.893
						C83.658,179.337,83.486,179.381,83.317,179.381z"/>
				</g>
				<g>
					<path style="fill:#27DEBF;" d="M85.344,140.051c-0.248,0-0.49-0.093-0.677-0.264l-2.993-2.745
						c-0.407-0.373-0.434-1.006-0.06-1.414c0.373-0.408,1.006-0.433,1.414-0.06l1.977,1.813l5.363-11.75
						c0.229-0.501,0.82-0.724,1.326-0.494c0.502,0.229,0.724,0.822,0.494,1.326l-5.935,13.002c-0.132,0.291-0.397,0.501-0.711,0.565
						C85.476,140.044,85.41,140.051,85.344,140.051z"/>
				</g>
			</g>
		</g>
		<g>
			<path style="fill:#FAFAFA;" d="M147.152,106.723c0.027-0.765,0.133-1.535,0.32-2.306c0.188-0.772,0.452-1.502,0.797-2.191
				c0.344-0.687,0.761-1.317,1.255-1.89c0.491-0.573,1.06-1.046,1.705-1.418c0.635-0.367,1.201-0.549,1.698-0.547
				c0.496,0.002,0.916,0.148,1.261,0.438c0.343,0.292,0.608,0.715,0.797,1.27c0.187,0.556,0.294,1.202,0.319,1.939
				c0.017,0.565,0.027,1.164,0.027,1.794s-0.009,1.225-0.027,1.786c-0.025,0.765-0.132,1.535-0.319,2.306
				c-0.189,0.774-0.454,1.506-0.797,2.201c-0.344,0.695-0.764,1.327-1.261,1.895c-0.497,0.569-1.063,1.036-1.698,1.402
				c-0.645,0.373-1.214,0.561-1.705,0.563c-0.493,0.003-0.91-0.145-1.255-0.442c-0.344-0.298-0.609-0.724-0.797-1.28
				c-0.188-0.556-0.294-1.201-0.32-1.938c-0.017-0.539-0.026-1.124-0.026-1.754C147.125,107.918,147.134,107.31,147.152,106.723z
				 M152.887,106.892c0.009-0.247,0.017-0.52,0.027-0.819c0.009-0.3,0.013-0.604,0.013-0.913c0-0.308-0.004-0.603-0.013-0.887
				c-0.009-0.283-0.017-0.536-0.027-0.76c-0.017-0.324-0.063-0.606-0.137-0.846c-0.074-0.239-0.179-0.422-0.314-0.552
				c-0.135-0.131-0.303-0.198-0.502-0.202c-0.201-0.006-0.436,0.069-0.705,0.225c-0.27,0.156-0.507,0.352-0.706,0.589
				c-0.201,0.236-0.368,0.496-0.503,0.783c-0.135,0.286-0.238,0.59-0.313,0.914c-0.074,0.326-0.12,0.661-0.137,1.005
				c-0.018,0.238-0.029,0.502-0.033,0.793c-0.005,0.291-0.007,0.591-0.007,0.899c0,0.31,0.002,0.609,0.007,0.901
				c0.004,0.294,0.014,0.556,0.033,0.787c0.034,0.65,0.184,1.119,0.449,1.41c0.266,0.288,0.67,0.277,1.21-0.035
				c0.539-0.311,0.94-0.763,1.201-1.357C152.691,108.231,152.844,107.588,152.887,106.892z"/>
			<path style="fill:#FAFAFA;" d="M160.726,93.637c0.575-0.331,1.089-0.535,1.541-0.608c0.453-0.073,0.839-0.014,1.157,0.177
				c0.318,0.192,0.562,0.53,0.732,1.015c0.169,0.485,0.255,1.117,0.255,1.895c0,1.006-0.136,1.919-0.406,2.739
				c-0.27,0.82-0.652,1.547-1.15,2.182l1.62,3.852c0.026,0.065,0.039,0.132,0.039,0.199c0,0.12-0.029,0.241-0.085,0.361
				c-0.057,0.119-0.124,0.203-0.203,0.248l-1.777,1.025c-0.174,0.101-0.299,0.112-0.372,0.034c-0.074-0.077-0.133-0.164-0.176-0.26
				l-1.45-3.467l-1.203,0.695v4.303c0,0.149-0.034,0.296-0.104,0.442c-0.069,0.149-0.153,0.25-0.248,0.305l-1.711,0.988
				c-0.097,0.056-0.179,0.051-0.25-0.016c-0.069-0.067-0.104-0.175-0.104-0.322V96.428c0-0.149,0.035-0.296,0.104-0.442
				c0.07-0.149,0.153-0.25,0.25-0.306L160.726,93.637z M159.249,100.583l1.477-0.852c0.366-0.211,0.669-0.493,0.907-0.845
				c0.241-0.354,0.36-0.81,0.36-1.375c0-0.563-0.119-0.883-0.36-0.959c-0.239-0.076-0.541-0.008-0.907,0.203l-1.477,0.852V100.583z"
				/>
			<path style="fill:#FAFAFA;" d="M169.727,88.439c0.601-0.346,1.15-0.526,1.646-0.538c0.496-0.011,0.925,0.126,1.287,0.414
				c0.361,0.287,0.644,0.717,0.849,1.29c0.204,0.573,0.319,1.26,0.346,2.063c0.009,0.276,0.013,0.532,0.013,0.766s0,0.459,0,0.675
				c0,0.214,0,0.434,0,0.663c0,0.228-0.004,0.479-0.013,0.752c-0.027,0.847-0.139,1.67-0.339,2.469
				c-0.201,0.8-0.477,1.549-0.83,2.25c-0.353,0.699-0.773,1.327-1.261,1.884c-0.488,0.557-1.031,1.008-1.633,1.355l-3.527,2.036
				c-0.096,0.055-0.178,0.05-0.249-0.018c-0.069-0.066-0.104-0.173-0.104-0.322V91.185c0-0.147,0.035-0.295,0.104-0.442
				c0.07-0.148,0.153-0.249,0.249-0.304L169.727,88.439z M171.438,92.983c-0.052-1.513-0.645-1.941-1.776-1.288l-1.333,0.771v7.642
				l1.398-0.807c1.097-0.633,1.667-1.733,1.711-3.3c0.009-0.286,0.013-0.554,0.013-0.803c0-0.247,0-0.489,0-0.724
				c0-0.234,0-0.473,0-0.713C171.451,93.519,171.447,93.259,171.438,92.983z"/>
			<path style="fill:#FAFAFA;" d="M181.902,92.272c0.096-0.056,0.178-0.049,0.249,0.016c0.069,0.069,0.104,0.175,0.104,0.322v2.132
				c0,0.149-0.035,0.296-0.104,0.442c-0.07,0.149-0.153,0.25-0.249,0.306l-6.192,3.575c-0.097,0.056-0.179,0.05-0.249-0.017
				c-0.07-0.067-0.105-0.174-0.105-0.322V85.732c0-0.148,0.035-0.296,0.105-0.442c0.069-0.149,0.152-0.249,0.249-0.305l6.088-3.515
				c0.095-0.055,0.178-0.049,0.248,0.018c0.07,0.067,0.105,0.173,0.105,0.322v2.13c0,0.149-0.035,0.296-0.105,0.443
				c-0.069,0.148-0.153,0.25-0.248,0.305l-4.024,2.323v2.173l3.736-2.158c0.097-0.055,0.178-0.049,0.249,0.018
				c0.069,0.067,0.105,0.173,0.105,0.32v2.132c0,0.149-0.036,0.296-0.105,0.443c-0.07,0.148-0.152,0.249-0.249,0.305l-3.736,2.157
				v2.253L181.902,92.272z"/>
			<path style="fill:#FAFAFA;" d="M187.651,78.091c0.575-0.331,1.089-0.535,1.541-0.608c0.453-0.073,0.839-0.014,1.157,0.177
				c0.318,0.192,0.563,0.53,0.732,1.015c0.169,0.485,0.255,1.117,0.255,1.895c0,1.006-0.136,1.919-0.405,2.739
				c-0.27,0.819-0.653,1.547-1.151,2.182l1.62,3.852c0.025,0.065,0.039,0.132,0.039,0.199c0,0.12-0.028,0.241-0.085,0.361
				c-0.057,0.119-0.124,0.203-0.203,0.248l-1.777,1.025c-0.174,0.101-0.299,0.112-0.372,0.034c-0.074-0.077-0.133-0.164-0.176-0.26
				l-1.45-3.467l-1.202,0.695v4.303c0,0.149-0.035,0.296-0.105,0.442c-0.069,0.149-0.152,0.25-0.248,0.305l-1.711,0.988
				c-0.097,0.056-0.179,0.051-0.249-0.016c-0.07-0.067-0.105-0.175-0.105-0.322V80.883c0-0.149,0.035-0.296,0.105-0.442
				c0.069-0.149,0.152-0.25,0.249-0.306L187.651,78.091z M186.175,85.037l1.476-0.852c0.366-0.211,0.669-0.493,0.908-0.845
				c0.239-0.354,0.359-0.81,0.359-1.375c0-0.563-0.119-0.883-0.359-0.959c-0.24-0.076-0.542-0.008-0.908,0.203l-1.476,0.852V85.037z
				"/>
			<path style="fill:#FAFAFA;" d="M133.154,135.779c-0.009,0.179-0.015,0.425-0.019,0.736c-0.004,0.311-0.007,0.632-0.007,0.96
				s0.003,0.648,0.007,0.96c0.004,0.314,0.01,0.555,0.019,0.724c0.017,0.298,0.057,0.571,0.117,0.817
				c0.061,0.247,0.157,0.439,0.288,0.578c0.13,0.14,0.296,0.215,0.495,0.226c0.201,0.013,0.449-0.067,0.745-0.239
				c0.296-0.17,0.54-0.366,0.732-0.584c0.192-0.217,0.348-0.438,0.471-0.664c0.121-0.224,0.215-0.449,0.28-0.675
				c0.065-0.225,0.115-0.428,0.15-0.609c0.044-0.24,0.092-0.419,0.145-0.535c0.052-0.118,0.152-0.22,0.3-0.306l1.711-0.988
				c0.079-0.046,0.146-0.04,0.203,0.014c0.057,0.054,0.086,0.142,0.086,0.263c-0.009,0.689-0.118,1.395-0.327,2.119
				c-0.209,0.724-0.496,1.413-0.862,2.067c-0.366,0.654-0.795,1.254-1.287,1.8c-0.492,0.544-1.025,0.982-1.6,1.315
				c-0.627,0.363-1.187,0.542-1.679,0.537c-0.492-0.004-0.912-0.154-1.261-0.449c-0.349-0.294-0.616-0.721-0.804-1.275
				c-0.187-0.556-0.294-1.196-0.319-1.918c-0.017-0.54-0.027-1.125-0.027-1.755s0.009-1.239,0.027-1.824
				c0.016-0.748,0.121-1.51,0.313-2.284c0.192-0.774,0.46-1.508,0.803-2.204c0.344-0.694,0.764-1.329,1.262-1.905
				c0.496-0.575,1.058-1.044,1.685-1.406c0.575-0.331,1.108-0.509,1.6-0.531c0.492-0.022,0.921,0.081,1.287,0.312
				c0.366,0.232,0.653,0.589,0.862,1.072c0.209,0.483,0.318,1.063,0.327,1.742c0,0.121-0.029,0.242-0.086,0.361
				c-0.057,0.121-0.124,0.203-0.203,0.248l-1.711,0.989c-0.148,0.086-0.248,0.1-0.3,0.043c-0.053-0.057-0.101-0.179-0.145-0.37
				c-0.035-0.141-0.085-0.286-0.15-0.436c-0.065-0.15-0.159-0.267-0.28-0.351c-0.123-0.083-0.279-0.124-0.471-0.121
				c-0.192,0.004-0.436,0.092-0.732,0.262c-0.297,0.171-0.544,0.378-0.745,0.621c-0.2,0.245-0.365,0.51-0.495,0.8
				c-0.132,0.289-0.227,0.594-0.288,0.91C133.211,135.143,133.171,135.46,133.154,135.779z"/>
			<path style="fill:#FAFAFA;" d="M139.921,131.772c0.025-0.765,0.132-1.535,0.319-2.307c0.188-0.772,0.453-1.502,0.797-2.191
				c0.344-0.687,0.762-1.317,1.255-1.89c0.491-0.573,1.06-1.046,1.705-1.418c0.636-0.367,1.202-0.549,1.698-0.547
				c0.496,0.002,0.916,0.148,1.261,0.438c0.344,0.292,0.609,0.715,0.797,1.27c0.188,0.556,0.295,1.202,0.32,1.939
				c0.017,0.565,0.026,1.164,0.026,1.794s-0.009,1.225-0.026,1.786c-0.025,0.765-0.133,1.535-0.32,2.305
				c-0.188,0.774-0.452,1.506-0.797,2.201c-0.344,0.695-0.764,1.327-1.261,1.895c-0.496,0.569-1.062,1.036-1.698,1.402
				c-0.645,0.373-1.214,0.561-1.705,0.563c-0.492,0.003-0.91-0.145-1.255-0.442c-0.344-0.298-0.609-0.724-0.797-1.28
				c-0.187-0.555-0.294-1.201-0.319-1.938c-0.017-0.539-0.027-1.124-0.027-1.754C139.895,132.967,139.904,132.358,139.921,131.772z
				 M145.656,131.94c0.008-0.247,0.017-0.52,0.026-0.819c0.009-0.3,0.013-0.604,0.013-0.913c0-0.308-0.004-0.603-0.013-0.887
				c-0.008-0.283-0.017-0.536-0.026-0.76c-0.018-0.324-0.063-0.606-0.137-0.846c-0.073-0.239-0.179-0.422-0.313-0.552
				c-0.137-0.131-0.303-0.198-0.503-0.202c-0.2-0.006-0.436,0.069-0.705,0.225c-0.27,0.156-0.505,0.352-0.706,0.589
				c-0.2,0.235-0.368,0.496-0.502,0.783c-0.136,0.286-0.24,0.59-0.314,0.914c-0.073,0.326-0.119,0.661-0.137,1.005
				c-0.017,0.238-0.029,0.503-0.033,0.793c-0.004,0.292-0.007,0.591-0.007,0.899c0,0.31,0.003,0.609,0.007,0.901
				c0.004,0.294,0.015,0.555,0.033,0.787c0.035,0.65,0.184,1.119,0.451,1.41c0.265,0.289,0.669,0.277,1.209-0.035
				c0.539-0.311,0.941-0.763,1.202-1.357C145.46,133.279,145.613,132.636,145.656,131.94z"/>
			<path style="fill:#FAFAFA;" d="M155.545,131.581c-0.147,0.085-0.267,0.094-0.359,0.025c-0.091-0.068-0.15-0.127-0.175-0.18
				l-2.992-5.151v6.798c0,0.149-0.035,0.296-0.104,0.442c-0.07,0.149-0.153,0.25-0.249,0.305l-1.711,0.988
				c-0.096,0.056-0.179,0.051-0.249-0.016c-0.07-0.067-0.104-0.175-0.104-0.322v-12.993c0-0.149,0.034-0.296,0.104-0.442
				c0.069-0.149,0.153-0.25,0.249-0.306l1.359-0.784c0.148-0.086,0.267-0.095,0.359-0.028c0.092,0.069,0.151,0.128,0.177,0.181
				l2.991,5.151v-6.798c0-0.148,0.035-0.296,0.105-0.442c0.068-0.149,0.152-0.249,0.248-0.305l1.711-0.988
				c0.096-0.055,0.178-0.051,0.248,0.017c0.07,0.066,0.105,0.174,0.105,0.322v12.993c0,0.148-0.035,0.295-0.105,0.442
				c-0.069,0.148-0.152,0.25-0.248,0.305L155.545,131.581z"/>
			<path style="fill:#FAFAFA;" d="M165.409,111.806c0.096-0.055,0.178-0.05,0.249,0.018c0.069,0.066,0.104,0.173,0.104,0.322v2.13
				c0,0.149-0.035,0.296-0.104,0.442c-0.07,0.149-0.153,0.25-0.249,0.305l-3.907,2.256v2.756l3.646-2.105
				c0.095-0.055,0.178-0.049,0.248,0.017c0.07,0.067,0.104,0.175,0.104,0.322v2.132c0,0.149-0.034,0.295-0.104,0.442
				c-0.069,0.148-0.153,0.249-0.248,0.304l-3.646,2.105v4.345c0,0.148-0.035,0.296-0.104,0.442
				c-0.069,0.149-0.153,0.249-0.248,0.304l-1.712,0.989c-0.096,0.055-0.178,0.051-0.249-0.017c-0.069-0.066-0.104-0.174-0.104-0.322
				V116c0-0.148,0.035-0.294,0.104-0.442c0.07-0.148,0.153-0.25,0.249-0.305L165.409,111.806z"/>
			<path style="fill:#FAFAFA;" d="M167.5,124.679c-0.096,0.055-0.179,0.051-0.249-0.017c-0.07-0.066-0.104-0.174-0.104-0.322
				v-12.993c0-0.148,0.034-0.295,0.104-0.442c0.069-0.148,0.153-0.25,0.249-0.305l1.711-0.989c0.096-0.055,0.178-0.049,0.249,0.018
				c0.069,0.067,0.104,0.174,0.104,0.322v12.993c0,0.148-0.035,0.296-0.104,0.442c-0.07,0.149-0.153,0.249-0.249,0.304
				L167.5,124.679z"/>
			<path style="fill:#FAFAFA;" d="M175.286,106.104c0.575-0.331,1.089-0.535,1.541-0.608c0.453-0.073,0.839-0.014,1.157,0.177
				c0.317,0.192,0.562,0.53,0.732,1.015c0.169,0.485,0.255,1.117,0.255,1.895c0,1.006-0.136,1.919-0.406,2.739
				c-0.27,0.819-0.652,1.547-1.15,2.182l1.621,3.852c0.026,0.065,0.039,0.132,0.039,0.199c0,0.12-0.029,0.241-0.085,0.361
				c-0.057,0.119-0.124,0.203-0.203,0.248l-1.778,1.025c-0.173,0.101-0.298,0.112-0.371,0.034c-0.074-0.077-0.134-0.164-0.176-0.26
				l-1.45-3.467l-1.203,0.695v4.303c0,0.149-0.035,0.295-0.104,0.442c-0.069,0.149-0.153,0.25-0.248,0.305l-1.712,0.988
				c-0.096,0.056-0.178,0.051-0.249-0.016c-0.069-0.067-0.104-0.175-0.104-0.322v-12.993c0-0.149,0.035-0.296,0.104-0.442
				c0.07-0.149,0.153-0.25,0.249-0.306L175.286,106.104z M173.81,113.05l1.477-0.852c0.366-0.211,0.669-0.493,0.907-0.845
				c0.24-0.354,0.36-0.81,0.36-1.375c0-0.563-0.119-0.883-0.36-0.959c-0.239-0.076-0.541-0.008-0.907,0.203l-1.477,0.852V113.05z"/>
			<path style="fill:#FAFAFA;" d="M184.293,111.433c-0.074-0.071-0.132-0.148-0.175-0.23l-1.229-2.609v6.658
				c0,0.147-0.035,0.295-0.104,0.442c-0.069,0.148-0.153,0.249-0.248,0.304l-1.712,0.989c-0.096,0.055-0.178,0.05-0.249-0.018
				c-0.069-0.066-0.104-0.173-0.104-0.322v-12.993c0-0.147,0.035-0.294,0.104-0.442c0.07-0.148,0.153-0.249,0.249-0.304l1.516-0.876
				c0.174-0.101,0.305-0.103,0.392-0.005c0.087,0.098,0.143,0.172,0.169,0.224l2.117,4.349l2.117-6.793
				c0.025-0.082,0.081-0.222,0.169-0.42c0.087-0.198,0.217-0.347,0.391-0.447l1.516-0.875c0.096-0.055,0.178-0.049,0.249,0.018
				c0.069,0.067,0.104,0.174,0.104,0.322v12.993c0,0.148-0.035,0.296-0.104,0.442c-0.07,0.149-0.153,0.249-0.249,0.304l-1.711,0.989
				c-0.096,0.055-0.178,0.05-0.248-0.018c-0.07-0.066-0.105-0.173-0.105-0.321v-6.658l-1.228,4.027
				c-0.043,0.133-0.102,0.277-0.176,0.434c-0.074,0.157-0.176,0.273-0.307,0.349l-0.837,0.483
				C184.47,111.503,184.368,111.505,184.293,111.433z"/>
			<path style="fill:#FAFAFA;" d="M197.94,103.886c0.096-0.056,0.178-0.049,0.249,0.017c0.069,0.068,0.104,0.175,0.104,0.322v2.132
				c0,0.148-0.035,0.296-0.104,0.442c-0.07,0.149-0.153,0.249-0.249,0.305l-6.192,3.575c-0.097,0.056-0.179,0.051-0.25-0.016
				c-0.069-0.067-0.104-0.175-0.104-0.322V97.348c0-0.149,0.035-0.296,0.104-0.442c0.07-0.149,0.153-0.25,0.25-0.306l6.088-3.514
				c0.095-0.055,0.178-0.05,0.248,0.018c0.069,0.066,0.105,0.173,0.105,0.321v2.131c0,0.148-0.036,0.296-0.105,0.442
				c-0.069,0.149-0.153,0.25-0.248,0.305l-4.025,2.323v2.173l3.736-2.157c0.097-0.055,0.178-0.05,0.249,0.018
				c0.069,0.066,0.105,0.173,0.105,0.32v2.132c0,0.148-0.036,0.296-0.105,0.442c-0.07,0.149-0.152,0.249-0.249,0.305l-3.736,2.158
				v2.252L197.94,103.886z"/>
			<path style="fill:#FAFAFA;" d="M203.609,89.752c0.601-0.347,1.15-0.526,1.646-0.539c0.496-0.011,0.925,0.126,1.287,0.414
				c0.361,0.288,0.644,0.718,0.849,1.29c0.204,0.572,0.32,1.26,0.346,2.063c0.008,0.276,0.013,0.531,0.013,0.768
				c0,0.234,0,0.459,0,0.673c0,0.214,0,0.436,0,0.664s-0.005,0.478-0.013,0.751c-0.026,0.847-0.14,1.67-0.34,2.47
				c-0.2,0.799-0.476,1.549-0.83,2.248c-0.352,0.7-0.773,1.328-1.26,1.883c-0.488,0.558-1.033,1.009-1.634,1.356l-3.527,2.036
				c-0.097,0.056-0.179,0.051-0.25-0.016c-0.069-0.067-0.104-0.175-0.104-0.322V92.498c0-0.149,0.035-0.296,0.104-0.442
				c0.07-0.149,0.153-0.25,0.25-0.306L203.609,89.752z M205.32,94.295c-0.052-1.511-0.645-1.942-1.777-1.287l-1.333,0.769v7.644
				l1.398-0.807c1.098-0.634,1.667-1.734,1.711-3.301c0.009-0.286,0.013-0.553,0.013-0.802c0-0.249,0-0.489,0-0.724
				c0-0.234,0-0.473,0-0.715C205.333,94.83,205.329,94.571,205.32,94.295z"/>
		</g>
	</g>
</g>
<g id="Character">
	<g id="Character_6_">
		<g>
			<g>
				<g id="XMLID_5213_">
					<path style="fill:#FFA8A7;" d="M400.733,172.821c-0.683-2.736-1.324-4.863-3.081-9.175c0,0-29.872,3.535-37.588,3.687
						c-2.888,12.673-3.803,16.164-6.087,23.673c-1.704,5.604-5.889,23.635-8.173,39.197c-0.489,3.331,2.261,11.55,3.484,14.686
						c7.133,18.28,18.9,47.47,18.9,47.47c1.085,2.858,1.295,5.095,1.01,7.792c-0.365,3.323-1.691,7.653-3.376,11.41
						c-0.522,1.164-1.115,2.538-1.848,3.712c-1.633,3.611,0.665,4.244,4.326,2.624c3.863-1.709,6.32-5.805,7.376-8.77
						c1.576-4.422,4.592-11.378,4.465-13.626l0.044-0.041l-0.073-0.25l-0.001-0.002v0l-0.565-4.44c0,0-2.707-13.717-4.335-29.508
						c-1.357-13.163-1.68-16.757-8.05-26.845l17.245-36.713C389.85,187.978,400.733,172.821,400.733,172.821z"/>
				</g>
				<g id="XMLID_5183_">
					<path id="XMLID_5215_" style="fill:#37474F;" d="M385.067,298.798c0.258,0.27,0.846,1.444,0.846,2.638
						c-0.647,3.261-4.184,5.538-5.598,7.579c-1.414,2.041-2.885,6.534-3.81,9.197c-0.832,2.394-3.876,6.349-8.363,7.168
						c-2.668,0.487-4.769-0.552-6.073-1.802C362.069,323.578,384.133,297.821,385.067,298.798z"/>
					<path id="XMLID_5214_" style="fill:#455A64;" d="M382.552,293.387c1.092,1.667,3.659,4.241,2.46,7.134
						c-1.04,2.51-3.619,4.903-5.336,6.896c-0.962,1.117-1.277,2.303-1.858,3.608c-0.664,1.492-1.693,5.042-2.479,6.481
						c-0.63,1.154-1.491,2.17-2.432,3.088c-1.032,1.007-2.182,1.915-3.495,2.509c-2.043,0.923-5.35,1.517-7.342,0.475
						c-2.055-1.075-3.333-3.615-1.549-6.187c0.528-0.761,1.048-1.523,1.623-2.249c1-1.262,1.736-3.082,2.415-4.572
						c0.462-1.015,2.014-5.2,2.316-6.16c0.622-1.976,1.528-4.823,1.242-6.136c-0.138-0.634-0.383-1.576-0.29-1.999
						c0.103-0.468,0.339-0.701,0.768-0.914c0.957-0.474,2.148-0.329,3.214-0.268c0.947,0.054,1.869,0.325,2.813,0.413
						c1.607,0.149,3.161-0.567,4.169-2.157c0.44-0.693,0.815-1.59,0.756-2.579l-0.245-0.923
						C380.245,289.101,381.332,291.523,382.552,293.387z"/>
				</g>
				<path style="fill:#455A64;" d="M373.976,221.759c0,0-14.43-1.61-26.06-10.777c0,0,9.762-38.113,12.393-44.904l32.002,15.874
					L373.976,221.759z"/>
				<path style="fill:#37474F;" d="M372.429,215.363l-2.759-21.445c0,0-6.654-2.98-9.088-11.744c0,0,3.382,5.915,10.414,8.273
					l4.215,28.631l-1.235,2.681c0,0-1.534-0.173-3.997-0.719L372.429,215.363z"/>
			</g>
			<g>
				<g id="XMLID_733_">
					<path id="XMLID_735_" style="fill:#37474F;" d="M416.637,189.435c0.852-1.407,1.662-2.204,2.883-2.785
						c1.221-0.581,4.969-0.421,7.2,2.24c2.231,2.661,2.689,6.403,4.108,8.44c1.419,2.037,5.188,4.811,7.36,6.608
						c1.952,1.616,4.415,6.049,3.922,10.583c-0.316,2.907-1.752,4.208-3.379,4.992L416.637,189.435z"/>
					<path id="XMLID_734_" style="fill:#455A64;" d="M417.611,188.337c1.801-0.853,5.06-0.339,7.351,1.794
						c1.989,1.851,3.33,5.104,4.598,7.408c0.711,1.292,1.712,2.001,2.732,3.002c1.166,1.144,4.134,3.348,5.208,4.587
						c0.861,0.994,1.512,2.155,2.044,3.358c0.583,1.318,1.033,2.713,1.13,4.152c0.152,2.237-0.447,5.543-2.119,7.046
						c-1.725,1.55-4.552,1.861-6.339-0.71c-0.529-0.761-1.061-1.514-1.541-2.306c-0.833-1.377-2.13-2.979-3.29-4.136
						c-1.777-1.773-4.018-3.355-5.368-4.128c-0.214-0.123-0.428-0.266-0.641-0.368c-2.393-1.148-4.829-2.11-5.161-2.966
						c-0.276-0.713-0.915-8.372-2.807-9.982c-0.499-0.424-0.235-1.147,0.22-1.813C414.084,192.608,415.81,189.191,417.611,188.337z"
						/>
				</g>
				<path style="fill:#FFA8A7;" d="M397.819,163.115c3.454,10.344,4.533,16.175,4.309,28.428
					c-0.147,8.034-1.372,26.965-2.108,36.178s-0.805,16.081-4.316,18.998c-3.51,2.917-11.026,2.008-13.738-4.057
					c-2.712-6.065-4.774-13.365-6.596-24.576c-1.822-11.211-1.289-18.335-1.289-18.335l-1.1-30.301L397.819,163.115z"/>
				<path style="fill:#FFA8A7;" d="M390.736,248.295c4.05,0.324,6.685-1.075,12.678-10.498c5.993-9.423,18.523-34.328,18.523-34.328
					s1.743-4.764-1.573-8.106c-3.722-3.753-6.143-1.735-6.143-1.735s-3.181,4.008-6.745,7.904
					c-3.279,3.584-7.455,7.071-10.304,10.445C395.182,214.334,390.736,248.295,390.736,248.295z"/>
				<path style="fill:#F28F8F;" d="M401.391,207.58c0,0-1.248,22.758-2.304,30.79c0.21-0.661,2.316-6.217,3.619-16.8
					c1.302-10.583,1.207-16.422,1.207-16.422L401.391,207.58z"/>
				<path style="fill:#455A64;" d="M397.819,163.115c0,0,4.237,9.044,4.822,19.359c0.585,10.315-1.496,35.794-1.496,35.794
					s-2.524,3.858-12.017,4.834c-9.492,0.977-13.491-1.123-13.491-1.123l-4.642-31.532c0,0-12.037-6.812-12.362-19.552
					L397.819,163.115z"/>
				<path style="fill:#37474F;" d="M386.196,178.04h1.044c0,4.406,1.864,8.87,4.867,11.65c1.78,1.648,3.809,2.523,5.78,2.523
					c0.07-8.898-0.365-17.41-1.484-22.325l1.017-0.232c2.43,10.675,1.835,40.066-0.795,51.686c-0.368,0.153-0.764,0.301-1.188,0.446
					c1.369-5.639,2.3-17.274,2.438-28.52c-2.227-0.003-4.506-0.988-6.477-2.813C388.189,187.484,386.196,182.727,386.196,178.04z"/>
			</g>
		</g>
		<g>
			<g id="XMLID_5210_">
				<g id="XMLID_5211_">
					<path id="XMLID_509_" style="fill:#FFA8A7;" d="M345.822,53.437c0,0,0.402-4.243,2.019-7.889
						c2.192-4.943,1.658-7.465-5.014-5.704c-4.181,1.103-7.547,4.077-8.173,14.126c-0.18,2.895-0.071,6.237,0.007,12.999
						c0.089,7.767,0.599,15.591,1.549,21.995c0.422,2.843,0.927,5.3,2.496,8.284c7.606,14.464,18.256,24.128,23.366,33.464
						c6.436-0.438,15.384-11.036,10.594-17.677c-5.471-2.31-20.573-18.971-22.669-26.884c-1.393-5.257-4.886-17.034-4.707-23.037"/>
				</g>
			</g>
			<g>
				<path id="XMLID_5216_" style="fill:#27DEBF;" d="M361.509,155.546c-0.156-2.688-0.011-7.158,0.008-8.489
					c-6.701-6.42-4.717-13.32-2.19-18.384c5.053-10.126,9.887-15.855,14.346-15.632l12.191,1.054
					c6.655,0.871,11.201,1.679,12.81,2.051c4.096,0.947,3.939,3.921,4.124,8.278c0.202,4.774,0.598,5.549-0.609,13.453l-5.76,12.066
					l-1.071,6.135c1.249,2.721,6.798,10.967,7.667,23.484c0,0-9.488,3.239-24.192,3.373c-15.411,0.14-21.857-6.582-21.857-6.582
					L361.509,155.546z"/>
				<path style="opacity:0.1;" d="M389.473,143.673c0,0-2.714,5.974-10.345,5.741c-6.979-0.213-9.759-6.118-9.759-6.118
					s0.29,8.014,9.759,8.036C388.583,151.354,389.473,143.673,389.473,143.673z"/>
			</g>
			<g id="XMLID_5187_">
				<path style="fill:#263238;" d="M363.865,80.815l0.035-0.379c1.091-11.693,7.805-13.872,20.068-12.612
					c9.062,0.931,17.279,5.168,20.013,13.202c2.053,6.035,1.082,12.764-2.481,18.051c-3.747,5.559-10.082,8.651-19.038,7.816
					c-0.003,0-0.006,0-0.009,0C370.803,108.307,362.774,92.502,363.865,80.815z"/>
				<path style="fill:#263238;" d="M440.92,93.91c2.101-1.589,3.795-3.7,4.933-6.074c1.832-3.825,2.684-9.693-1.603-12.313
					c-0.49-0.299-1.033-0.526-1.604-0.584c-1.895-0.192-3.417,1.408-4.908,2.594c-2.841,2.259-6.612,3.311-10.213,2.848
					c-3.92-0.504-7.428-2.682-10.507-5.16c-0.981-0.789-1.951-1.626-3.104-2.132c-0.926-0.406-1.938-0.584-2.947-0.646
					c-3.32-0.202-6.674,0.86-9.379,2.796c-0.958,0.686-1.897,1.58-2.067,2.746c-0.111,0.763,0.291,1.661,0.971,2.046
					c0.789,0.446,1.825-0.016,2.666-0.099c2.069-0.203,4.267,0.081,6.016,1.278c1.714,1.173,2.785,3.045,3.938,4.772
					c3.627,5.435,8.992,10.152,15.457,11.096C432.887,97.711,437.44,96.543,440.92,93.91z"/>
				<g id="XMLID_5207_">
					<path id="XMLID_5208_" style="fill:#FFA8A7;" d="M371.912,75.258c-2.398,1.131-5.74,6.584-6.582,18.592
						c-0.713,10.177,2.344,12.993,3.929,13.871c1.585,0.877,4.814,0.735,7.961,0.508l-0.569,6.095c0,0-9.439,8.562-2.402,10.133
						c3.514,0.785,8.21-1.043,11.452-3.149c3.315-2.154,4.539-6.032,4.539-6.032l1.172-13.263c0,0,1.659,1.942,5.004-0.473
						c2.762-1.994,3.973-5.677,2.172-7.883c-1.801-2.205-5.529-1.999-7.208,0.749c0,0-1.832-0.022-3.335-3.566
						c0,0-4.135,0.373-8.541-2.769C373.361,83.693,372.284,77.346,371.912,75.258z"/>
				</g>
				<g id="XMLID_5205_">
					<path id="XMLID_5206_" style="fill:#263238;" d="M378.749,91.88c-0.105,0.728,0.378,1.399,1.079,1.498
						c0.701,0.099,1.355-0.411,1.46-1.14c0.105-0.728-0.378-1.399-1.08-1.498C379.507,90.642,378.854,91.152,378.749,91.88z"/>
				</g>
				<g id="XMLID_5203_" style="opacity:0.5;">
					<path id="XMLID_5204_" style="fill:#F28F8F;" d="M376.37,100.233l-4.104,0.899c0.225,1.171,1.325,1.92,2.458,1.672
						C375.858,102.556,376.594,101.405,376.37,100.233z"/>
				</g>
				<g id="XMLID_5201_">
					<path id="XMLID_5202_" style="fill:#263238;" d="M367.574,86.83l2.751-1.55c-0.402-0.782-1.345-1.069-2.105-0.641
						C367.461,85.068,367.172,86.049,367.574,86.83z"/>
				</g>
				<g id="XMLID_5198_">
					<path id="XMLID_5200_" style="fill:#263238;" d="M380.948,87.563l2.829,1.401c0.42-0.773,0.126-1.713-0.655-2.1
						C382.341,86.477,381.367,86.79,380.948,87.563z"/>
				</g>
				<g id="XMLID_5196_">
					<path id="XMLID_5197_" style="fill:#263238;" d="M367.933,90.589c-0.105,0.728,0.378,1.399,1.079,1.499
						c0.702,0.099,1.355-0.411,1.46-1.139c0.105-0.729-0.378-1.399-1.079-1.498C368.692,89.35,368.038,89.86,367.933,90.589z"/>
				</g>
				<g id="XMLID_5194_" style="opacity:0.5;">
					<polygon id="XMLID_5195_" style="fill:#F28F8F;" points="374.13,90.43 373.209,98.098 369.28,96.467 					"/>
				</g>
				<g id="XMLID_5192_" style="opacity:0.5;">
					<path id="XMLID_5193_" style="fill:#F28F8F;" d="M377.22,108.229c3.306-0.123,10.205-1.426,11.5-3.985
						c0,0-0.505,1.637-2.672,3.17c-2.168,1.533-9.018,2.848-9.018,2.848L377.22,108.229z"/>
				</g>
				<path id="XMLID_5191_" style="fill:#263238;" d="M401.427,75.69l-1.499-5.486c-1.559,0.371-2.486,1.901-2.072,3.416
					C398.27,75.135,399.868,76.062,401.427,75.69z"/>
				<path id="XMLID_5189_" style="fill:#263238;" d="M401.911,76.122l3.134-4.745c-1.307-0.927-3.068-0.615-3.934,0.695
					C400.245,73.382,400.603,75.195,401.911,76.122z"/>
				<path id="XMLID_5188_" style="fill:#263238;" d="M391.378,94.406l-0.499,5.342l0,0c-2.008-0.188-3.484-1.967-3.296-3.976
					l0.461-4.933L391.378,94.406z"/>
			</g>
			<g id="XMLID_5184_">
				<g id="XMLID_5185_">
					<path id="XMLID_5186_" style="fill:#FFA8A7;" d="M424.51,102.179c-9.193,18.711-16.057,23.953-22.321,35.698
						c-10.427,0.482-11.202-15.653-6.411-22.294c0,0,15.213-15.006,17.78-22.782c2.366-7.166,5.781-19.678,5.602-25.681
						c-0.03-1.003-0.475-1.929-1.158-2.664c-1.975-2.126-1.977-3.833-3.246-6.181c-0.989-1.83-2.071-2.514-1.763-2.926
						c0.397-0.529,1.649-1.22,3.206-0.237c0.783,0.494,1.293,1.075,2.43,2.331c0,0-0.266-4.45-1.883-8.097
						c-2.192-4.943-1.658-7.465,5.014-5.704c4.181,1.103,7.822,4.372,8.448,14.421c0.18,2.895,0.278,9.119-0.065,12.779
						c-0.724,7.734-1.678,14.814-2.628,21.217C427.092,94.903,425.778,99.6,424.51,102.179z"/>
				</g>
			</g>
		</g>
		<g id="Device_3_">
			<g id="Mobile_8_">
				<g>
					<path id="XMLID_5158_" style="fill:#455A64;" d="M330.027,62.414c0.011,0.001,0.022,0.001,0.034,0
						c0.008-0.001,0.015-0.002,0.024-0.004c0.008,0,0.017-0.002,0.027-0.005c0.008-0.002,0.017-0.005,0.026-0.008
						c0.025-0.008,0.052-0.021,0.081-0.037l24.31-14.035c0.222-0.128,0.403-0.441,0.403-0.698l0-15.376c0-0.02,0-0.039-0.002-0.057
						c-0.001-0.007-0.001-0.014-0.003-0.021c-0.007-0.037-0.017-0.069-0.032-0.096c-0.003-0.007-0.007-0.013-0.011-0.02
						c-0.006-0.01-0.013-0.02-0.021-0.027c-0.006-0.006-0.012-0.012-0.018-0.017c-0.01-0.01-0.021-0.017-0.033-0.024
						c-0.008-0.005-0.017-0.008-0.025-0.012c-0.01-0.003-0.02-0.006-0.031-0.009c-0.011-0.002-0.022-0.003-0.033-0.004
						c-0.057-0.003-0.122,0.014-0.193,0.054l-24.31,14.035c-0.069,0.04-0.134,0.099-0.191,0.167
						c-0.034,0.041-0.065,0.087-0.094,0.134c-0.027,0.047-0.051,0.097-0.07,0.147c-0.007,0.017-0.013,0.034-0.017,0.051
						c-0.016,0.05-0.026,0.101-0.03,0.15c-0.001,0.017-0.001,0.033-0.001,0.049l0,15.376
						C329.816,62.305,329.901,62.409,330.027,62.414z"/>
				</g>
				<g>
					<path id="XMLID_5151_" style="fill:#37474F;" d="M354.927,32.196c-0.023-0.245-0.193-0.522-0.4-0.642l-0.461-0.266
						c-0.223-0.129-0.583-0.13-0.807-0.001L328.952,45.32c-0.085,0.049-0.162,0.123-0.226,0.211c-0.021,0.028-0.041,0.058-0.06,0.09
						c0.001,0.001,0,0.001,0,0.001l1.268,0.732l0,0.001c0.028-0.047,0.059-0.093,0.093-0.134c0.057-0.069,0.122-0.127,0.191-0.167
						l24.309-14.035C354.733,31.901,354.903,31.98,354.927,32.196z"/>
				</g>
				<path style="fill:#27DEBF;" d="M330.771,54.603c0.39-0.226,0.719-0.795,0.719-1.246c0-0.116-0.022-0.214-0.063-0.285
					c-0.129-0.224-0.393-0.103-0.502-0.041c-0.39,0.226-0.719,0.795-0.719,1.245c0.001,0.115,0.022,0.213,0.063,0.285
					C330.398,54.785,330.663,54.664,330.771,54.603z"/>
				<g id="XMLID_762_">
					<path id="XMLID_5149_" style="fill:#263238;" d="M353.896,40.469c0,0.126,0.088,0.177,0.197,0.114
						c0.109-0.063,0.197-0.216,0.197-0.341c0-0.126-0.088-0.177-0.197-0.114C353.984,40.191,353.896,40.343,353.896,40.469z"/>
					<g>
						<path id="XMLID_4850_" style="fill:#263238;" d="M353.273,43.057c0,0.111,0.078,0.157,0.175,0.101
							c0.096-0.056,0.175-0.191,0.175-0.303s-0.078-0.157-0.175-0.101C353.351,42.81,353.273,42.946,353.273,43.057z"/>
						<path id="XMLID_4835_" style="fill:#263238;" d="M353.266,40.074v2.259c0,0.124,0.082,0.177,0.182,0.119
							c0.101-0.058,0.182-0.206,0.182-0.329v-2.26c0-0.124-0.082-0.177-0.182-0.119C353.347,39.802,353.266,39.95,353.266,40.074z"
							/>
					</g>
				</g>
				<g>
					<path id="XMLID_761_" style="fill:#263238;" d="M330.16,62.389c-0.196,0.08-0.345-0.028-0.345-0.26l0-15.376
						c0-0.128,0.046-0.271,0.119-0.397l-1.268-0.732c-0.073,0.127-0.117,0.268-0.117,0.397l-0.002,15.375
						c-0.001,0.256,0.18,0.569,0.403,0.698l0.461,0.268C329.616,62.478,329.937,62.488,330.16,62.389z"/>
				</g>
				<g>
					<g>
						<path style="fill:#263238;" d="M348.487,35.096c-0.115,0.066-0.296,0.07-0.404,0.007c-0.052-0.03-0.077-0.07-0.077-0.111
							c0-0.029-0.001-0.139-0.001-0.169c0.001-0.043,0.031-0.088,0.09-0.122l2.71-1.565c0.115-0.066,0.296-0.07,0.404-0.007
							c0.05,0.029,0.075,0.066,0.076,0.105c0.001,0.03,0.001,0.144,0.001,0.174c-0.001,0.043-0.031,0.088-0.09,0.122L348.487,35.096
							z"/>
						<path style="fill:#455A64;" d="M348.487,34.929l2.71-1.565c0.115-0.066,0.121-0.171,0.013-0.233
							c-0.108-0.062-0.289-0.059-0.404,0.007l-2.71,1.565c-0.115,0.066-0.121,0.171-0.013,0.233
							C348.191,34.998,348.372,34.995,348.487,34.929z"/>
					</g>
				</g>
			</g>
			<g id="Window_8_">
				<path style="fill:#27DEBF;" d="M331.772,59.818l0-0.881l0.003-12.293c0-0.031,0.002-0.061,0.006-0.091
					c0.024-0.179,0.118-0.342,0.261-0.453c0.024-0.018,0.05-0.036,0.077-0.051l19.28-11.131l0.932-0.539
					c0.036-0.021,0.071-0.034,0.103-0.041c0.14-0.031,0.242,0.063,0.243,0.241l0,13.17c-0.001,0.16-0.023,0.312-0.11,0.426
					c-0.021,0.028-0.047,0.053-0.076,0.076c-0.015,0.012-0.031,0.024-0.049,0.034l-20.324,11.733
					C331.965,60.106,331.772,59.995,331.772,59.818z"/>
				<path style="opacity:0.8;fill:#FFFFFF;" d="M331.772,59.818l0-0.881l0.003-12.293c0-0.031,0.002-0.061,0.006-0.091
					c0.024-0.179,0.118-0.342,0.261-0.453c0.024-0.018,0.05-0.036,0.077-0.051l19.28-11.131l0.932-0.539
					c0.036-0.021,0.071-0.034,0.103-0.041c0.14-0.031,0.242,0.063,0.243,0.241l0,13.17c-0.001,0.16-0.023,0.312-0.11,0.426
					c-0.021,0.028-0.047,0.053-0.076,0.076c-0.015,0.012-0.031,0.024-0.049,0.034l-20.324,11.733
					C331.965,60.106,331.772,59.995,331.772,59.818z"/>
				<path style="opacity:0.8;fill:#27DEBF;" d="M339.485,53.541l0-0.637l0.003-8.896c0-0.022,0.001-0.044,0.004-0.066
					c0.018-0.13,0.085-0.247,0.189-0.328c0.017-0.013,0.036-0.026,0.055-0.037l4.302-2.482l0.675-0.39
					c0.026-0.015,0.051-0.025,0.075-0.03c0.101-0.022,0.175,0.046,0.176,0.174l0,9.531c-0.001,0.116-0.017,0.226-0.08,0.308
					c-0.016,0.02-0.034,0.038-0.055,0.055c-0.011,0.008-0.023,0.017-0.035,0.024l-5.058,2.917
					C339.625,53.75,339.485,53.67,339.485,53.541z"/>
				<polygon style="opacity:0.15;" points="341.166,47.919 341.832,46.503 339.825,43.526 339.985,43.434 342,46.144 
					344.494,40.833 344.714,40.706 341.797,47.679 344.794,50.768 344.699,50.823 342.259,48.817 339.976,53.547 339.825,53.634 
					341.997,48.602 				"/>
			</g>
		</g>
		<path id="XMLID_5212_" style="fill:#FFA8A7;" d="M345.29,63.114c0.03-1.003,0.475-1.929,1.158-2.664
			c1.975-2.126,1.977-3.833,3.246-6.181c0.989-1.83,2.072-2.514,1.763-2.926c-0.397-0.529-1.649-1.22-3.206-0.237
			c-0.783,0.494-1.293,1.075-2.43,2.331"/>
	</g>
</g>
</svg>
